<svg width="399" height="46" viewBox="0 0 399 46" fill="none" xmlns="http://www.w3.org/2000/svg">
<line x1="21" y1="18" x2="21" y2="2" stroke="#5DCDCE" stroke-width="4" stroke-linecap="round"/>
<line x1="53" y1="18" x2="53" y2="2" stroke="#5DCDCE" stroke-width="4" stroke-linecap="round"/>
<line x1="13" y1="18" x2="13" y2="2" stroke="#5DCDCE" stroke-width="4" stroke-linecap="round"/>
<line x1="5" y1="18" x2="5" y2="2" stroke="#5DCDCE" stroke-width="4" stroke-linecap="round"/>
<line x1="45" y1="18" x2="45" y2="2" stroke="#5DCDCE" stroke-width="4" stroke-linecap="round"/>
<line x1="37" y1="18" x2="37" y2="2" stroke="#5DCDCE" stroke-width="4" stroke-linecap="round"/>
<line x1="29" y1="18" x2="29" y2="2" stroke="#5DCDCE" stroke-width="4" stroke-linecap="round"/>
<line x1="77" y1="18" x2="77" y2="2" stroke="#55AB81" stroke-width="4" stroke-linecap="round"/>
<line x1="109" y1="18" x2="109" y2="2" stroke="#55AB81" stroke-width="4" stroke-linecap="round"/>
<line x1="69" y1="18" x2="69" y2="2" stroke="#55AB81" stroke-width="4" stroke-linecap="round"/>
<line x1="61" y1="18" x2="61" y2="2" stroke="#55AB81" stroke-width="4" stroke-linecap="round"/>
<line x1="101" y1="18" x2="101" y2="2" stroke="#55AB81" stroke-width="4" stroke-linecap="round"/>
<line x1="93" y1="18" x2="93" y2="2" stroke="#55AB81" stroke-width="4" stroke-linecap="round"/>
<line x1="85" y1="18" x2="85" y2="2" stroke="#55AB81" stroke-width="4" stroke-linecap="round"/>
<line x1="133" y1="18" x2="133" y2="2" stroke="#55AB81" stroke-width="4" stroke-linecap="round"/>
<line x1="165" y1="18" x2="165" y2="2" stroke="#55AB81" stroke-width="4" stroke-linecap="round"/>
<line x1="125" y1="18" x2="125" y2="2" stroke="#55AB81" stroke-width="4" stroke-linecap="round"/>
<line x1="117" y1="18" x2="117" y2="2" stroke="#55AB81" stroke-width="4" stroke-linecap="round"/>
<line x1="157" y1="18" x2="157" y2="2" stroke="#55AB81" stroke-width="4" stroke-linecap="round"/>
<line x1="149" y1="18" x2="149" y2="2" stroke="#55AB81" stroke-width="4" stroke-linecap="round"/>
<line x1="141" y1="18" x2="141" y2="2" stroke="#55AB81" stroke-width="4" stroke-linecap="round"/>
<line x1="197" y1="18" x2="197" y2="2" stroke="#FEDC00" stroke-width="4" stroke-linecap="round"/>
<line x1="189" y1="18" x2="189" y2="2" stroke="#FEDC00" stroke-width="4" stroke-linecap="round"/>
<line x1="181" y1="18" x2="181" y2="2" stroke="#FEDC00" stroke-width="4" stroke-linecap="round"/>
<line x1="173" y1="18" x2="173" y2="2" stroke="#FEDC00" stroke-width="4" stroke-linecap="round"/>
<line x1="221" y1="18" x2="221" y2="2" stroke="#FEDC00" stroke-width="4" stroke-linecap="round"/>
<line x1="253" y1="18" x2="253" y2="2" stroke="#FEDC00" stroke-width="4" stroke-linecap="round"/>
<line x1="213" y1="18" x2="213" y2="2" stroke="#FEDC00" stroke-width="4" stroke-linecap="round"/>
<line x1="205" y1="18" x2="205" y2="2" stroke="#FEDC00" stroke-width="4" stroke-linecap="round"/>
<line x1="245" y1="18" x2="245" y2="2" stroke="#FEDC00" stroke-width="4" stroke-linecap="round"/>
<line x1="237" y1="18" x2="237" y2="2" stroke="#FEDC00" stroke-width="4" stroke-linecap="round"/>
<line x1="229" y1="18" x2="229" y2="2" stroke="#FEDC00" stroke-width="4" stroke-linecap="round"/>
<line x1="277" y1="18" x2="277" y2="2" stroke="#CE0A18" stroke-width="4" stroke-linecap="round"/>
<line x1="309" y1="18" x2="309" y2="2" stroke="#CE0A18" stroke-width="4" stroke-linecap="round"/>
<line x1="269" y1="18" x2="269" y2="2" stroke="#CE0A18" stroke-width="4" stroke-linecap="round"/>
<line x1="261" y1="18" x2="261" y2="2" stroke="#CE0A18" stroke-width="4" stroke-linecap="round"/>
<line x1="301" y1="18" x2="301" y2="2" stroke="#CE0A18" stroke-width="4" stroke-linecap="round"/>
<line x1="293" y1="18" x2="293" y2="2" stroke="#CE0A18" stroke-width="4" stroke-linecap="round"/>
<line x1="285" y1="18" x2="285" y2="2" stroke="#CE0A18" stroke-width="4" stroke-linecap="round"/>
<line x1="341" y1="18" x2="341" y2="2" stroke="#CE0A18" stroke-width="4" stroke-linecap="round"/>
<line x1="333" y1="18" x2="333" y2="2" stroke="#CE0A18" stroke-width="4" stroke-linecap="round"/>
<line x1="325" y1="18" x2="325" y2="2" stroke="#CE0A18" stroke-width="4" stroke-linecap="round"/>
<line x1="317" y1="18" x2="317" y2="2" stroke="#CE0A18" stroke-width="4" stroke-linecap="round"/>
<line x1="365" y1="18" x2="365" y2="2" stroke="#CE0A18" stroke-width="4" stroke-linecap="round"/>
<line x1="397" y1="18" x2="397" y2="2" stroke="#CE0A18" stroke-width="4" stroke-linecap="round"/>
<line x1="357" y1="18" x2="357" y2="2" stroke="#CE0A18" stroke-width="4" stroke-linecap="round"/>
<line x1="349" y1="18" x2="349" y2="2" stroke="#CE0A18" stroke-width="4" stroke-linecap="round"/>
<line x1="389" y1="18" x2="389" y2="2" stroke="#CE0A18" stroke-width="4" stroke-linecap="round"/>
<line x1="381" y1="18" x2="381" y2="2" stroke="#CE0A18" stroke-width="4" stroke-linecap="round"/>
<line x1="373" y1="18" x2="373" y2="2" stroke="#CE0A18" stroke-width="4" stroke-linecap="round"/>
<path d="M4.27148 39H3.18164V31.7754L0.996094 32.5781V31.5938L4.10156 30.4277H4.27148V39ZM7.94531 34.7227L8.37891 30.4688H12.75V31.4707H9.29883L9.04102 33.7969C9.45898 33.5508 9.93359 33.4277 10.4648 33.4277C11.2422 33.4277 11.8594 33.6855 12.3164 34.2012C12.7734 34.7129 13.002 35.4062 13.002 36.2812C13.002 37.1602 12.7637 37.8535 12.2871 38.3613C11.8145 38.8652 11.1523 39.1172 10.3008 39.1172C9.54688 39.1172 8.93164 38.9082 8.45508 38.4902C7.97852 38.0723 7.70703 37.4941 7.64062 36.7559H8.66602C8.73242 37.2441 8.90625 37.6133 9.1875 37.8633C9.46875 38.1094 9.83984 38.2324 10.3008 38.2324C10.8047 38.2324 11.1992 38.0605 11.4844 37.7168C11.7734 37.373 11.918 36.8984 11.918 36.293C11.918 35.7227 11.7617 35.2656 11.4492 34.9219C11.1406 34.5742 10.7285 34.4004 10.2129 34.4004C9.74023 34.4004 9.36914 34.5039 9.09961 34.7109L8.8125 34.9453L7.94531 34.7227Z" fill="black"/>
<path d="M62.2715 39H61.1816V31.7754L58.9961 32.5781V31.5938L62.1016 30.4277H62.2715V39ZM70.6211 32.6953C70.6211 33.1211 70.5078 33.5 70.2812 33.832C70.0586 34.1641 69.7559 34.4238 69.373 34.6113C69.8184 34.8027 70.1699 35.082 70.4277 35.4492C70.6895 35.8164 70.8203 36.2324 70.8203 36.6973C70.8203 37.4355 70.5703 38.0234 70.0703 38.4609C69.5742 38.8984 68.9199 39.1172 68.1074 39.1172C67.2871 39.1172 66.6289 38.8984 66.1328 38.4609C65.6406 38.0195 65.3945 37.4316 65.3945 36.6973C65.3945 36.2363 65.5195 35.8203 65.7695 35.4492C66.0234 35.0781 66.373 34.7969 66.8184 34.6055C66.4395 34.418 66.1406 34.1582 65.9219 33.8262C65.7031 33.4941 65.5938 33.1172 65.5938 32.6953C65.5938 31.9766 65.8242 31.4062 66.2852 30.9844C66.7461 30.5625 67.3535 30.3516 68.1074 30.3516C68.8574 30.3516 69.4629 30.5625 69.9238 30.9844C70.3887 31.4062 70.6211 31.9766 70.6211 32.6953ZM69.7363 36.6738C69.7363 36.1973 69.584 35.8086 69.2793 35.5078C68.9785 35.207 68.584 35.0566 68.0957 35.0566C67.6074 35.0566 67.2148 35.2051 66.918 35.502C66.625 35.7988 66.4785 36.1895 66.4785 36.6738C66.4785 37.1582 66.6211 37.5391 66.9062 37.8164C67.1953 38.0938 67.5957 38.2324 68.1074 38.2324C68.6152 38.2324 69.0137 38.0938 69.3027 37.8164C69.5918 37.5352 69.7363 37.1543 69.7363 36.6738ZM68.1074 31.2422C67.6816 31.2422 67.3359 31.375 67.0703 31.6406C66.8086 31.9023 66.6777 32.2598 66.6777 32.7129C66.6777 33.1465 66.8066 33.498 67.0645 33.7676C67.3262 34.0332 67.6738 34.166 68.1074 34.166C68.541 34.166 68.8867 34.0332 69.1445 33.7676C69.4062 33.498 69.5371 33.1465 69.5371 32.7129C69.5371 32.2793 69.4023 31.9258 69.1328 31.6523C68.8633 31.3789 68.5215 31.2422 68.1074 31.2422ZM72.3203 38.4316C72.3203 38.2441 72.375 38.0879 72.4844 37.9629C72.5977 37.8379 72.7656 37.7754 72.9883 37.7754C73.2109 37.7754 73.3789 37.8379 73.4922 37.9629C73.6094 38.0879 73.668 38.2441 73.668 38.4316C73.668 38.6113 73.6094 38.7617 73.4922 38.8828C73.3789 39.0039 73.2109 39.0645 72.9883 39.0645C72.7656 39.0645 72.5977 39.0039 72.4844 38.8828C72.375 38.7617 72.3203 38.6113 72.3203 38.4316ZM75.8477 34.7227L76.2812 30.4688H80.6523V31.4707H77.2012L76.9434 33.7969C77.3613 33.5508 77.8359 33.4277 78.3672 33.4277C79.1445 33.4277 79.7617 33.6855 80.2188 34.2012C80.6758 34.7129 80.9043 35.4062 80.9043 36.2812C80.9043 37.1602 80.666 37.8535 80.1895 38.3613C79.7168 38.8652 79.0547 39.1172 78.2031 39.1172C77.4492 39.1172 76.834 38.9082 76.3574 38.4902C75.8809 38.0723 75.6094 37.4941 75.543 36.7559H76.5684C76.6348 37.2441 76.8086 37.6133 77.0898 37.8633C77.3711 38.1094 77.7422 38.2324 78.2031 38.2324C78.707 38.2324 79.1016 38.0605 79.3867 37.7168C79.6758 37.373 79.8203 36.8984 79.8203 36.293C79.8203 35.7227 79.6641 35.2656 79.3516 34.9219C79.043 34.5742 78.6309 34.4004 78.1152 34.4004C77.6426 34.4004 77.2715 34.5039 77.002 34.7109L76.7148 34.9453L75.8477 34.7227Z" fill="black"/>
<path d="M175.299 39H169.709V38.2207L172.662 34.9395C173.1 34.4434 173.4 34.041 173.564 33.7324C173.732 33.4199 173.816 33.0977 173.816 32.7656C173.816 32.3203 173.682 31.9551 173.412 31.6699C173.143 31.3848 172.783 31.2422 172.334 31.2422C171.795 31.2422 171.375 31.3965 171.074 31.7051C170.777 32.0098 170.629 32.4355 170.629 32.9824H169.545C169.545 32.1973 169.797 31.5625 170.301 31.0781C170.809 30.5938 171.486 30.3516 172.334 30.3516C173.127 30.3516 173.754 30.5605 174.215 30.9785C174.676 31.3926 174.906 31.9453 174.906 32.6367C174.906 33.4766 174.371 34.4766 173.301 35.6367L171.016 38.1152H175.299V39ZM176.945 34.7227L177.379 30.4688H181.75V31.4707H178.299L178.041 33.7969C178.459 33.5508 178.934 33.4277 179.465 33.4277C180.242 33.4277 180.859 33.6855 181.316 34.2012C181.773 34.7129 182.002 35.4062 182.002 36.2812C182.002 37.1602 181.764 37.8535 181.287 38.3613C180.814 38.8652 180.152 39.1172 179.301 39.1172C178.547 39.1172 177.932 38.9082 177.455 38.4902C176.979 38.0723 176.707 37.4941 176.641 36.7559H177.666C177.732 37.2441 177.906 37.6133 178.188 37.8633C178.469 38.1094 178.84 38.2324 179.301 38.2324C179.805 38.2324 180.199 38.0605 180.484 37.7168C180.773 37.373 180.918 36.8984 180.918 36.293C180.918 35.7227 180.762 35.2656 180.449 34.9219C180.141 34.5742 179.729 34.4004 179.213 34.4004C178.74 34.4004 178.369 34.5039 178.1 34.7109L177.812 34.9453L176.945 34.7227Z" fill="black"/>
<path d="M264.285 34.207H265.1C265.611 34.1992 266.014 34.0645 266.307 33.8027C266.6 33.541 266.746 33.1875 266.746 32.7422C266.746 31.7422 266.248 31.2422 265.252 31.2422C264.783 31.2422 264.408 31.377 264.127 31.6465C263.85 31.9121 263.711 32.2656 263.711 32.707H262.627C262.627 32.0312 262.873 31.4707 263.365 31.0254C263.861 30.5762 264.49 30.3516 265.252 30.3516C266.057 30.3516 266.688 30.5645 267.145 30.9902C267.602 31.416 267.83 32.0078 267.83 32.7656C267.83 33.1367 267.709 33.4961 267.467 33.8438C267.229 34.1914 266.902 34.4512 266.488 34.623C266.957 34.7715 267.318 35.0176 267.572 35.3613C267.83 35.7051 267.959 36.125 267.959 36.6211C267.959 37.3867 267.709 37.9941 267.209 38.4434C266.709 38.8926 266.059 39.1172 265.258 39.1172C264.457 39.1172 263.805 38.9004 263.301 38.4668C262.801 38.0332 262.551 37.4609 262.551 36.75H263.641C263.641 37.1992 263.787 37.5586 264.08 37.8281C264.373 38.0977 264.766 38.2324 265.258 38.2324C265.781 38.2324 266.182 38.0957 266.459 37.8223C266.736 37.5488 266.875 37.1562 266.875 36.6445C266.875 36.1484 266.723 35.7676 266.418 35.502C266.113 35.2363 265.674 35.0996 265.1 35.0918H264.285V34.207ZM274.797 35.3613C274.797 36.6309 274.58 37.5742 274.146 38.1914C273.713 38.8086 273.035 39.1172 272.113 39.1172C271.203 39.1172 270.529 38.8164 270.092 38.2148C269.654 37.6094 269.428 36.707 269.412 35.5078V34.0605C269.412 32.8066 269.629 31.875 270.062 31.2656C270.496 30.6562 271.176 30.3516 272.102 30.3516C273.02 30.3516 273.695 30.6465 274.129 31.2363C274.562 31.8223 274.785 32.7285 274.797 33.9551V35.3613ZM273.713 33.8789C273.713 32.9609 273.584 32.293 273.326 31.875C273.068 31.4531 272.66 31.2422 272.102 31.2422C271.547 31.2422 271.143 31.4512 270.889 31.8691C270.635 32.2871 270.504 32.9297 270.496 33.7969V35.5312C270.496 36.4531 270.629 37.1348 270.895 37.5762C271.164 38.0137 271.57 38.2324 272.113 38.2324C272.648 38.2324 273.045 38.0254 273.303 37.6113C273.564 37.1973 273.701 36.5449 273.713 35.6543V33.8789Z" fill="black"/>
</svg>
