<svg width="854" height="858" viewBox="0 0 854 858" fill="none" xmlns="http://www.w3.org/2000/svg">
<path d="M427 803V545.5H780.5L766.5 590L739.5 637L701.5 684.5L657 726L607.5 758L545.5 785L486 799L427 803Z" fill="#1261A0" fill-opacity="0.9" stroke="black"/>
<path d="M427 546.5V53.5L518.5 64L569.5 81L616 105L653.5 129L686.5 156.5L747 230.5L782 306L801.5 387V471L782 546.5H427Z" fill="#C1DBF4" stroke="black"/>
<path d="M428 412.5V52.5L356.5 58.5L285 79L226 109.5L170.5 153.5L125.5 203L88 263.5L61.5 333L52 412.5H428Z" fill="#CE0A18" stroke="black"/>
<path d="M849 429C849 663.191 660.042 853 427 853C193.958 853 5 663.191 5 429C5 194.809 193.958 5 427 5C660.042 5 849 194.809 849 429Z" stroke="black" stroke-width="10"/>
<path d="M782.5 546L427 546" stroke="black" stroke-width="10"/>
<path d="M510.619 354.428L517.123 334.406H522.01L512.799 360H508.492L499.316 334.406H504.186L510.619 354.428ZM539.869 348.574H529.357V356.449H541.645V360H524.91V334.406H541.521V337.992H529.357V345.059H539.869V348.574ZM564.883 356.678C563.957 357.885 562.674 358.799 561.033 359.42C559.393 360.041 557.529 360.352 555.443 360.352C553.299 360.352 551.4 359.865 549.748 358.893C548.096 357.92 546.818 356.531 545.916 354.727C545.025 352.91 544.562 350.795 544.527 348.381V346.377C544.527 342.51 545.453 339.492 547.305 337.324C549.156 335.145 551.74 334.055 555.057 334.055C557.904 334.055 560.166 334.758 561.842 336.164C563.518 337.57 564.525 339.598 564.865 342.246H560.506C560.014 339.164 558.227 337.623 555.145 337.623C553.152 337.623 551.635 338.344 550.592 339.785C549.561 341.215 549.027 343.318 548.992 346.096V348.064C548.992 350.83 549.572 352.98 550.732 354.516C551.904 356.039 553.527 356.801 555.602 356.801C557.875 356.801 559.492 356.285 560.453 355.254V350.244H555.18V346.869H564.883V356.678ZM584.729 348.574H574.217V356.449H586.504V360H569.77V334.406H586.381V337.992H574.217V345.059H584.729V348.574ZM608.969 337.992H600.988V360H596.576V337.992H588.666V334.406H608.969V337.992ZM624.561 354.041H614.646L612.572 360H607.949L617.617 334.406H621.607L631.293 360H626.652L624.561 354.041ZM615.895 350.455H623.312L619.604 339.838L615.895 350.455ZM634.211 360V334.406H642.982C645.877 334.406 648.08 334.986 649.592 336.146C651.104 337.307 651.859 339.035 651.859 341.332C651.859 342.504 651.543 343.559 650.91 344.496C650.277 345.434 649.352 346.16 648.133 346.676C649.516 347.051 650.582 347.76 651.332 348.803C652.094 349.834 652.475 351.076 652.475 352.529C652.475 354.932 651.701 356.777 650.154 358.066C648.619 359.355 646.416 360 643.545 360H634.211ZM638.658 348.451V356.449H643.598C644.992 356.449 646.082 356.104 646.867 355.412C647.652 354.721 648.045 353.76 648.045 352.529C648.045 349.869 646.686 348.51 643.967 348.451H638.658ZM638.658 345.182H643.018C644.4 345.182 645.479 344.871 646.252 344.25C647.037 343.617 647.43 342.727 647.43 341.578C647.43 340.312 647.066 339.398 646.34 338.836C645.625 338.273 644.506 337.992 642.982 337.992H638.658V345.182ZM661.369 356.449H672.988V360H656.922V334.406H661.369V356.449ZM691.357 348.574H680.846V356.449H693.133V360H676.398V334.406H693.01V337.992H680.846V345.059H691.357V348.574ZM710.131 353.408C710.131 352.283 709.732 351.416 708.936 350.807C708.15 350.197 706.727 349.582 704.664 348.961C702.602 348.34 700.961 347.648 699.742 346.887C697.41 345.422 696.244 343.512 696.244 341.156C696.244 339.094 697.082 337.395 698.758 336.059C700.445 334.723 702.631 334.055 705.314 334.055C707.096 334.055 708.684 334.383 710.078 335.039C711.473 335.695 712.568 336.633 713.365 337.852C714.162 339.059 714.561 340.4 714.561 341.877H710.131C710.131 340.541 709.709 339.498 708.865 338.748C708.033 337.986 706.838 337.605 705.279 337.605C703.826 337.605 702.695 337.916 701.887 338.537C701.09 339.158 700.691 340.025 700.691 341.139C700.691 342.076 701.125 342.861 701.992 343.494C702.859 344.115 704.289 344.725 706.281 345.322C708.273 345.908 709.873 346.582 711.08 347.344C712.287 348.094 713.172 348.961 713.734 349.945C714.297 350.918 714.578 352.061 714.578 353.373C714.578 355.506 713.758 357.205 712.117 358.471C710.488 359.725 708.273 360.352 705.473 360.352C703.621 360.352 701.916 360.012 700.357 359.332C698.811 358.641 697.604 357.691 696.736 356.484C695.881 355.277 695.453 353.871 695.453 352.266H699.9C699.9 353.719 700.381 354.844 701.342 355.641C702.303 356.438 703.68 356.836 705.473 356.836C707.02 356.836 708.18 356.525 708.953 355.904C709.738 355.271 710.131 354.439 710.131 353.408Z" fill="white"/>
<path d="M428 411.5H49.5L51.5 481.5L68.5 553L100.5 620L147.5 683.5L210 738.5L286 778L356.5 799.5L428 806V411.5Z" fill="#FEA800" stroke="black"/>
<path d="M531.35 642.154H521.049V653H516.602V627.406H532.861V630.992H521.049V638.604H531.35V642.154ZM545.799 643.139H540.842V653H536.395V627.406H545.395C548.348 627.406 550.627 628.068 552.232 629.393C553.838 630.717 554.641 632.633 554.641 635.141C554.641 636.852 554.225 638.287 553.393 639.447C552.572 640.596 551.424 641.48 549.947 642.102L555.695 652.771V653H550.932L545.799 643.139ZM540.842 639.57H545.412C546.912 639.57 548.084 639.195 548.928 638.445C549.771 637.684 550.193 636.646 550.193 635.334C550.193 633.963 549.801 632.902 549.016 632.152C548.242 631.402 547.082 631.016 545.535 630.992H540.842V639.57ZM577.58 627.406V644.51C577.58 647.229 576.707 649.385 574.961 650.979C573.227 652.561 570.912 653.352 568.018 653.352C565.088 653.352 562.762 652.572 561.039 651.014C559.316 649.443 558.455 647.27 558.455 644.492V627.406H562.885V644.527C562.885 646.238 563.318 647.545 564.186 648.447C565.053 649.35 566.33 649.801 568.018 649.801C571.439 649.801 573.15 647.996 573.15 644.387V627.406H577.58ZM587.037 653H582.607V627.406H587.037V653ZM610.469 630.992H602.488V653H598.076V630.992H590.166V627.406H610.469V630.992ZM626.939 646.408C626.939 645.283 626.541 644.416 625.744 643.807C624.959 643.197 623.535 642.582 621.473 641.961C619.41 641.34 617.77 640.648 616.551 639.887C614.219 638.422 613.053 636.512 613.053 634.156C613.053 632.094 613.891 630.395 615.566 629.059C617.254 627.723 619.439 627.055 622.123 627.055C623.904 627.055 625.492 627.383 626.887 628.039C628.281 628.695 629.377 629.633 630.174 630.852C630.971 632.059 631.369 633.4 631.369 634.877H626.939C626.939 633.541 626.518 632.498 625.674 631.748C624.842 630.986 623.646 630.605 622.088 630.605C620.635 630.605 619.504 630.916 618.695 631.537C617.898 632.158 617.5 633.025 617.5 634.139C617.5 635.076 617.934 635.861 618.801 636.494C619.668 637.115 621.098 637.725 623.09 638.322C625.082 638.908 626.682 639.582 627.889 640.344C629.096 641.094 629.98 641.961 630.543 642.945C631.105 643.918 631.387 645.061 631.387 646.373C631.387 648.506 630.566 650.205 628.926 651.471C627.297 652.725 625.082 653.352 622.281 653.352C620.43 653.352 618.725 653.012 617.166 652.332C615.619 651.641 614.412 650.691 613.545 649.484C612.689 648.277 612.262 646.871 612.262 645.266H616.709C616.709 646.719 617.189 647.844 618.15 648.641C619.111 649.438 620.488 649.836 622.281 649.836C623.828 649.836 624.988 649.525 625.762 648.904C626.547 648.271 626.939 647.439 626.939 646.408Z" fill="white"/>
<path d="M185.049 577.49V587H180.602V561.406H190.393C193.252 561.406 195.52 562.15 197.195 563.639C198.883 565.127 199.727 567.096 199.727 569.545C199.727 572.053 198.9 574.004 197.248 575.398C195.607 576.793 193.305 577.49 190.34 577.49H185.049ZM185.049 573.922H190.393C191.975 573.922 193.182 573.553 194.014 572.814C194.846 572.064 195.262 570.986 195.262 569.58C195.262 568.197 194.84 567.096 193.996 566.275C193.152 565.443 191.992 565.016 190.516 564.992H185.049V573.922ZM213.033 577.139H208.076V587H203.629V561.406H212.629C215.582 561.406 217.861 562.068 219.467 563.393C221.072 564.717 221.875 566.633 221.875 569.141C221.875 570.852 221.459 572.287 220.627 573.447C219.807 574.596 218.658 575.48 217.182 576.102L222.93 586.771V587H218.166L213.033 577.139ZM208.076 573.57H212.646C214.146 573.57 215.318 573.195 216.162 572.445C217.006 571.684 217.428 570.646 217.428 569.334C217.428 567.963 217.035 566.902 216.25 566.152C215.477 565.402 214.316 565.016 212.77 564.992H208.076V573.57ZM246.52 574.871C246.52 577.379 246.086 579.582 245.219 581.48C244.352 583.367 243.109 584.82 241.492 585.84C239.887 586.848 238.035 587.352 235.938 587.352C233.863 587.352 232.012 586.848 230.383 585.84C228.766 584.82 227.512 583.373 226.621 581.498C225.742 579.623 225.297 577.461 225.285 575.012V573.57C225.285 571.074 225.725 568.871 226.604 566.961C227.494 565.051 228.742 563.592 230.348 562.584C231.965 561.564 233.816 561.055 235.902 561.055C237.988 561.055 239.834 561.559 241.439 562.566C243.057 563.562 244.305 565.004 245.184 566.891C246.062 568.766 246.508 570.951 246.52 573.447V574.871ZM242.072 573.535C242.072 570.699 241.533 568.525 240.455 567.014C239.389 565.502 237.871 564.746 235.902 564.746C233.98 564.746 232.475 565.502 231.385 567.014C230.307 568.514 229.756 570.641 229.732 573.395V574.871C229.732 577.684 230.277 579.857 231.367 581.393C232.469 582.928 233.992 583.695 235.938 583.695C237.906 583.695 239.418 582.945 240.473 581.445C241.539 579.945 242.072 577.754 242.072 574.871V573.535ZM267.93 564.992H259.949V587H255.537V564.992H247.627V561.406H267.93V564.992ZM286.264 575.574H275.752V583.449H288.039V587H271.305V561.406H287.916V564.992H275.752V572.059H286.264V575.574ZM296.354 587H291.924V561.406H296.354V587ZM322.123 587H317.676L306.268 568.842V587H301.82V561.406H306.268L317.711 579.635V561.406H322.123V587Z" fill="white"/>
<path d="M225.676 255.672L229.613 236.406H234.025L228.119 262H223.865L218.996 243.314L214.021 262H209.75L203.844 236.406H208.256L212.229 255.637L217.115 236.406H220.842L225.676 255.672ZM257.598 262H253.168V250.627H241.725V262H237.277V236.406H241.725V247.059H253.168V236.406H257.598V262ZM283.297 249.871C283.297 252.379 282.863 254.582 281.996 256.48C281.129 258.367 279.887 259.82 278.27 260.84C276.664 261.848 274.812 262.352 272.715 262.352C270.641 262.352 268.789 261.848 267.16 260.84C265.543 259.82 264.289 258.373 263.398 256.498C262.52 254.623 262.074 252.461 262.062 250.012V248.57C262.062 246.074 262.502 243.871 263.381 241.961C264.271 240.051 265.52 238.592 267.125 237.584C268.742 236.564 270.594 236.055 272.68 236.055C274.766 236.055 276.611 236.559 278.217 237.566C279.834 238.562 281.082 240.004 281.961 241.891C282.84 243.766 283.285 245.951 283.297 248.447V249.871ZM278.85 248.535C278.85 245.699 278.311 243.525 277.232 242.014C276.166 240.502 274.648 239.746 272.68 239.746C270.758 239.746 269.252 240.502 268.162 242.014C267.084 243.514 266.533 245.641 266.51 248.395V249.871C266.51 252.684 267.055 254.857 268.145 256.393C269.246 257.928 270.77 258.695 272.715 258.695C274.684 258.695 276.195 257.945 277.25 256.445C278.316 254.945 278.85 252.754 278.85 249.871V248.535ZM292.174 258.449H303.793V262H287.727V236.406H292.174V258.449ZM322.162 250.574H311.65V258.449H323.938V262H307.203V236.406H323.814V239.992H311.65V247.059H322.162V250.574ZM225.219 300.678C224.293 301.885 223.01 302.799 221.369 303.42C219.729 304.041 217.865 304.352 215.779 304.352C213.635 304.352 211.736 303.865 210.084 302.893C208.432 301.92 207.154 300.531 206.252 298.727C205.361 296.91 204.898 294.795 204.863 292.381V290.377C204.863 286.51 205.789 283.492 207.641 281.324C209.492 279.145 212.076 278.055 215.393 278.055C218.24 278.055 220.502 278.758 222.178 280.164C223.854 281.57 224.861 283.598 225.201 286.246H220.842C220.35 283.164 218.562 281.623 215.48 281.623C213.488 281.623 211.971 282.344 210.928 283.785C209.896 285.215 209.363 287.318 209.328 290.096V292.064C209.328 294.83 209.908 296.98 211.068 298.516C212.24 300.039 213.863 300.801 215.938 300.801C218.211 300.801 219.828 300.285 220.789 299.254V294.244H215.516V290.869H225.219V300.678ZM239.51 294.139H234.553V304H230.105V278.406H239.105C242.059 278.406 244.338 279.068 245.943 280.393C247.549 281.717 248.352 283.633 248.352 286.141C248.352 287.852 247.936 289.287 247.104 290.447C246.283 291.596 245.135 292.48 243.658 293.102L249.406 303.771V304H244.643L239.51 294.139ZM234.553 290.57H239.123C240.623 290.57 241.795 290.195 242.639 289.445C243.482 288.684 243.904 287.646 243.904 286.334C243.904 284.963 243.512 283.902 242.727 283.152C241.953 282.402 240.793 282.016 239.246 281.992H234.553V290.57ZM266.896 298.041H256.982L254.908 304H250.285L259.953 278.406H263.943L273.629 304H268.988L266.896 298.041ZM258.23 294.455H265.648L261.939 283.838L258.23 294.455ZM281.24 304H276.811V278.406H281.24V304ZM307.01 304H302.562L291.154 285.842V304H286.707V278.406H291.154L302.598 296.635V278.406H307.01V304ZM325.643 297.408C325.643 296.283 325.244 295.416 324.447 294.807C323.662 294.197 322.238 293.582 320.176 292.961C318.113 292.34 316.473 291.648 315.254 290.887C312.922 289.422 311.756 287.512 311.756 285.156C311.756 283.094 312.594 281.395 314.27 280.059C315.957 278.723 318.143 278.055 320.826 278.055C322.607 278.055 324.195 278.383 325.59 279.039C326.984 279.695 328.08 280.633 328.877 281.852C329.674 283.059 330.072 284.4 330.072 285.877H325.643C325.643 284.541 325.221 283.498 324.377 282.748C323.545 281.986 322.35 281.605 320.791 281.605C319.338 281.605 318.207 281.916 317.398 282.537C316.602 283.158 316.203 284.025 316.203 285.139C316.203 286.076 316.637 286.861 317.504 287.494C318.371 288.115 319.801 288.725 321.793 289.322C323.785 289.908 325.385 290.582 326.592 291.344C327.799 292.094 328.684 292.961 329.246 293.945C329.809 294.918 330.09 296.061 330.09 297.373C330.09 299.506 329.27 301.205 327.629 302.471C326 303.725 323.785 304.352 320.984 304.352C319.133 304.352 317.428 304.012 315.869 303.332C314.322 302.641 313.115 301.691 312.248 300.484C311.393 299.277 310.965 297.871 310.965 296.266H315.412C315.412 297.719 315.893 298.844 316.854 299.641C317.814 300.438 319.191 300.836 320.984 300.836C322.531 300.836 323.691 300.525 324.465 299.904C325.25 299.271 325.643 298.439 325.643 297.408Z" fill="white"/>
<line x1="426" y1="412" x2="46" y2="412" stroke="black" stroke-width="10"/>
<circle cx="426.5" cy="428.5" r="375.5" stroke="black" stroke-width="10"/>
<line x1="427" y1="48" x2="427" y2="809" stroke="black" stroke-width="10"/>
</svg>
