<?xml version="1.0" encoding="utf-8"?>
<!-- Generator: Adobe Illustrator 23.0.2, SVG Export Plug-In . SVG Version: 6.00 Build 0)  -->
<svg version="1.1" id="Layer_1" xmlns="http://www.w3.org/2000/svg" xmlns:xlink="http://www.w3.org/1999/xlink" x="0px" y="0px"
	 viewBox="0 0 3500 1524" style="enable-background:new 0 0 3500 1524;" xml:space="preserve">
<style type="text/css">
	.st0{fill:url(#SVGID_1_);}
	.st1{fill:#649EDD;}
	.st2{fill:#F34B1E;}
	.st3{fill:#FCDAD1;}
	.st4{fill:#AED0F4;}
	.st5{fill:url(#SVGID_2_);}
	.st6{fill:#FEA800;stroke:#1261A0;stroke-width:5;}
	.st7{fill:#55AB81;stroke:#1261A0;stroke-width:5;}
	.st8{fill:#FF402D;stroke:#1261A0;stroke-width:5;}
	.st9{opacity:0.4;fill:#00A8FF;stroke:#1261A0;stroke-width:0.75;stroke-miterlimit:10;enable-background:new    ;}
	.st10{fill:#FEA800;}
	.st11{font-family:'ArialMT';}
	.st12{font-size:12px;}
	.st13{fill:#1261A0;}
	.st14{font-family:'Helvetica-Bold';}
	.st15{font-size:70.1886px;}
	.st16{opacity:0.2;fill:#1D1D1B;enable-background:new    ;}
	.st17{opacity:0.2;fill:#FFFFFF;enable-background:new    ;}
	.st18{fill:#EDEDED;}
	.st19{opacity:0.15;}
	.st20{fill:#10172A;}
	.st21{fill:#044A92;}
	.st22{opacity:0.15;fill:#10172A;enable-background:new    ;}
	.st23{fill:#FFFFFF;}
	.st24{fill:none;}
</style>
<linearGradient id="SVGID_1_" gradientUnits="userSpaceOnUse" x1="283.0871" y1="-786.8827" x2="3045.7402" y2="762.4454" gradientTransform="matrix(1 0 0 1 0 732)">
	<stop  offset="0" style="stop-color:#D3E8FB"/>
	<stop  offset="1" style="stop-color:#A8CCF3"/>
</linearGradient>
<path class="st0" d="M2490.78,1310.46c58.68-0.67,117.35,3.67,175.01,14.84c98.99,19.16,206.61,26.53,306.87,14.64
	c85.73-10.17,171.56-40.32,234.24-99.68c61.37-58.12,96.29-140.86,105.33-224.9c14.96-139.09-30.3-275.41-104.54-391.76
	c-64.73-101.45-148.46-189.13-230.37-277.3c-100.83-108.54-202.57-221.12-333.66-290.14c-184.18-96.98-362.64-60.98-520.15,63.8
	c-135.19,107.1-259.51,255.3-442.91,271.06c-78.75,6.77-158.26-7.43-233.2-32.54c-126.87-42.5-237.37-118.89-363.95-162.91
	c-94.01-32.69-195.65-49.18-293.62-31.64c-119.62,21.41-214.35,91.57-306.3,166.6c-93.49,76.29-180.08,163.01-243.52,266.34
	c-44.54,72.54-74.74,157.54-39.97,240.74c32.11,76.82,92.51,115.31,158.04,160.05c72.29,49.36,142.11,104.42,195.28,174.67
	c59.67,78.85,97.84,173.92,179.43,234.1c179.97,132.74,465.25,125.51,676.97,106.06c183.23-16.84,363.39-57.75,541.61-103.52
	c126.95-32.61,253.66-67.83,383.46-86.1C2386.36,1315.61,2438.57,1311.05,2490.78,1310.46z"/>
<path class="st1" d="M2906.45,905.68c73.52-94.9,165-178.74,268.12-216.47c103.12-37.73,218.3-21.79,279.73,59.09
	c35.67,46.97,50.65,117.97,25.33,182.98c-21.36,54.81-68.13,97.71-117.64,121.07c-49.52,23.36-101.81,29.52-152.45,30.94
	c-50.63,1.42-100.8-1.59-151.89,4.73c-130.2,16.11-262.71,95.78-355.21,213.56C2741.92,1156.92,2813.8,1025.28,2906.45,905.68z"/>
<path class="st2" d="M2940.93,819.93c29.35-98.17,79.02-192.8,156.81-253.83c77.78-61.02,186.98-82.48,273.01-35.74
	c49.96,27.14,90.64,79.77,92.93,139.57c1.94,50.42-23.45,98.83-58.78,132.34c-35.34,33.51-79.77,54.03-124.54,70.24
	c-44.76,16.21-90.82,28.72-134.1,49c-110.33,51.7-198.31,155.18-235.86,277.41C2890.17,1070.87,2903.95,943.64,2940.93,819.93z"/>
<path class="st3" d="M3200.29,637.82C3105.3,691.1,3036,786.29,2988.47,888.98c-40.22,86.91-69.16,177.41-83.15,271.19
	c-12.11-114.95,2.36-229.01,35.61-340.24c29.35-98.17,79.02-192.8,156.81-253.83c77.78-61.02,186.98-82.48,273.01-35.74
	c34.12,18.54,63.9,48.96,80.08,85.43C3371.3,583.91,3276.64,595,3200.29,637.82z"/>
<path class="st1" d="M544.77,898.22C515,801.89,463.98,708.84,383.29,648.39S188.76,565.9,98.48,610.8
	C46.05,636.87,3.1,687.97,0.16,746.45c-2.48,49.31,23.6,96.91,60.2,130.04s82.82,53.63,129.43,69.91
	c46.61,16.29,94.59,28.97,139.61,49.23c114.77,51.64,205.72,153.72,243.83,273.66C595.52,1144.2,582.28,1019.6,544.77,898.22z"/>
<path class="st4" d="M275.54,717.57C374.26,770.6,445.79,864.4,494.5,965.31c41.22,85.41,70.63,174.23,84.4,266.11
	c13.69-112.34-0.4-224.07-34.12-333.2c-29.77-96.33-80.79-189.38-161.48-249.83c-80.7-60.45-194.54-82.49-284.82-37.59
	c-35.8,17.81-67.17,47.28-84.41,82.81C97.43,663.18,196.19,674.94,275.54,717.57z"/>
<path class="st2" d="M615.85,1061.02c-73.39-81.14-166.2-149.33-273.26-171.85c-107.07-22.53-229.17,7.92-297.42,93.42
	c-39.64,49.66-58.5,119.59-34.61,178.47c20.14,49.64,67.58,84.54,118.77,100.37c51.18,15.83,106.04,14.84,159.35,9.52
	c53.31-5.31,106.33-14.81,159.9-15.49c136.55-1.75,272.78,57.04,365.19,157.59C778.42,1279.79,708.33,1163.27,615.85,1061.02z"/>
<path class="st3" d="M268.26,1006.56c121.41,6.98,234.72,66.5,328.86,143.49c79.66,65.15,149.27,139.07,204.88,223.17
	c-37.97-116.79-102.99-220.27-186.14-312.2c-73.39-81.14-166.2-149.33-273.26-171.85c-107.07-22.53-229.17,7.92-297.42,93.42
	c-27.07,33.91-44.44,77.28-45.13,120.12C68.12,1034.6,170.67,1000.96,268.26,1006.56z"/>
<linearGradient id="SVGID_2_" gradientUnits="userSpaceOnUse" x1="578.801" y1="-1215.6829" x2="3341.4626" y2="333.6491" gradientTransform="matrix(1 0 0 1 0 732)">
	<stop  offset="0" style="stop-color:#D3E8FB"/>
	<stop  offset="1" style="stop-color:#A8CCF3"/>
</linearGradient>
<path class="st5" d="M1834.58,305.1c30.67-17.17,61.27-35.12,87.2-58.84c25.93-23.72,47.15-53.89,54.62-88.23
	c4.33-19.88,3.86-41.07-3.39-60.08c-7.24-19-21.62-35.6-40.31-43.64c-30.23-13-65.75-2.08-93.52,15.56
	c-27.78,17.64-51.17,41.65-79.49,58.4c-30.21,17.86-65.97,27.49-90.9,52.19c-30.51,30.24-51.18,99.11-34.52,140.57
	c14.28,35.52,78.32,28.45,107.66,22.94C1775.16,337.75,1805.4,321.45,1834.58,305.1z"/>
<path class="st6" d="M1214.39,708.2l-82.51-82.52l53.81-35.88l57.4-33.48l60.99-27.5l62.19-25.11l62.18-17.94l63.39-13.15
	l68.17-8.37l68.16-2.39h66.97l64.58,8.37l63.38,11.96l63.39,17.94l63.38,22.72l65.77,31.09l62.19,34.68l53.81,39.46l-86.09,77.73
	l-22.73-16.74l-23.92-14.35l-22.72-13.16l-21.53-10.76l-26.3-13.15l-26.31-10.76l-28.71-10.76l-22.72-8.37l-56.2-14.35l-56.21-10.76
	l-56.2-5.98h-53.82l-59.78,2.39l-53.82,5.98l-52.62,9.57l-51.42,14.35l-51.41,19.13l-51.42,25.11l-46.64,23.92L1214.39,708.2z"/>
<path class="st7" d="M1105.56,647.21l84.91,78.93l-28.71,22.72l-31.09,27.5l-28.71,28.7l-26.31,31.09l-46.63,62.18l-20.33,32.29
	l-20.32,34.68l-17.94,38.27l-17.94,43.05l-15.54,45.45l-9.57,37.07l-8.37,41.86l-7.17,41.85l-3.59,41.86v44.25h-113.6v-50.23
	l5.98-49.03l8.37-50.23l9.57-45.45l13.16-49.03l15.54-51.42l19.13-46.64l22.73-46.64l21.52-38.27l22.72-35.88l22.73-34.68
	l26.31-32.29l28.69-33.48l32.29-32.29l31.1-28.7L1105.56,647.21z"/>
<path class="st8" d="M2156.72,647.21l-84.91,78.93l28.71,22.72l31.09,27.5l28.71,28.7l26.31,31.09l46.63,62.18l20.33,32.29
	l20.32,34.68l17.94,38.27l17.94,43.05l15.54,45.45l9.57,37.07l8.37,41.86l7.17,41.85l3.59,41.86v44.25h113.6v-50.23l-5.98-49.03
	l-8.37-50.23l-9.57-45.45l-13.15-49.03l-15.55-51.42l-19.13-46.64l-22.73-46.64l-21.52-38.27l-22.72-35.88l-22.73-34.68l-26.3-32.29
	l-28.71-33.48l-32.29-32.29l-31.09-28.7L2156.72,647.21z"/>
<path class="st9" d="M947.27,1299.14c0.45-385.14,321.12-696.42,697.41-688.48c365.15,7.7,667.38,313.58,668.35,687.18"/>
<circle class="st10" cx="1655.18" cy="1298.46" r="67.77"/>
<text transform="matrix(1 0 0 1 885.196 1250.2128)" class="st11 st12"> </text>
<text transform="matrix(1 0 0 1 885.3974 1246.8837)" class="st13 st14 st15"> </text>
<text transform="matrix(1 0 0 1 887.2231 1227.4674)" class="st13 st14 st15"> </text>
<text transform="matrix(1 0 0 1 889.549 1208.105)" class="st13 st14 st15"> </text>
<text transform="matrix(1 0 0 1 892.3746 1188.8091)" class="st13 st14 st15"> </text>
<text transform="matrix(1 0 0 1 895.6987 1169.5929)" class="st13 st14 st15"> </text>
<text transform="matrix(1 0 0 1 950.7489 995.2986)" class="st13 st14 st15"> </text>
<text transform="matrix(1 0 0 1 1048.3632 836.1027)" class="st13 st14 st15"> </text>
<text transform="matrix(1 0 0 1 1060.7062 820.9913)" class="st13 st14 st15"> </text>
<text transform="matrix(1 0 0 1 1073.4338 806.1918)" class="st13 st14 st15"> </text>
<text transform="matrix(1 0 0 1 1086.5248 791.7284)" class="st13 st14 st15"> </text>
<text transform="matrix(1 0 0 1 1099.9712 777.6086)" class="st13 st14 st15"> </text>
<text transform="matrix(1 0 0 1 1113.7783 763.8271)" class="st13 st14 st15"> </text>
<text transform="matrix(1 0 0 1 1127.9332 750.3978)" class="st13 st14 st15"> </text>
<text transform="matrix(1 0 0 1 1142.4211 737.3354)" class="st13 st14 st15"> </text>
<text transform="matrix(1 0 0 1 1157.2339 724.6477)" class="st13 st14 st15"> </text>
<text transform="matrix(1 0 0 1 1172.3632 712.3423)" class="st13 st14 st15"> </text>
<text transform="matrix(1 0 0 1 1187.8013 700.4269)" class="st13 st14 st15"> </text>
<text transform="matrix(1 0 0 1 1203.5389 688.9094)" class="st13 st14 st15"> </text>
<text transform="matrix(1 0 0 1 1219.5663 677.7988)" class="st13 st14 st15"> </text>
<text transform="matrix(1 0 0 1 1235.8737 667.1031)" class="st13 st14 st15"> </text>
<text transform="matrix(1 0 0 1 1252.4507 656.8309)" class="st13 st14 st15"> </text>
<text transform="matrix(1 0 0 1 1269.2876 646.9901)" class="st13 st14 st15"> </text>
<text transform="matrix(1 0 0 1 1286.3732 637.5886)" class="st13 st14 st15"> </text>
<text transform="matrix(1 0 0 1 1303.6978 628.6339)" class="st13 st14 st15"> </text>
<text transform="matrix(1 0 0 1 1321.2495 620.1339)" class="st13 st14 st15"> </text>
<text transform="matrix(1 0 0 1 1339.0178 612.0956)" class="st13 st14 st15"> </text>
<text transform="matrix(1 0 0 1 1356.9908 604.5264)" class="st13 st14 st15"> </text>
<text transform="matrix(1 0 0 1 1375.1566 597.4329)" class="st13 st14 st15"> </text>
<text transform="matrix(1 0 0 1 1393.5037 590.8214)" class="st13 st14 st15"> </text>
<text transform="matrix(1 0 0 1 1693.1272 553.4199)" class="st13 st14 st15"> </text>
<text transform="matrix(1 0 0 1 1875.5961 592.9196)" class="st13 st14 st15"> </text>
<text transform="matrix(1 0 0 1 1893.8848 599.6906)" class="st13 st14 st15"> </text>
<text transform="matrix(1 0 0 1 1911.9875 606.9428)" class="st13 st14 st15"> </text>
<text transform="matrix(1 0 0 1 1929.8932 614.6698)" class="st13 st14 st15"> </text>
<text transform="matrix(1 0 0 1 1947.5896 622.8647)" class="st13 st14 st15"> </text>
<text transform="matrix(1 0 0 1 1965.0652 631.5204)" class="st13 st14 st15"> </text>
<text transform="matrix(1 0 0 1 1982.309 640.6295)" class="st13 st14 st15"> </text>
<text transform="matrix(1 0 0 1 1999.3091 650.184)" class="st13 st14 st15"> </text>
<text transform="matrix(1 0 0 1 2016.0563 660.1769)" class="st13 st14 st15"> </text>
<text transform="matrix(1 0 0 1 2032.5393 670.5996)" class="st13 st14 st15"> </text>
<text transform="matrix(1 0 0 1 2048.7473 681.4437)" class="st13 st14 st15"> </text>
<text transform="matrix(1 0 0 1 2064.6714 692.7016)" class="st13 st14 st15"> </text>
<text transform="matrix(1 0 0 1 2080.3018 704.3645)" class="st13 st14 st15"> </text>
<text transform="matrix(1 0 0 1 2095.6282 716.4234)" class="st13 st14 st15"> </text>
<text transform="matrix(1 0 0 1 2110.6418 728.8705)" class="st13 st14 st15"> </text>
<text transform="matrix(1 0 0 1 2125.3352 741.6984)" class="st13 st14 st15"> </text>
<text transform="matrix(1 0 0 1 2139.7004 754.8994)" class="st13 st14 st15"> </text>
<text transform="matrix(1 0 0 1 2153.7283 768.4647)" class="st13 st14 st15"> </text>
<text transform="matrix(1 0 0 1 2167.3938 782.3685)" class="st13 st14 st15"> </text>
<text transform="matrix(1 0 0 1 2180.7083 796.6218)" class="st13 st14 st15"> </text>
<text transform="matrix(1 0 0 1 2193.6646 811.217)" class="st13 st14 st15"> </text>
<text transform="matrix(1 0 0 1 2206.2456 826.1366)" class="st13 st14 st15"> </text>
<text transform="matrix(1 0 0 1 2309.6514 990.8246)" class="st13 st14 st15"> </text>
<text class="st11 st12"> </text>
<g>
	<path class="st16" d="M2596.43,731.46l-21.85-1.64c-45.27-0.85-91.04,14.04-128.42,45.46c-82.03,68.96-92.64,191.35-23.68,273.39
		c62.96,74.9,170.45,90.21,251.11,39.83l10.27,12.22l10.26-136.69c-7.39,22.78-21.01,43.1-39.8,58.89
		c-26.47,22.25-60.03,32.86-94.48,29.88c-34.46-2.98-65.68-19.21-87.93-45.68s-32.86-60.03-29.88-94.48
		c2.98-34.45,19.21-65.68,45.68-87.93s60.03-32.86,94.48-29.88c34.46,2.98,65.68,19.21,87.93,45.68
		c15.13,18,24.88,39.28,28.63,61.89l8.74-116.51C2676.53,755.19,2637.28,736.85,2596.43,731.46z"/>
	<ellipse class="st17" cx="2586.08" cy="916.03" rx="140.25" ry="140.25"/>
	<path class="st18" d="M2437.61,1035.66c62.96,74.9,170.45,90.21,251.11,39.83l48.11,57.23l42.01-35.31l-48.11-57.23
		c63.5-70.8,66.9-179.32,3.95-254.22c-68.96-82.04-191.35-92.64-273.39-23.68C2379.26,831.22,2368.65,953.62,2437.61,1035.66z
		 M2502.83,811.7c26.47-22.25,60.03-32.86,94.48-29.88c34.46,2.98,65.68,19.21,87.93,45.68s32.86,60.03,29.88,94.48
		c-2.98,34.45-19.21,65.68-45.68,87.93c-26.47,22.25-60.03,32.86-94.48,29.88c-34.46-2.98-65.68-19.21-87.93-45.68
		s-32.86-60.03-29.88-94.48C2460.14,865.18,2476.36,833.95,2502.83,811.7z"/>
	<g class="st19">
		<path class="st20" d="M2684.21,1005.49c26.47-22.25,42.7-53.48,45.68-87.93s-7.63-68.01-29.88-94.48s-53.48-42.7-87.93-45.68
			c-19.3-1.67-38.31,0.93-55.96,7.45c13.31-3.16,27.17-4.23,41.2-3.02c34.46,2.98,65.68,19.21,87.93,45.68s32.86,60.03,29.88,94.48
			c-2.98,34.45-19.21,65.68-45.68,87.93c-11.64,9.79-24.66,17.31-38.51,22.43C2650.32,1027.74,2668.51,1018.68,2684.21,1005.49z"/>
		<path class="st20" d="M2690.99,1078.19l45.84,54.54l10.83-9.11l-44.17-52.55C2699.39,1073.62,2695.21,1075.96,2690.99,1078.19z"/>
		<path class="st20" d="M2437.6,1035.66c53.21,63.3,138.23,84.04,211.98,58.52c-70.09,18.13-147.52-3.84-197.21-62.95
			c-68.95-82.04-58.35-204.43,23.68-273.39c18.98-15.95,40.14-27.59,62.28-35.13c-27.49,6.96-53.88,20.08-77.05,39.56
			C2379.26,831.22,2368.65,953.62,2437.6,1035.66z"/>
	</g>
	<path class="st21" d="M2718.09,1135.49l121.7,144.79c15.48,18.42,42.96,20.8,61.38,5.32c18.42-15.48,20.8-42.96,5.32-61.38
		l-121.7-144.79L2718.09,1135.49L2718.09,1135.49z"/>
	<path class="st22" d="M2718.09,1135.49l121.7,144.79c15.48,18.42,42.96,20.8,61.38,5.32c4.97-4.18,8.73-9.24,11.33-14.76
		c-15.64,3.9-32.83-1.03-43.9-14.19l-121.7-144.79l38.18-32.09l-0.29-0.34L2718.09,1135.49z"/>
	
		<ellipse transform="matrix(0.8334 -0.5526 0.5526 0.8334 -43.5361 1633.4995)" class="st23" cx="2687.96" cy="888.97" rx="14.36" ry="14.36"/>
	<path class="st23" d="M2688.01,917.13c0.98,1.24,0.77,3.05-0.48,4.03c-1.24,0.98-3.05,0.77-4.03-0.48
		c-0.98-1.24-0.77-3.05,0.48-4.03C2685.22,915.67,2687.03,915.88,2688.01,917.13z"/>
	<path class="st23" d="M2600.15,731.24c45.61,0.37,89.62,22.95,116.54,59.77c1.01,1.39,3.02-0.36,2.02-1.73
		c-27.29-37.33-72.11-60.32-118.36-60.69C2598.64,728.58,2598.43,731.23,2600.15,731.24z"/>
	<path class="st23" d="M2722.75,799.33c1.71,0.13,1.91-2.53,0.2-2.66C2721.23,796.55,2721.04,799.2,2722.75,799.33z"/>
	<path class="st23" d="M2587.27,731.56c1.71,0.13,1.91-2.53,0.2-2.66C2585.76,728.78,2585.56,731.43,2587.27,731.56z"/>
	<path class="st23" d="M2731.77,1055.06c10.17,10.64,20.34,21.29,30.52,31.93c1.18,1.24,3.2-0.49,2.02-1.73
		c-10.17-10.64-20.34-21.29-30.52-31.93C2732.6,1052.09,2730.58,1053.82,2731.77,1055.06z"/>
	<path class="st23" d="M2888.23,1218.1c13.38,10.13,20.69,26.55,19.36,43.27c-0.14,1.71,2.52,1.91,2.66,0.2
		c1.41-17.67-6.38-34.96-20.5-45.66C2888.38,1214.87,2886.87,1217.07,2888.23,1218.1z"/>
	<path class="st23" d="M2884.31,1214.47c1.71,0.13,1.91-2.53,0.2-2.66C2882.8,1211.68,2882.6,1214.33,2884.31,1214.47z"/>
</g>
<polyline class="st24" points="-688.03,-1108.66 -388.46,-890.08 -619.23,-714.18 "/>
<rect id="_x3C_Slice_x3E_" x="748" y="-677" class="st24" width="330" height="10"/>
<rect id="_x3C_Slice_x3E__1_" x="1038" y="-867" class="st24" width="259" height="103"/>
<rect id="_x3C_Slice_x3E__2_" x="766.46" y="-1521.75" class="st24" width="379" height="370"/>
<path id="SVGID_x5F_3_x5F_" class="st24" d="M1219.57,677.8c59.11-37.19,203.09-116.68,402.98-118.94
	c214.17-2.42,367.94,85.22,426.2,122.58"/>
<text><textPath  xlink:href="#SVGID_x5F_3_x5F_" startOffset="12.7808%">
<tspan  style="font-family:'Helvetica'; font-size:87px;"> MODERATE RISK</tspan></textPath>
</text>
<path id="SVGID_x5F_4_x5F_" class="st24" d="M2125.34,741.7c44.13,37.45,109.97,102.57,163.79,200.83
	c52.53,95.9,72.19,184.25,80.33,240.98"/>
<text><textPath  xlink:href="#SVGID_x5F_4_x5F_" startOffset="16.4396%">
<tspan  style="font-family:'Helvetica'; font-size:87px;">HIGH RISK</tspan></textPath>
</text>
<path id="SVGID_x5F_5_x5F_" class="st24" d="M895.7,1189.21c3.17-49.82,15.2-135.97,64.64-229.25
	c58.51-110.38,139.23-173.83,182.08-203.01"/>
<text><textPath  xlink:href="#SVGID_x5F_5_x5F_" startOffset="15.2832%">
<tspan  style="font-family:'Helvetica'; font-size:87px;">LOW RISK</tspan></textPath>
</text>
<path class="st13" d="M1688.57,1963.24l8.55-18.08 M1158.07,1712.24"/>
<path class="st13" d="M1910.88,2078h20 M1930.88,1534h-20"/>
<path class="st10" d="M1662.25,699.01c-3.91-3.91-10.24-3.91-14.14,0l-63.64,63.64c-3.91,3.91-3.91,10.24,0,14.14
	c3.9,3.91,10.24,3.91,14.14,0l56.57-56.57l56.57,56.57c3.91,3.91,10.24,3.91,14.14,0c3.9-3.91,3.9-10.24,0-14.14L1662.25,699.01z
	 M1665.18,1250.08v-544h-20v544H1665.18z"/>
</svg>
