<?xml version="1.0" encoding="utf-8"?>
<!-- Generator: Adobe Illustrator 23.0.2, SVG Export Plug-In . SVG Version: 6.00 Build 0)  -->
<svg version="1.1" id="Layer_1" xmlns="http://www.w3.org/2000/svg" xmlns:xlink="http://www.w3.org/1999/xlink" x="0px" y="0px"
	 viewBox="0 0 3500 1524" style="enable-background:new 0 0 3500 1524;" xml:space="preserve">
<style type="text/css">
	.st0{font-family:'ArialMT';}
	.st1{font-size:12px;}
	.st2{fill:none;}
	.st3{fill:#1261A0;}
	.st4{fill:url(#SVGID_1_);}
	.st5{fill:#649EDD;}
	.st6{fill:#F34B1E;}
	.st7{fill:#FCDAD1;}
	.st8{fill:#AED0F4;}
	.st9{fill:url(#SVGID_2_);}
	.st10{fill:#FEA800;stroke:#1261A0;stroke-width:5;}
	.st11{fill:#55AB81;stroke:#1261A0;stroke-width:5;}
	.st12{fill:#FF402D;stroke:#1261A0;stroke-width:5;}
	.st13{opacity:0.4;}
	.st14{fill:#00A8FF;}
	.st15{fill:none;stroke:#1261A0;stroke-width:0.75;stroke-miterlimit:10;}
	.st16{fill:#FF402D;}
	.st17{opacity:0.2;fill:#1D1D1B;enable-background:new    ;}
	.st18{opacity:0.2;fill:#FFFFFF;enable-background:new    ;}
	.st19{fill:#EDEDED;}
	.st20{opacity:0.15;}
	.st21{opacity:0.15;fill:#10172A;enable-background:new    ;}
	.st22{fill:#044A92;}
	.st23{fill:#FFFFFF;}
</style>
<text class="st0 st1"> </text>
<polyline class="st2" points="-688.03,-1108.66 -388.46,-890.08 -619.23,-714.18 "/>
<rect id="_x3C_Slice_x3E__2_" x="766.46" y="-1521.75" class="st2" width="379" height="370"/>
<text class="st0 st1"> </text>
<text class="st0 st1"> </text>
<text class="st0 st1"> </text>
<path class="st3" d="M1688.57,1963.24l8.55-18.08"/>
<path class="st3" d="M1910.88,2078h20"/>
<linearGradient id="SVGID_1_" gradientUnits="userSpaceOnUse" x1="286.9636" y1="1578.885" x2="3049.6167" y2="29.552" gradientTransform="matrix(1 0 0 -1 0 1524)">
	<stop  offset="0" style="stop-color:#D3E8FB"/>
	<stop  offset="1" style="stop-color:#A8CCF3"/>
</linearGradient>
<path class="st4" d="M2494.66,1310.46c58.68-0.67,117.35,3.67,175.01,14.84c98.99,19.16,206.61,26.53,306.87,14.64
	c85.73-10.17,171.56-40.32,234.24-99.68c61.37-58.12,96.29-140.86,105.33-224.9c14.96-139.09-30.3-275.41-104.54-391.76
	c-64.73-101.45-148.46-189.13-230.37-277.3c-100.83-108.54-202.57-221.12-333.66-290.14c-184.18-96.98-362.64-60.98-520.15,63.8
	c-135.19,107.1-259.51,255.3-442.91,271.06c-78.75,6.77-158.26-7.43-233.2-32.54c-126.87-42.5-237.37-118.89-363.95-162.91
	c-94.01-32.69-195.65-49.18-293.62-31.64c-119.62,21.41-214.35,91.57-306.3,166.6c-93.49,76.29-180.08,163.01-243.52,266.34
	c-44.54,72.54-74.74,157.54-39.97,240.74c32.11,76.82,92.51,115.31,158.04,160.05c72.29,49.36,142.11,104.42,195.28,174.67
	c59.67,78.85,97.84,173.92,179.43,234.1c179.97,132.74,465.25,125.51,676.97,106.06c183.23-16.84,363.39-57.75,541.61-103.52
	c126.95-32.61,253.66-67.83,383.46-86.1C2390.24,1315.61,2442.45,1311.05,2494.66,1310.46z"/>
<path class="st5" d="M2910.33,905.68c73.52-94.9,165-178.74,268.12-216.47c103.12-37.73,218.3-21.79,279.73,59.09
	c35.67,46.97,50.65,117.97,25.33,182.98c-21.36,54.81-68.13,97.71-117.64,121.07c-49.52,23.36-101.81,29.52-152.45,30.94
	c-50.63,1.42-100.8-1.59-151.89,4.73c-130.2,16.11-262.71,95.78-355.21,213.56C2745.8,1156.92,2817.68,1025.28,2910.33,905.68z"/>
<path class="st6" d="M2944.81,819.93c29.35-98.17,79.02-192.8,156.81-253.83c77.78-61.02,186.98-82.48,273.01-35.74
	c49.96,27.14,90.64,79.77,92.93,139.57c1.94,50.42-23.45,98.83-58.78,132.34c-35.34,33.51-79.77,54.03-124.54,70.24
	c-44.76,16.21-90.82,28.72-134.1,49c-110.33,51.7-198.31,155.18-235.86,277.41C2894.05,1070.87,2907.83,943.64,2944.81,819.93z"/>
<path class="st7" d="M3204.17,637.82c-94.99,53.28-164.29,148.47-211.82,251.16c-40.22,86.91-69.16,177.41-83.15,271.19
	c-12.11-114.95,2.36-229.01,35.61-340.24c29.35-98.17,79.02-192.8,156.81-253.83c77.78-61.02,186.98-82.48,273.01-35.74
	c34.12,18.54,63.9,48.96,80.08,85.43C3375.18,583.91,3280.52,595,3204.17,637.82z"/>
<path class="st5" d="M548.65,898.22c-29.77-96.33-80.79-189.38-161.48-249.83S192.64,565.9,102.36,610.8
	C49.93,636.87,6.98,687.97,4.04,746.45c-2.48,49.31,23.6,96.91,60.2,130.04c36.6,33.13,82.82,53.63,129.43,69.91
	c46.61,16.29,94.59,28.97,139.61,49.23c114.77,51.64,205.72,153.72,243.83,273.66C599.4,1144.2,586.16,1019.6,548.65,898.22z"/>
<path class="st8" d="M279.42,717.57c98.72,53.03,170.25,146.83,218.96,247.74c41.22,85.41,70.63,174.23,84.4,266.11
	c13.69-112.34-0.4-224.07-34.12-333.2c-29.77-96.33-80.79-189.38-161.48-249.83c-80.7-60.45-194.54-82.49-284.82-37.59
	c-35.8,17.81-67.17,47.28-84.41,82.81C101.31,663.18,200.07,674.94,279.42,717.57z"/>
<path class="st6" d="M619.73,1061.02c-73.39-81.14-166.2-149.33-273.26-171.85c-107.07-22.53-229.17,7.92-297.42,93.42
	c-39.64,49.66-58.5,119.59-34.61,178.47c20.14,49.64,67.58,84.54,118.77,100.37c51.18,15.83,106.04,14.84,159.35,9.52
	c53.31-5.31,106.33-14.81,159.9-15.49c136.55-1.75,272.78,57.04,365.19,157.59C782.3,1279.79,712.21,1163.27,619.73,1061.02z"/>
<path class="st7" d="M272.14,1006.56c121.41,6.98,234.72,66.5,328.86,143.49c79.66,65.15,149.27,139.07,204.88,223.17
	c-37.97-116.79-102.99-220.27-186.14-312.2c-73.39-81.14-166.2-149.33-273.26-171.85c-107.07-22.53-229.17,7.92-297.42,93.42
	c-27.07,33.91-44.44,77.28-45.13,120.12C72,1034.6,174.55,1000.96,272.14,1006.56z"/>
<linearGradient id="SVGID_2_" gradientUnits="userSpaceOnUse" x1="582.6785" y1="2007.6859" x2="3345.3364" y2="458.3519" gradientTransform="matrix(1 0 0 -1 0 1524)">
	<stop  offset="0" style="stop-color:#D3E8FB"/>
	<stop  offset="1" style="stop-color:#A8CCF3"/>
</linearGradient>
<path class="st9" d="M1838.46,305.1c30.67-17.17,61.27-35.12,87.2-58.84c25.93-23.72,47.15-53.89,54.62-88.23
	c4.33-19.88,3.86-41.07-3.39-60.08c-7.24-19-21.62-35.6-40.31-43.64c-30.23-13-65.75-2.08-93.52,15.56
	c-27.78,17.64-51.17,41.65-79.49,58.4c-30.21,17.86-65.97,27.49-90.9,52.19c-30.51,30.24-51.18,99.11-34.52,140.57
	c14.28,35.52,78.32,28.45,107.66,22.94C1779.04,337.75,1809.28,321.45,1838.46,305.1z"/>
<path class="st10" d="M1218.27,708.2l-82.51-82.52l53.81-35.88l57.4-33.48l60.99-27.5l62.19-25.11l62.18-17.94l63.39-13.15
	l68.17-8.37l68.16-2.39h66.97l64.58,8.37l63.38,11.96l63.39,17.94l63.38,22.72l65.77,31.09l62.19,34.68l53.81,39.46l-86.09,77.73
	l-22.73-16.74l-23.92-14.35l-22.72-13.16l-21.53-10.76l-26.3-13.15l-26.31-10.76l-28.71-10.76l-22.72-8.37l-56.2-14.35l-56.21-10.76
	l-56.2-5.98h-53.82l-59.78,2.39l-53.82,5.98l-52.62,9.57l-51.42,14.35l-51.41,19.13l-51.42,25.11l-46.64,23.92L1218.27,708.2z"/>
<path class="st11" d="M1109.44,647.21l84.91,78.93l-28.71,22.72l-31.09,27.5l-28.71,28.7l-26.31,31.09l-46.63,62.18l-20.33,32.29
	l-20.32,34.68l-17.94,38.27l-17.94,43.05l-15.54,45.45l-9.57,37.07l-8.37,41.86l-7.17,41.85l-3.59,41.86v44.25h-113.6v-50.23
	l5.98-49.03l8.37-50.23l9.57-45.45l13.16-49.03l15.54-51.42l19.13-46.64l22.73-46.64l21.52-38.27l22.72-35.88l22.73-34.68
	l26.31-32.29l28.69-33.48l32.29-32.29l31.1-28.7L1109.44,647.21z"/>
<path class="st12" d="M2160.6,647.21l-84.91,78.93l28.71,22.72l31.09,27.5l28.71,28.7l26.31,31.09l46.63,62.18l20.33,32.29
	l20.32,34.68l17.94,38.27l17.94,43.05l15.54,45.45l9.57,37.07l8.37,41.86l7.17,41.85l3.59,41.86v44.25h113.6v-50.23l-5.98-49.03
	l-8.37-50.23l-9.57-45.45l-13.15-49.03l-15.55-51.42l-19.13-46.64l-22.73-46.64l-21.52-38.27l-22.72-35.88l-22.73-34.68l-26.3-32.29
	l-28.71-33.48l-32.29-32.29l-31.09-28.7L2160.6,647.21z"/>
<g class="st13">
	<path class="st14" d="M951.15,1299.14c0.45-385.14,321.12-696.42,697.41-688.48c365.15,7.7,667.38,313.58,668.35,687.18"/>
	<path class="st15" d="M951.15,1299.14c0.45-385.14,321.12-696.42,697.41-688.48c365.15,7.7,667.38,313.58,668.35,687.18"/>
</g>
<path class="st16" d="M1659.06,1366.23c37.43,0,67.77-30.34,67.77-67.77c0-37.43-30.34-67.77-67.77-67.77
	c-37.43,0-67.77,30.34-67.77,67.77C1591.29,1335.89,1621.63,1366.23,1659.06,1366.23z"/>
<path class="st17" d="M2600.31,731.46l-21.85-1.64c-45.27-0.85-91.04,14.04-128.42,45.46c-82.03,68.96-92.64,191.35-23.68,273.39
	c62.96,74.9,170.45,90.21,251.11,39.83l10.27,12.22L2698,964.03c-7.39,22.78-21.01,43.1-39.8,58.89
	c-26.47,22.25-60.03,32.86-94.48,29.88c-34.46-2.98-65.68-19.21-87.93-45.68c-22.25-26.47-32.86-60.03-29.88-94.48
	c2.98-34.45,19.21-65.68,45.68-87.93s60.03-32.86,94.48-29.88c34.46,2.98,65.68,19.21,87.93,45.68c15.13,18,24.88,39.28,28.63,61.89
	l8.74-116.51C2680.41,755.19,2641.16,736.85,2600.31,731.46z"/>
<path class="st18" d="M2589.96,1056.28c77.46,0,140.25-62.79,140.25-140.25s-62.79-140.25-140.25-140.25
	s-140.25,62.79-140.25,140.25S2512.5,1056.28,2589.96,1056.28z"/>
<path class="st19" d="M2441.49,1035.66c62.96,74.9,170.45,90.21,251.11,39.83l48.11,57.23l42.01-35.31l-48.11-57.23
	c63.5-70.8,66.9-179.32,3.95-254.22c-68.96-82.04-191.35-92.64-273.39-23.68C2383.14,831.22,2372.53,953.62,2441.49,1035.66z
	 M2506.71,811.7c26.47-22.25,60.03-32.86,94.48-29.88c34.46,2.98,65.68,19.21,87.93,45.68c22.25,26.47,32.86,60.03,29.88,94.48
	c-2.98,34.45-19.21,65.68-45.68,87.93c-26.47,22.25-60.03,32.86-94.48,29.88c-34.46-2.98-65.68-19.21-87.93-45.68
	c-22.25-26.47-32.86-60.03-29.88-94.48C2464.02,865.18,2480.24,833.95,2506.71,811.7z"/>
<g class="st20">
	<path class="st21" d="M2688.09,1005.49c26.47-22.25,42.7-53.48,45.68-87.93c2.98-34.45-7.63-68.01-29.88-94.48
		c-22.25-26.47-53.48-42.7-87.93-45.68c-19.3-1.67-38.31,0.93-55.96,7.45c13.31-3.16,27.17-4.23,41.2-3.02
		c34.46,2.98,65.68,19.21,87.93,45.68c22.25,26.47,32.86,60.03,29.88,94.48c-2.98,34.45-19.21,65.68-45.68,87.93
		c-11.64,9.79-24.66,17.31-38.51,22.43C2654.2,1027.74,2672.39,1018.68,2688.09,1005.49z"/>
	<path class="st21" d="M2694.87,1078.19l45.84,54.54l10.83-9.11l-44.17-52.55C2703.27,1073.62,2699.09,1075.96,2694.87,1078.19z"/>
	<path class="st21" d="M2441.48,1035.66c53.21,63.3,138.23,84.04,211.98,58.52c-70.09,18.13-147.52-3.84-197.21-62.95
		c-68.95-82.04-58.35-204.43,23.68-273.39c18.98-15.95,40.14-27.59,62.28-35.13c-27.49,6.96-53.88,20.08-77.05,39.56
		C2383.14,831.22,2372.53,953.62,2441.48,1035.66z"/>
</g>
<path class="st22" d="M2721.97,1135.49l121.7,144.79c15.48,18.42,42.96,20.8,61.38,5.32c18.42-15.48,20.8-42.96,5.32-61.38
	l-121.7-144.79L2721.97,1135.49z"/>
<path class="st21" d="M2721.97,1135.49l121.7,144.79c15.48,18.42,42.96,20.8,61.38,5.32c4.97-4.18,8.73-9.24,11.33-14.76
	c-15.64,3.9-32.83-1.03-43.9-14.19l-121.7-144.79l38.18-32.09l-0.29-0.34L2721.97,1135.49z"/>
<path class="st23" d="M2699.67,900.97c6.61-4.38,8.42-13.29,4.03-19.9c-4.38-6.61-13.29-8.41-19.9-4.03
	c-6.61,4.38-8.41,13.29-4.03,19.9C2684.15,903.55,2693.06,905.35,2699.67,900.97z"/>
<path class="st23" d="M2691.89,917.13c0.98,1.24,0.77,3.05-0.48,4.03c-1.24,0.98-3.05,0.77-4.03-0.48
	c-0.98-1.24-0.77-3.05,0.48-4.03C2689.1,915.67,2690.91,915.88,2691.89,917.13z"/>
<path class="st23" d="M2604.03,731.24c45.61,0.37,89.62,22.95,116.54,59.77c1.01,1.39,3.02-0.36,2.02-1.73
	c-27.29-37.33-72.11-60.32-118.36-60.69C2602.52,728.58,2602.31,731.23,2604.03,731.24z"/>
<path class="st23" d="M2726.63,799.33c1.71,0.13,1.91-2.53,0.2-2.66C2725.11,796.55,2724.92,799.2,2726.63,799.33z"/>
<path class="st23" d="M2591.15,731.56c1.71,0.13,1.91-2.53,0.2-2.66C2589.64,728.78,2589.44,731.43,2591.15,731.56z"/>
<path class="st23" d="M2735.65,1055.06c10.17,10.64,20.34,21.29,30.52,31.93c1.18,1.24,3.2-0.49,2.02-1.73
	c-10.17-10.64-20.34-21.29-30.52-31.93C2736.48,1052.09,2734.46,1053.82,2735.65,1055.06z"/>
<path class="st23" d="M2892.11,1218.1c13.38,10.13,20.69,26.55,19.36,43.27c-0.14,1.71,2.52,1.91,2.66,0.2
	c1.41-17.67-6.38-34.96-20.5-45.66C2892.26,1214.87,2890.75,1217.07,2892.11,1218.1z"/>
<path class="st23" d="M2888.19,1214.47c1.71,0.13,1.91-2.53,0.2-2.66C2886.68,1211.68,2886.48,1214.33,2888.19,1214.47z"/>
<path class="st16" d="M2167.6,1004.37c1.3-5.37-1.99-10.78-7.35-12.09l-87.45-21.3c-5.36-1.31-10.77,1.98-12.08,7.35
	c-1.31,5.37,1.98,10.78,7.35,12.08l77.73,18.93l-18.94,77.73c-1.3,5.36,1.99,10.77,7.35,12.08c5.37,1.31,10.78-1.98,12.09-7.35
	L2167.6,1004.37z M1678.08,1305.54l485-295l-10.4-17.08l-485,295L1678.08,1305.54z"/>
<path id="SVGID_x5F_3_x5F_" class="st2" d="M916.01,1063.35c13.84-45.93,37.44-106.74,78.89-171.21
	c51.01-79.34,108.98-133.01,151.07-166.18"/>
<text><textPath  xlink:href="#SVGID_x5F_3_x5F_" startOffset="12.4789%">
<tspan  style="font-family:'MyriadPro-Regular'; font-size:68px;">LOW RISK</tspan></textPath>
</text>
<path id="SVGID_x5F_4_x5F_" class="st2" d="M1278.98,635.94c63.95-32.31,180.59-80.58,333.5-85.46
	c193.48-6.18,338.73,60.5,404.36,95.88"/>
<text><textPath  xlink:href="#SVGID_x5F_4_x5F_" startOffset="10.3127%">
<tspan  style="font-family:'Helvetica'; font-size:68px;">  MODERATE RISK</tspan></textPath>
</text>
<path id="SVGID_x5F_5_x5F_" class="st2" d="M2171.08,773.5c39.96,42.21,91.43,106.18,133.4,193.84
	c31.2,65.17,48.45,125.26,58.36,173"/>
<text><textPath  xlink:href="#SVGID_x5F_5_x5F_" startOffset="10.0375%">
<tspan  style="font-family:'Helvetica'; font-size:68px;">HIGH RISK</tspan></textPath>
</text>
</svg>
