<svg width="595" height="87" viewBox="0 0 595 87" fill="none" xmlns="http://www.w3.org/2000/svg">
<line x1="32" y1="49.5654" x2="32" y2="24.0002" stroke="#5DCDCE" stroke-width="4" stroke-linecap="round"/>
<line x1="79.3047" y1="49.5654" x2="79.3047" y2="24.0002" stroke="#5DCDCE" stroke-width="4" stroke-linecap="round"/>
<line x1="20.1738" y1="49.5654" x2="20.1738" y2="24.0002" stroke="#5DCDCE" stroke-width="4" stroke-linecap="round"/>
<line x1="8.34766" y1="49.5654" x2="8.34766" y2="24.0002" stroke="#5DCDCE" stroke-width="4" stroke-linecap="round"/>
<line x1="67.4785" y1="49.5654" x2="67.4785" y2="24.0002" stroke="#5DCDCE" stroke-width="4" stroke-linecap="round"/>
<line x1="55.6523" y1="49.5654" x2="55.6523" y2="24.0002" stroke="#5DCDCE" stroke-width="4" stroke-linecap="round"/>
<line x1="43.8262" y1="49.5654" x2="43.8262" y2="24.0002" stroke="#5DCDCE" stroke-width="4" stroke-linecap="round"/>
<line x1="114.782" y1="49.5654" x2="114.782" y2="24.0002" stroke="#55AB81" stroke-width="4" stroke-linecap="round"/>
<line x1="162.087" y1="49.5654" x2="162.087" y2="24.0002" stroke="#55AB81" stroke-width="4" stroke-linecap="round"/>
<line x1="102.956" y1="49.5654" x2="102.956" y2="24.0002" stroke="#55AB81" stroke-width="4" stroke-linecap="round"/>
<line x1="91.1309" y1="49.5654" x2="91.1309" y2="24.0002" stroke="#55AB81" stroke-width="4" stroke-linecap="round"/>
<line x1="150.261" y1="49.5654" x2="150.261" y2="24.0002" stroke="#55AB81" stroke-width="4" stroke-linecap="round"/>
<line x1="138.435" y1="49.5654" x2="138.435" y2="24.0002" stroke="#55AB81" stroke-width="4" stroke-linecap="round"/>
<line x1="126.608" y1="49.5654" x2="126.608" y2="24.0002" stroke="#55AB81" stroke-width="4" stroke-linecap="round"/>
<line x1="197.565" y1="49.5654" x2="197.565" y2="24.0002" stroke="#55AB81" stroke-width="4" stroke-linecap="round"/>
<line x1="244.869" y1="49.5654" x2="244.869" y2="24.0002" stroke="#55AB81" stroke-width="4" stroke-linecap="round"/>
<line x1="185.739" y1="49.5654" x2="185.739" y2="24.0002" stroke="#55AB81" stroke-width="4" stroke-linecap="round"/>
<line x1="173.913" y1="49.5654" x2="173.913" y2="24.0002" stroke="#55AB81" stroke-width="4" stroke-linecap="round"/>
<line x1="233.044" y1="49.5654" x2="233.044" y2="24.0002" stroke="#55AB81" stroke-width="4" stroke-linecap="round"/>
<line x1="221.218" y1="49.5654" x2="221.218" y2="24.0002" stroke="#55AB81" stroke-width="4" stroke-linecap="round"/>
<line x1="209.392" y1="49.5654" x2="209.392" y2="24.0002" stroke="#55AB81" stroke-width="4" stroke-linecap="round"/>
<line x1="292.174" y1="49.5654" x2="292.174" y2="24.0002" stroke="#FEDC00" stroke-width="4" stroke-linecap="round"/>
<line x1="280.348" y1="49.5654" x2="280.348" y2="24.0002" stroke="#FEDC00" stroke-width="4" stroke-linecap="round"/>
<line x1="268.521" y1="49.5654" x2="268.521" y2="24.0002" stroke="#FEDC00" stroke-width="4" stroke-linecap="round"/>
<line x1="256.695" y1="49.5654" x2="256.695" y2="24.0002" stroke="#FEDC00" stroke-width="4" stroke-linecap="round"/>
<line x1="327.652" y1="49.5654" x2="327.652" y2="24.0002" stroke="#FEDC00" stroke-width="4" stroke-linecap="round"/>
<line x1="374.956" y1="49.5654" x2="374.956" y2="24.0002" stroke="#FEDC00" stroke-width="4" stroke-linecap="round"/>
<line x1="315.826" y1="49.5654" x2="315.826" y2="24.0002" stroke="#FEDC00" stroke-width="4" stroke-linecap="round"/>
<line x1="304" y1="49.5654" x2="304" y2="24.0002" stroke="#FEDC00" stroke-width="4" stroke-linecap="round"/>
<line x1="363.131" y1="49.5654" x2="363.131" y2="24.0002" stroke="#FEDC00" stroke-width="4" stroke-linecap="round"/>
<line x1="351.305" y1="49.5654" x2="351.305" y2="24.0002" stroke="#FEDC00" stroke-width="4" stroke-linecap="round"/>
<line x1="339.479" y1="49.5654" x2="339.479" y2="24.0002" stroke="#FEDC00" stroke-width="4" stroke-linecap="round"/>
<line x1="410.435" y1="49.5654" x2="410.435" y2="24.0002" stroke="#CE0A18" stroke-width="4" stroke-linecap="round"/>
<line x1="457.739" y1="49.5654" x2="457.739" y2="24.0002" stroke="#CE0A18" stroke-width="4" stroke-linecap="round"/>
<line x1="398.608" y1="49.5654" x2="398.608" y2="24.0002" stroke="#CE0A18" stroke-width="4" stroke-linecap="round"/>
<line x1="386.782" y1="49.5654" x2="386.782" y2="24.0002" stroke="#CE0A18" stroke-width="4" stroke-linecap="round"/>
<line x1="445.913" y1="49.5654" x2="445.913" y2="24.0002" stroke="#CE0A18" stroke-width="4" stroke-linecap="round"/>
<line x1="434.087" y1="49.5654" x2="434.087" y2="24.0002" stroke="#CE0A18" stroke-width="4" stroke-linecap="round"/>
<line x1="422.261" y1="49.5654" x2="422.261" y2="24.0002" stroke="#CE0A18" stroke-width="4" stroke-linecap="round"/>
<line x1="505.044" y1="49.5654" x2="505.044" y2="24.0002" stroke="#CE0A18" stroke-width="4" stroke-linecap="round"/>
<line x1="493.218" y1="49.5654" x2="493.218" y2="24.0002" stroke="#CE0A18" stroke-width="4" stroke-linecap="round"/>
<line x1="481.392" y1="49.5654" x2="481.392" y2="24.0002" stroke="#CE0A18" stroke-width="4" stroke-linecap="round"/>
<line x1="469.565" y1="49.5654" x2="469.565" y2="24.0002" stroke="#CE0A18" stroke-width="4" stroke-linecap="round"/>
<line x1="540.521" y1="49.5654" x2="540.521" y2="24.0002" stroke="#CE0A18" stroke-width="4" stroke-linecap="round"/>
<line x1="587.826" y1="49.5654" x2="587.826" y2="24.0002" stroke="#CE0A18" stroke-width="4" stroke-linecap="round"/>
<line x1="528.695" y1="49.5654" x2="528.695" y2="24.0002" stroke="#CE0A18" stroke-width="4" stroke-linecap="round"/>
<line x1="516.869" y1="49.5654" x2="516.869" y2="24.0002" stroke="#CE0A18" stroke-width="4" stroke-linecap="round"/>
<line x1="576" y1="49.5654" x2="576" y2="24.0002" stroke="#CE0A18" stroke-width="4" stroke-linecap="round"/>
<line x1="564.174" y1="49.5654" x2="564.174" y2="24.0002" stroke="#CE0A18" stroke-width="4" stroke-linecap="round"/>
<line x1="552.348" y1="49.5654" x2="552.348" y2="24.0002" stroke="#CE0A18" stroke-width="4" stroke-linecap="round"/>
<path d="M6.40723 77H4.77246V66.1631L1.49414 67.3672V65.8906L6.15234 64.1416H6.40723V77ZM11.918 70.584L12.5684 64.2031H19.125V65.7061H13.9482L13.5615 69.1953C14.1885 68.8262 14.9004 68.6416 15.6973 68.6416C16.8633 68.6416 17.7891 69.0283 18.4746 69.8018C19.1602 70.5693 19.5029 71.6094 19.5029 72.9219C19.5029 74.2402 19.1455 75.2803 18.4307 76.042C17.7217 76.7979 16.7285 77.1758 15.4512 77.1758C14.3203 77.1758 13.3975 76.8623 12.6826 76.2354C11.9678 75.6084 11.5605 74.7412 11.4609 73.6338H12.999C13.0986 74.3662 13.3594 74.9199 13.7812 75.2949C14.2031 75.6641 14.7598 75.8486 15.4512 75.8486C16.207 75.8486 16.7988 75.5908 17.2266 75.0752C17.6602 74.5596 17.877 73.8477 17.877 72.9395C17.877 72.084 17.6426 71.3984 17.1738 70.8828C16.7109 70.3613 16.0928 70.1006 15.3193 70.1006C14.6104 70.1006 14.0537 70.2559 13.6494 70.5664L13.2188 70.918L11.918 70.584Z" fill="#1261A0"/>
<path d="M91.4072 77H89.7725V66.1631L86.4941 67.3672V65.8906L91.1523 64.1416H91.4072V77ZM103.932 67.543C103.932 68.1816 103.762 68.75 103.422 69.248C103.088 69.7461 102.634 70.1357 102.06 70.417C102.728 70.7041 103.255 71.123 103.642 71.6738C104.034 72.2246 104.23 72.8486 104.23 73.5459C104.23 74.6533 103.855 75.5352 103.105 76.1914C102.361 76.8477 101.38 77.1758 100.161 77.1758C98.9307 77.1758 97.9434 76.8477 97.1992 76.1914C96.4609 75.5293 96.0918 74.6475 96.0918 73.5459C96.0918 72.8545 96.2793 72.2305 96.6543 71.6738C97.0352 71.1172 97.5596 70.6953 98.2275 70.4082C97.6592 70.127 97.2109 69.7373 96.8828 69.2393C96.5547 68.7412 96.3906 68.1758 96.3906 67.543C96.3906 66.4648 96.7363 65.6094 97.4277 64.9766C98.1191 64.3438 99.0303 64.0273 100.161 64.0273C101.286 64.0273 102.194 64.3438 102.886 64.9766C103.583 65.6094 103.932 66.4648 103.932 67.543ZM102.604 73.5107C102.604 72.7959 102.376 72.2129 101.919 71.7617C101.468 71.3105 100.876 71.085 100.144 71.085C99.4111 71.085 98.8223 71.3076 98.377 71.7529C97.9375 72.1982 97.7178 72.7842 97.7178 73.5107C97.7178 74.2373 97.9316 74.8086 98.3594 75.2246C98.793 75.6406 99.3936 75.8486 100.161 75.8486C100.923 75.8486 101.521 75.6406 101.954 75.2246C102.388 74.8027 102.604 74.2314 102.604 73.5107ZM100.161 65.3633C99.5225 65.3633 99.0039 65.5625 98.6055 65.9609C98.2129 66.3535 98.0166 66.8896 98.0166 67.5693C98.0166 68.2197 98.21 68.7471 98.5967 69.1514C98.9893 69.5498 99.5107 69.749 100.161 69.749C100.812 69.749 101.33 69.5498 101.717 69.1514C102.109 68.7471 102.306 68.2197 102.306 67.5693C102.306 66.9189 102.104 66.3887 101.699 65.9785C101.295 65.5684 100.782 65.3633 100.161 65.3633ZM106.48 76.1475C106.48 75.8662 106.562 75.6318 106.727 75.4443C106.896 75.2568 107.148 75.1631 107.482 75.1631C107.816 75.1631 108.068 75.2568 108.238 75.4443C108.414 75.6318 108.502 75.8662 108.502 76.1475C108.502 76.417 108.414 76.6426 108.238 76.8242C108.068 77.0059 107.816 77.0967 107.482 77.0967C107.148 77.0967 106.896 77.0059 106.727 76.8242C106.562 76.6426 106.48 76.417 106.48 76.1475ZM111.771 70.584L112.422 64.2031H118.979V65.7061H113.802L113.415 69.1953C114.042 68.8262 114.754 68.6416 115.551 68.6416C116.717 68.6416 117.643 69.0283 118.328 69.8018C119.014 70.5693 119.356 71.6094 119.356 72.9219C119.356 74.2402 118.999 75.2803 118.284 76.042C117.575 76.7979 116.582 77.1758 115.305 77.1758C114.174 77.1758 113.251 76.8623 112.536 76.2354C111.821 75.6084 111.414 74.7412 111.314 73.6338H112.853C112.952 74.3662 113.213 74.9199 113.635 75.2949C114.057 75.6641 114.613 75.8486 115.305 75.8486C116.061 75.8486 116.652 75.5908 117.08 75.0752C117.514 74.5596 117.73 73.8477 117.73 72.9395C117.73 72.084 117.496 71.3984 117.027 70.8828C116.564 70.3613 115.946 70.1006 115.173 70.1006C114.464 70.1006 113.907 70.2559 113.503 70.5664L113.072 70.918L111.771 70.584Z" fill="#1261A0"/>
<path d="M260.448 77H252.063V75.8311L256.493 70.9092C257.149 70.165 257.601 69.5615 257.847 69.0986C258.099 68.6299 258.225 68.1465 258.225 67.6484C258.225 66.9805 258.022 66.4326 257.618 66.0049C257.214 65.5771 256.675 65.3633 256.001 65.3633C255.192 65.3633 254.562 65.5947 254.111 66.0576C253.666 66.5146 253.443 67.1533 253.443 67.9736H251.817C251.817 66.7959 252.195 65.8438 252.951 65.1172C253.713 64.3906 254.729 64.0273 256.001 64.0273C257.19 64.0273 258.131 64.3408 258.822 64.9678C259.514 65.5889 259.859 66.418 259.859 67.4551C259.859 68.7148 259.057 70.2148 257.451 71.9551L254.023 75.6729H260.448V77ZM262.918 70.584L263.568 64.2031H270.125V65.7061H264.948L264.562 69.1953C265.188 68.8262 265.9 68.6416 266.697 68.6416C267.863 68.6416 268.789 69.0283 269.475 69.8018C270.16 70.5693 270.503 71.6094 270.503 72.9219C270.503 74.2402 270.146 75.2803 269.431 76.042C268.722 76.7979 267.729 77.1758 266.451 77.1758C265.32 77.1758 264.397 76.8623 263.683 76.2354C262.968 75.6084 262.561 74.7412 262.461 73.6338H263.999C264.099 74.3662 264.359 74.9199 264.781 75.2949C265.203 75.6641 265.76 75.8486 266.451 75.8486C267.207 75.8486 267.799 75.5908 268.227 75.0752C268.66 74.5596 268.877 73.8477 268.877 72.9395C268.877 72.084 268.643 71.3984 268.174 70.8828C267.711 70.3613 267.093 70.1006 266.319 70.1006C265.61 70.1006 265.054 70.2559 264.649 70.5664L264.219 70.918L262.918 70.584Z" fill="#1261A0"/>
<path d="M390.428 69.8105H391.649C392.417 69.7988 393.021 69.5967 393.46 69.2041C393.899 68.8115 394.119 68.2812 394.119 67.6133C394.119 66.1133 393.372 65.3633 391.878 65.3633C391.175 65.3633 390.612 65.5654 390.19 65.9697C389.774 66.3682 389.566 66.8984 389.566 67.5605H387.94C387.94 66.5469 388.31 65.7061 389.048 65.0381C389.792 64.3643 390.735 64.0273 391.878 64.0273C393.085 64.0273 394.031 64.3467 394.717 64.9854C395.402 65.624 395.745 66.5117 395.745 67.6484C395.745 68.2051 395.563 68.7441 395.2 69.2656C394.843 69.7871 394.354 70.1768 393.732 70.4346C394.436 70.6572 394.978 71.0264 395.358 71.542C395.745 72.0576 395.938 72.6875 395.938 73.4316C395.938 74.5801 395.563 75.4912 394.813 76.165C394.063 76.8389 393.088 77.1758 391.887 77.1758C390.686 77.1758 389.707 76.8506 388.951 76.2002C388.201 75.5498 387.826 74.6914 387.826 73.625H389.461C389.461 74.2988 389.681 74.8379 390.12 75.2422C390.56 75.6465 391.148 75.8486 391.887 75.8486C392.672 75.8486 393.272 75.6436 393.688 75.2334C394.104 74.8232 394.312 74.2344 394.312 73.4668C394.312 72.7227 394.084 72.1514 393.627 71.7529C393.17 71.3545 392.511 71.1494 391.649 71.1377H390.428V69.8105ZM406.195 71.542C406.195 73.4463 405.87 74.8613 405.22 75.7871C404.569 76.7129 403.553 77.1758 402.17 77.1758C400.805 77.1758 399.794 76.7246 399.138 75.8223C398.481 74.9141 398.142 73.5605 398.118 71.7617V69.5908C398.118 67.71 398.443 66.3125 399.094 65.3984C399.744 64.4844 400.764 64.0273 402.152 64.0273C403.529 64.0273 404.543 64.4697 405.193 65.3545C405.844 66.2334 406.178 67.5928 406.195 69.4326V71.542ZM404.569 69.3184C404.569 67.9414 404.376 66.9395 403.989 66.3125C403.603 65.6797 402.99 65.3633 402.152 65.3633C401.32 65.3633 400.714 65.6768 400.333 66.3037C399.952 66.9307 399.756 67.8945 399.744 69.1953V71.7969C399.744 73.1797 399.943 74.2021 400.342 74.8643C400.746 75.5205 401.355 75.8486 402.17 75.8486C402.973 75.8486 403.567 75.5381 403.954 74.917C404.347 74.2959 404.552 73.3174 404.569 71.9814V69.3184Z" fill="#1261A0"/>
<line x1="381" y1="16" x2="595" y2="16" stroke="#1261A0" stroke-width="2"/>
<line x1="594" y1="16" x2="594" y2="28" stroke="#1261A0" stroke-width="2"/>
<line x1="381" y1="15" x2="381" y2="26" stroke="#1261A0" stroke-width="2"/>
<path d="M447.891 7.39795L450.303 2.75781H451.687L448.5 8.55322V12H447.282V8.55322L444.095 2.75781H445.492L447.891 7.39795ZM459.799 7.67725C459.799 8.58285 459.647 9.37419 459.342 10.0513C459.038 10.7241 458.606 11.2383 458.047 11.5938C457.489 11.9492 456.837 12.127 456.092 12.127C455.364 12.127 454.719 11.9492 454.156 11.5938C453.593 11.234 453.155 10.7241 452.842 10.064C452.533 9.39958 452.375 8.63151 452.366 7.75977V7.09326C452.366 6.20459 452.521 5.4196 452.83 4.73828C453.139 4.05697 453.574 3.53646 454.137 3.17676C454.704 2.81283 455.352 2.63086 456.08 2.63086C456.82 2.63086 457.472 2.81071 458.035 3.17041C458.602 3.52588 459.038 4.04427 459.342 4.72559C459.647 5.40267 459.799 6.19189 459.799 7.09326V7.67725ZM458.587 7.08057C458.587 5.98454 458.367 5.14453 457.927 4.56055C457.487 3.97233 456.871 3.67822 456.08 3.67822C455.309 3.67822 454.702 3.97233 454.258 4.56055C453.818 5.14453 453.591 5.95703 453.579 6.99805V7.67725C453.579 8.73942 453.801 9.5752 454.245 10.1846C454.694 10.7897 455.309 11.0923 456.092 11.0923C456.879 11.0923 457.489 10.8066 457.92 10.2354C458.352 9.65983 458.574 8.83675 458.587 7.76611V7.08057ZM468.134 2.75781V9.04199C468.13 9.91374 467.854 10.6268 467.309 11.1812C466.767 11.7355 466.031 12.0465 465.1 12.1143L464.776 12.127C463.764 12.127 462.958 11.854 462.357 11.3081C461.757 10.7622 461.452 10.0111 461.443 9.05469V2.75781H462.649V9.0166C462.649 9.68522 462.833 10.2057 463.202 10.5781C463.57 10.9463 464.095 11.1304 464.776 11.1304C465.466 11.1304 465.993 10.9463 466.356 10.5781C466.725 10.21 466.909 9.69157 466.909 9.02295V2.75781H468.134ZM478.385 9.58789H474.513L473.644 12H472.387L475.916 2.75781H476.982L480.518 12H479.268L478.385 9.58789ZM474.881 8.58496H478.023L476.449 4.26221L474.881 8.58496ZM485.152 8.26123H482.981V12H481.756V2.75781H484.815C485.856 2.75781 486.656 2.99479 487.215 3.46875C487.778 3.94271 488.059 4.63249 488.059 5.53809C488.059 6.11361 487.903 6.61507 487.589 7.04248C487.28 7.46989 486.849 7.78939 486.294 8.00098L488.465 11.9238V12H487.158L485.152 8.26123ZM482.981 7.26465H484.854C485.459 7.26465 485.939 7.10807 486.294 6.79492C486.654 6.48177 486.834 6.06283 486.834 5.53809C486.834 4.9668 486.663 4.52881 486.32 4.22412C485.981 3.91943 485.49 3.76497 484.847 3.76074H482.981V7.26465ZM494.997 7.72803H490.992V11.0034H495.645V12H489.773V2.75781H495.581V3.76074H490.992V6.73145H494.997V7.72803ZM507.489 12H506.264V7.72803H501.605V12H500.386V2.75781H501.605V6.73145H506.264V2.75781H507.489V12ZM514.878 7.72803H510.873V11.0034H515.525V12H509.654V2.75781H515.462V3.76074H510.873V6.73145H514.878V7.72803ZM520.432 8.26123H518.261V12H517.036V2.75781H520.096C521.137 2.75781 521.937 2.99479 522.495 3.46875C523.058 3.94271 523.339 4.63249 523.339 5.53809C523.339 6.11361 523.183 6.61507 522.87 7.04248C522.561 7.46989 522.129 7.78939 521.575 8.00098L523.746 11.9238V12H522.438L520.432 8.26123ZM518.261 7.26465H520.134C520.739 7.26465 521.219 7.10807 521.575 6.79492C521.934 6.48177 522.114 6.06283 522.114 5.53809C522.114 4.9668 521.943 4.52881 521.6 4.22412C521.262 3.91943 520.771 3.76497 520.127 3.76074H518.261V7.26465ZM530.277 7.72803H526.272V11.0034H530.925V12H525.053V2.75781H530.861V3.76074H526.272V6.73145H530.277V7.72803Z" fill="#1261A0"/>
</svg>
