<svg width="590" height="88" viewBox="0 0 590 88" fill="none" xmlns="http://www.w3.org/2000/svg">
<line x1="32" y1="50.5654" x2="32" y2="25.0002" stroke="#5DCDCE" stroke-width="4" stroke-linecap="round"/>
<line x1="79.3047" y1="50.5654" x2="79.3047" y2="25.0002" stroke="#5DCDCE" stroke-width="4" stroke-linecap="round"/>
<line x1="20.1738" y1="50.5654" x2="20.1738" y2="25.0002" stroke="#5DCDCE" stroke-width="4" stroke-linecap="round"/>
<line x1="8.34766" y1="50.5654" x2="8.34766" y2="25.0002" stroke="#5DCDCE" stroke-width="4" stroke-linecap="round"/>
<line x1="67.4785" y1="50.5654" x2="67.4785" y2="25.0002" stroke="#5DCDCE" stroke-width="4" stroke-linecap="round"/>
<line x1="55.6523" y1="50.5654" x2="55.6523" y2="25.0002" stroke="#5DCDCE" stroke-width="4" stroke-linecap="round"/>
<line x1="43.8262" y1="50.5654" x2="43.8262" y2="25.0002" stroke="#5DCDCE" stroke-width="4" stroke-linecap="round"/>
<line x1="114.782" y1="50.5654" x2="114.782" y2="25.0002" stroke="#55AB81" stroke-width="4" stroke-linecap="round"/>
<line x1="162.087" y1="50.5654" x2="162.087" y2="25.0002" stroke="#55AB81" stroke-width="4" stroke-linecap="round"/>
<line x1="102.956" y1="50.5654" x2="102.956" y2="25.0002" stroke="#55AB81" stroke-width="4" stroke-linecap="round"/>
<line x1="91.1309" y1="50.5654" x2="91.1309" y2="25.0002" stroke="#55AB81" stroke-width="4" stroke-linecap="round"/>
<line x1="150.261" y1="50.5654" x2="150.261" y2="25.0002" stroke="#55AB81" stroke-width="4" stroke-linecap="round"/>
<line x1="138.435" y1="50.5654" x2="138.435" y2="25.0002" stroke="#55AB81" stroke-width="4" stroke-linecap="round"/>
<line x1="126.608" y1="50.5654" x2="126.608" y2="25.0002" stroke="#55AB81" stroke-width="4" stroke-linecap="round"/>
<line x1="197.565" y1="50.5654" x2="197.565" y2="25.0002" stroke="#55AB81" stroke-width="4" stroke-linecap="round"/>
<line x1="244.869" y1="50.5654" x2="244.869" y2="25.0002" stroke="#55AB81" stroke-width="4" stroke-linecap="round"/>
<line x1="185.739" y1="50.5654" x2="185.739" y2="25.0002" stroke="#55AB81" stroke-width="4" stroke-linecap="round"/>
<line x1="173.913" y1="50.5654" x2="173.913" y2="25.0002" stroke="#55AB81" stroke-width="4" stroke-linecap="round"/>
<line x1="233.044" y1="50.5654" x2="233.044" y2="25.0002" stroke="#55AB81" stroke-width="4" stroke-linecap="round"/>
<line x1="221.218" y1="50.5654" x2="221.218" y2="25.0002" stroke="#55AB81" stroke-width="4" stroke-linecap="round"/>
<line x1="209.392" y1="50.5654" x2="209.392" y2="25.0002" stroke="#55AB81" stroke-width="4" stroke-linecap="round"/>
<line x1="292.174" y1="50.5654" x2="292.174" y2="25.0002" stroke="#FEDC00" stroke-width="4" stroke-linecap="round"/>
<line x1="280.348" y1="50.5654" x2="280.348" y2="25.0002" stroke="#FEDC00" stroke-width="4" stroke-linecap="round"/>
<line x1="268.521" y1="50.5654" x2="268.521" y2="25.0002" stroke="#FEDC00" stroke-width="4" stroke-linecap="round"/>
<line x1="256.695" y1="50.5654" x2="256.695" y2="25.0002" stroke="#FEDC00" stroke-width="4" stroke-linecap="round"/>
<line x1="327.652" y1="50.5654" x2="327.652" y2="25.0002" stroke="#FEDC00" stroke-width="4" stroke-linecap="round"/>
<line x1="374.956" y1="50.5654" x2="374.956" y2="25.0002" stroke="#FEDC00" stroke-width="4" stroke-linecap="round"/>
<line x1="315.826" y1="50.5654" x2="315.826" y2="25.0002" stroke="#FEDC00" stroke-width="4" stroke-linecap="round"/>
<line x1="304" y1="50.5654" x2="304" y2="25.0002" stroke="#FEDC00" stroke-width="4" stroke-linecap="round"/>
<line x1="363.131" y1="50.5654" x2="363.131" y2="25.0002" stroke="#FEDC00" stroke-width="4" stroke-linecap="round"/>
<line x1="351.305" y1="50.5654" x2="351.305" y2="25.0002" stroke="#FEDC00" stroke-width="4" stroke-linecap="round"/>
<line x1="339.479" y1="50.5654" x2="339.479" y2="25.0002" stroke="#FEDC00" stroke-width="4" stroke-linecap="round"/>
<line x1="410.435" y1="50.5654" x2="410.435" y2="25.0002" stroke="#CE0A18" stroke-width="4" stroke-linecap="round"/>
<line x1="457.739" y1="50.5654" x2="457.739" y2="25.0002" stroke="#CE0A18" stroke-width="4" stroke-linecap="round"/>
<line x1="398.608" y1="50.5654" x2="398.608" y2="25.0002" stroke="#CE0A18" stroke-width="4" stroke-linecap="round"/>
<line x1="386.782" y1="50.5654" x2="386.782" y2="25.0002" stroke="#CE0A18" stroke-width="4" stroke-linecap="round"/>
<line x1="445.913" y1="50.5654" x2="445.913" y2="25.0002" stroke="#CE0A18" stroke-width="4" stroke-linecap="round"/>
<line x1="434.087" y1="50.5654" x2="434.087" y2="25.0002" stroke="#CE0A18" stroke-width="4" stroke-linecap="round"/>
<line x1="422.261" y1="50.5654" x2="422.261" y2="25.0002" stroke="#CE0A18" stroke-width="4" stroke-linecap="round"/>
<line x1="505.044" y1="50.5654" x2="505.044" y2="25.0002" stroke="#CE0A18" stroke-width="4" stroke-linecap="round"/>
<line x1="493.218" y1="50.5654" x2="493.218" y2="25.0002" stroke="#CE0A18" stroke-width="4" stroke-linecap="round"/>
<line x1="481.392" y1="50.5654" x2="481.392" y2="25.0002" stroke="#CE0A18" stroke-width="4" stroke-linecap="round"/>
<line x1="469.565" y1="50.5654" x2="469.565" y2="25.0002" stroke="#CE0A18" stroke-width="4" stroke-linecap="round"/>
<line x1="540.521" y1="50.5654" x2="540.521" y2="25.0002" stroke="#CE0A18" stroke-width="4" stroke-linecap="round"/>
<line x1="587.826" y1="50.5654" x2="587.826" y2="25.0002" stroke="#CE0A18" stroke-width="4" stroke-linecap="round"/>
<line x1="528.695" y1="50.5654" x2="528.695" y2="25.0002" stroke="#CE0A18" stroke-width="4" stroke-linecap="round"/>
<line x1="516.869" y1="50.5654" x2="516.869" y2="25.0002" stroke="#CE0A18" stroke-width="4" stroke-linecap="round"/>
<line x1="576" y1="50.5654" x2="576" y2="25.0002" stroke="#CE0A18" stroke-width="4" stroke-linecap="round"/>
<line x1="564.174" y1="50.5654" x2="564.174" y2="25.0002" stroke="#CE0A18" stroke-width="4" stroke-linecap="round"/>
<line x1="552.348" y1="50.5654" x2="552.348" y2="25.0002" stroke="#CE0A18" stroke-width="4" stroke-linecap="round"/>
<path d="M6.40723 78H4.77246V67.1631L1.49414 68.3672V66.8906L6.15234 65.1416H6.40723V78ZM11.918 71.584L12.5684 65.2031H19.125V66.7061H13.9482L13.5615 70.1953C14.1885 69.8262 14.9004 69.6416 15.6973 69.6416C16.8633 69.6416 17.7891 70.0283 18.4746 70.8018C19.1602 71.5693 19.5029 72.6094 19.5029 73.9219C19.5029 75.2402 19.1455 76.2803 18.4307 77.042C17.7217 77.7979 16.7285 78.1758 15.4512 78.1758C14.3203 78.1758 13.3975 77.8623 12.6826 77.2354C11.9678 76.6084 11.5605 75.7412 11.4609 74.6338H12.999C13.0986 75.3662 13.3594 75.9199 13.7812 76.2949C14.2031 76.6641 14.7598 76.8486 15.4512 76.8486C16.207 76.8486 16.7988 76.5908 17.2266 76.0752C17.6602 75.5596 17.877 74.8477 17.877 73.9395C17.877 73.084 17.6426 72.3984 17.1738 71.8828C16.7109 71.3613 16.0928 71.1006 15.3193 71.1006C14.6104 71.1006 14.0537 71.2559 13.6494 71.5664L13.2188 71.918L11.918 71.584Z" fill="#1261A0"/>
<path d="M91.4072 78H89.7725V67.1631L86.4941 68.3672V66.8906L91.1523 65.1416H91.4072V78ZM103.932 68.543C103.932 69.1816 103.762 69.75 103.422 70.248C103.088 70.7461 102.634 71.1357 102.06 71.417C102.728 71.7041 103.255 72.123 103.642 72.6738C104.034 73.2246 104.23 73.8486 104.23 74.5459C104.23 75.6533 103.855 76.5352 103.105 77.1914C102.361 77.8477 101.38 78.1758 100.161 78.1758C98.9307 78.1758 97.9434 77.8477 97.1992 77.1914C96.4609 76.5293 96.0918 75.6475 96.0918 74.5459C96.0918 73.8545 96.2793 73.2305 96.6543 72.6738C97.0352 72.1172 97.5596 71.6953 98.2275 71.4082C97.6592 71.127 97.2109 70.7373 96.8828 70.2393C96.5547 69.7412 96.3906 69.1758 96.3906 68.543C96.3906 67.4648 96.7363 66.6094 97.4277 65.9766C98.1191 65.3438 99.0303 65.0273 100.161 65.0273C101.286 65.0273 102.194 65.3438 102.886 65.9766C103.583 66.6094 103.932 67.4648 103.932 68.543ZM102.604 74.5107C102.604 73.7959 102.376 73.2129 101.919 72.7617C101.468 72.3105 100.876 72.085 100.144 72.085C99.4111 72.085 98.8223 72.3076 98.377 72.7529C97.9375 73.1982 97.7178 73.7842 97.7178 74.5107C97.7178 75.2373 97.9316 75.8086 98.3594 76.2246C98.793 76.6406 99.3936 76.8486 100.161 76.8486C100.923 76.8486 101.521 76.6406 101.954 76.2246C102.388 75.8027 102.604 75.2314 102.604 74.5107ZM100.161 66.3633C99.5225 66.3633 99.0039 66.5625 98.6055 66.9609C98.2129 67.3535 98.0166 67.8896 98.0166 68.5693C98.0166 69.2197 98.21 69.7471 98.5967 70.1514C98.9893 70.5498 99.5107 70.749 100.161 70.749C100.812 70.749 101.33 70.5498 101.717 70.1514C102.109 69.7471 102.306 69.2197 102.306 68.5693C102.306 67.9189 102.104 67.3887 101.699 66.9785C101.295 66.5684 100.782 66.3633 100.161 66.3633ZM106.48 77.1475C106.48 76.8662 106.562 76.6318 106.727 76.4443C106.896 76.2568 107.148 76.1631 107.482 76.1631C107.816 76.1631 108.068 76.2568 108.238 76.4443C108.414 76.6318 108.502 76.8662 108.502 77.1475C108.502 77.417 108.414 77.6426 108.238 77.8242C108.068 78.0059 107.816 78.0967 107.482 78.0967C107.148 78.0967 106.896 78.0059 106.727 77.8242C106.562 77.6426 106.48 77.417 106.48 77.1475ZM111.771 71.584L112.422 65.2031H118.979V66.7061H113.802L113.415 70.1953C114.042 69.8262 114.754 69.6416 115.551 69.6416C116.717 69.6416 117.643 70.0283 118.328 70.8018C119.014 71.5693 119.356 72.6094 119.356 73.9219C119.356 75.2402 118.999 76.2803 118.284 77.042C117.575 77.7979 116.582 78.1758 115.305 78.1758C114.174 78.1758 113.251 77.8623 112.536 77.2354C111.821 76.6084 111.414 75.7412 111.314 74.6338H112.853C112.952 75.3662 113.213 75.9199 113.635 76.2949C114.057 76.6641 114.613 76.8486 115.305 76.8486C116.061 76.8486 116.652 76.5908 117.08 76.0752C117.514 75.5596 117.73 74.8477 117.73 73.9395C117.73 73.084 117.496 72.3984 117.027 71.8828C116.564 71.3613 115.946 71.1006 115.173 71.1006C114.464 71.1006 113.907 71.2559 113.503 71.5664L113.072 71.918L111.771 71.584Z" fill="#1261A0"/>
<path d="M260.448 78H252.063V76.8311L256.493 71.9092C257.149 71.165 257.601 70.5615 257.847 70.0986C258.099 69.6299 258.225 69.1465 258.225 68.6484C258.225 67.9805 258.022 67.4326 257.618 67.0049C257.214 66.5771 256.675 66.3633 256.001 66.3633C255.192 66.3633 254.562 66.5947 254.111 67.0576C253.666 67.5146 253.443 68.1533 253.443 68.9736H251.817C251.817 67.7959 252.195 66.8438 252.951 66.1172C253.713 65.3906 254.729 65.0273 256.001 65.0273C257.19 65.0273 258.131 65.3408 258.822 65.9678C259.514 66.5889 259.859 67.418 259.859 68.4551C259.859 69.7148 259.057 71.2148 257.451 72.9551L254.023 76.6729H260.448V78ZM262.918 71.584L263.568 65.2031H270.125V66.7061H264.948L264.562 70.1953C265.188 69.8262 265.9 69.6416 266.697 69.6416C267.863 69.6416 268.789 70.0283 269.475 70.8018C270.16 71.5693 270.503 72.6094 270.503 73.9219C270.503 75.2402 270.146 76.2803 269.431 77.042C268.722 77.7979 267.729 78.1758 266.451 78.1758C265.32 78.1758 264.397 77.8623 263.683 77.2354C262.968 76.6084 262.561 75.7412 262.461 74.6338H263.999C264.099 75.3662 264.359 75.9199 264.781 76.2949C265.203 76.6641 265.76 76.8486 266.451 76.8486C267.207 76.8486 267.799 76.5908 268.227 76.0752C268.66 75.5596 268.877 74.8477 268.877 73.9395C268.877 73.084 268.643 72.3984 268.174 71.8828C267.711 71.3613 267.093 71.1006 266.319 71.1006C265.61 71.1006 265.054 71.2559 264.649 71.5664L264.219 71.918L262.918 71.584Z" fill="#1261A0"/>
<path d="M390.428 70.8105H391.649C392.417 70.7988 393.021 70.5967 393.46 70.2041C393.899 69.8115 394.119 69.2812 394.119 68.6133C394.119 67.1133 393.372 66.3633 391.878 66.3633C391.175 66.3633 390.612 66.5654 390.19 66.9697C389.774 67.3682 389.566 67.8984 389.566 68.5605H387.94C387.94 67.5469 388.31 66.7061 389.048 66.0381C389.792 65.3643 390.735 65.0273 391.878 65.0273C393.085 65.0273 394.031 65.3467 394.717 65.9854C395.402 66.624 395.745 67.5117 395.745 68.6484C395.745 69.2051 395.563 69.7441 395.2 70.2656C394.843 70.7871 394.354 71.1768 393.732 71.4346C394.436 71.6572 394.978 72.0264 395.358 72.542C395.745 73.0576 395.938 73.6875 395.938 74.4316C395.938 75.5801 395.563 76.4912 394.813 77.165C394.063 77.8389 393.088 78.1758 391.887 78.1758C390.686 78.1758 389.707 77.8506 388.951 77.2002C388.201 76.5498 387.826 75.6914 387.826 74.625H389.461C389.461 75.2988 389.681 75.8379 390.12 76.2422C390.56 76.6465 391.148 76.8486 391.887 76.8486C392.672 76.8486 393.272 76.6436 393.688 76.2334C394.104 75.8232 394.312 75.2344 394.312 74.4668C394.312 73.7227 394.084 73.1514 393.627 72.7529C393.17 72.3545 392.511 72.1494 391.649 72.1377H390.428V70.8105ZM406.195 72.542C406.195 74.4463 405.87 75.8613 405.22 76.7871C404.569 77.7129 403.553 78.1758 402.17 78.1758C400.805 78.1758 399.794 77.7246 399.138 76.8223C398.481 75.9141 398.142 74.5605 398.118 72.7617V70.5908C398.118 68.71 398.443 67.3125 399.094 66.3984C399.744 65.4844 400.764 65.0273 402.152 65.0273C403.529 65.0273 404.543 65.4697 405.193 66.3545C405.844 67.2334 406.178 68.5928 406.195 70.4326V72.542ZM404.569 70.3184C404.569 68.9414 404.376 67.9395 403.989 67.3125C403.603 66.6797 402.99 66.3633 402.152 66.3633C401.32 66.3633 400.714 66.6768 400.333 67.3037C399.952 67.9307 399.756 68.8945 399.744 70.1953V72.7969C399.744 74.1797 399.943 75.2021 400.342 75.8643C400.746 76.5205 401.355 76.8486 402.17 76.8486C402.973 76.8486 403.567 76.5381 403.954 75.917C404.347 75.2959 404.552 74.3174 404.569 72.9814V70.3184Z" fill="#1261A0"/>
<line x1="249" y1="16" x2="382" y2="16" stroke="#1261A0" stroke-width="2"/>
<line x1="381" y1="16" x2="381" y2="28" stroke="#1261A0" stroke-width="2"/>
<line x1="250" y1="15" x2="250" y2="26" stroke="#1261A0" stroke-width="2"/>
<path d="M275.891 7.39795L278.303 2.75781H279.687L276.5 8.55322V12H275.282V8.55322L272.095 2.75781H273.492L275.891 7.39795ZM287.799 7.67725C287.799 8.58285 287.647 9.37419 287.342 10.0513C287.038 10.7241 286.606 11.2383 286.047 11.5938C285.489 11.9492 284.837 12.127 284.092 12.127C283.364 12.127 282.719 11.9492 282.156 11.5938C281.593 11.234 281.155 10.7241 280.842 10.064C280.533 9.39958 280.375 8.63151 280.366 7.75977V7.09326C280.366 6.20459 280.521 5.4196 280.83 4.73828C281.139 4.05697 281.574 3.53646 282.137 3.17676C282.704 2.81283 283.352 2.63086 284.08 2.63086C284.82 2.63086 285.472 2.81071 286.035 3.17041C286.602 3.52588 287.038 4.04427 287.342 4.72559C287.647 5.40267 287.799 6.19189 287.799 7.09326V7.67725ZM286.587 7.08057C286.587 5.98454 286.367 5.14453 285.927 4.56055C285.487 3.97233 284.871 3.67822 284.08 3.67822C283.309 3.67822 282.702 3.97233 282.258 4.56055C281.818 5.14453 281.591 5.95703 281.579 6.99805V7.67725C281.579 8.73942 281.801 9.5752 282.245 10.1846C282.694 10.7897 283.309 11.0923 284.092 11.0923C284.879 11.0923 285.489 10.8066 285.92 10.2354C286.352 9.65983 286.574 8.83675 286.587 7.76611V7.08057ZM296.134 2.75781V9.04199C296.13 9.91374 295.854 10.6268 295.309 11.1812C294.767 11.7355 294.031 12.0465 293.1 12.1143L292.776 12.127C291.764 12.127 290.958 11.854 290.357 11.3081C289.757 10.7622 289.452 10.0111 289.443 9.05469V2.75781H290.649V9.0166C290.649 9.68522 290.833 10.2057 291.202 10.5781C291.57 10.9463 292.095 11.1304 292.776 11.1304C293.466 11.1304 293.993 10.9463 294.356 10.5781C294.725 10.21 294.909 9.69157 294.909 9.02295V2.75781H296.134ZM306.385 9.58789H302.513L301.644 12H300.387L303.916 2.75781H304.982L308.518 12H307.268L306.385 9.58789ZM302.881 8.58496H306.023L304.449 4.26221L302.881 8.58496ZM313.152 8.26123H310.981V12H309.756V2.75781H312.815C313.856 2.75781 314.656 2.99479 315.215 3.46875C315.778 3.94271 316.059 4.63249 316.059 5.53809C316.059 6.11361 315.903 6.61507 315.589 7.04248C315.28 7.46989 314.849 7.78939 314.294 8.00098L316.465 11.9238V12H315.158L313.152 8.26123ZM310.981 7.26465H312.854C313.459 7.26465 313.939 7.10807 314.294 6.79492C314.654 6.48177 314.834 6.06283 314.834 5.53809C314.834 4.9668 314.663 4.52881 314.32 4.22412C313.981 3.91943 313.49 3.76497 312.847 3.76074H310.981V7.26465ZM322.997 7.72803H318.992V11.0034H323.645V12H317.773V2.75781H323.581V3.76074H318.992V6.73145H322.997V7.72803ZM335.489 12H334.264V7.72803H329.605V12H328.386V2.75781H329.605V6.73145H334.264V2.75781H335.489V12ZM342.878 7.72803H338.873V11.0034H343.525V12H337.654V2.75781H343.462V3.76074H338.873V6.73145H342.878V7.72803ZM348.432 8.26123H346.261V12H345.036V2.75781H348.096C349.137 2.75781 349.937 2.99479 350.495 3.46875C351.058 3.94271 351.339 4.63249 351.339 5.53809C351.339 6.11361 351.183 6.61507 350.87 7.04248C350.561 7.46989 350.129 7.78939 349.575 8.00098L351.746 11.9238V12H350.438L348.432 8.26123ZM346.261 7.26465H348.134C348.739 7.26465 349.219 7.10807 349.575 6.79492C349.934 6.48177 350.114 6.06283 350.114 5.53809C350.114 4.9668 349.943 4.52881 349.6 4.22412C349.262 3.91943 348.771 3.76497 348.127 3.76074H346.261V7.26465ZM358.277 7.72803H354.272V11.0034H358.925V12H353.053V2.75781H358.861V3.76074H354.272V6.73145H358.277V7.72803Z" fill="#1261A0"/>
</svg>
