<svg width="1841" height="1122" viewBox="0 0 1841 1122" fill="none" xmlns="http://www.w3.org/2000/svg">
<path d="M126.84 622.781L142.749 612.281L155.675 601.781L161.64 594.562L167.606 582.75V565.031L161.64 547.969L151.697 535.5L144.24 526.312L136.783 517.125L126.84 500.719L116.897 481.688L108.943 462L101.983 440.344L99 424.594V411.469L101.983 395.719L104.966 381.938L112.92 365.531L123.857 351.094L139.766 336L155.675 324.188L182.521 307.125L218.315 286.125L232.235 276.938L245.161 267.094L257.092 256.594L269.024 245.438L275.984 234.281L283.938 220.5L288.91 208.688L294.876 192.938L298.853 174.563L303.824 154.219L309.79 134.531L316.75 116.156L327.687 97.7813L341.607 79.4063L352.545 67.5938L370.442 53.1563L389.333 39.375L408.225 28.875L429.105 19.6875L451.974 12.4688L475.837 6.5625L499.7 2.625L526.546 0H550.409L581.232 2.625L611.06 8.53125L640.889 17.0625L669.724 26.9063L701.541 41.3438L727.393 56.4375L754.239 70.2188L787.05 87.2813L808.925 96.4688L831.793 103.031L861.622 108.281L884.491 109.594H910.342L937.188 106.313L981.932 96.4688L1024.69 87.2813L1066.45 74.8125L1103.24 62.3438L1140.02 49.2188L1176.81 34.125L1201.67 26.9063L1226.53 21.6563L1251.38 18.375L1278.23 16.4063H1299.11L1325.96 18.375L1347.83 22.3125L1367.72 28.2188L1384.62 34.125L1400.53 43.9688L1434.33 66.2813L1445.27 74.1563L1465.16 89.9063L1484.05 106.969L1503.93 122.063L1519.84 132.563L1534.76 141.094L1551.66 148.313L1569.56 154.875L1591.43 161.438L1617.28 166.031L1642.14 170.625L1670.98 175.875L1695.83 180.469L1719.7 185.719L1740.58 191.625L1758.47 198.844L1775.38 206.719L1792.28 215.906L1807.19 227.063L1819.13 238.875L1829.07 250.031L1833.05 258.563L1838.02 270.375L1841 284.156V297.281L1836.03 311.719L1829.07 328.125L1818.13 345.188L1805.21 362.25L1791.29 376.688L1777.37 391.781L1763.45 409.5L1751.51 425.25L1742.57 439.688L1737.59 452.813V467.25L1744.55 480.375L1754.5 490.875L1767.42 502.688L1777.37 510.562L1792.5 521.957L1802.22 531.562L1804 535.938L1806 540.598L1805.21 544.031L1803.22 547.969L1801.23 551.25L1798.25 553.875L1793.27 559.21L1787.31 564.375L1778.36 570.937L1767.42 579.738L1754.5 590.295L1744.55 599.679L1737.59 611.409V624.312L1742.57 636.042L1751.51 648.945L1763.45 663.022L1777.37 678.857L1791.29 692.347L1805.21 705.25L1818.13 720.499L1829.07 735.748L1836.03 750.411L1841 763.314V775.044L1838.02 787.36L1833.05 797.917L1829.07 805.542L1819.13 815.513L1807.19 826.07L1792.28 836.04L1775.38 844.251L1758.47 851.289L1740.58 857.741L1719.7 863.019L1695.83 867.711L1670.98 871.817L1642.14 876.509L1617.28 880.615L1591.43 884.72L1569.56 890.585L1551.66 896.45L1534.76 902.902L1519.84 910.526L1503.93 919.91L1484.05 933.4L1465.16 948.649L1445.27 962.725L1434.33 969.763L1400.53 989.704L1384.62 998.502L1367.72 1003.78L1347.83 1009.06L1325.96 1012.58L1299.11 1014.34H1278.23L1251.38 1012.58L1226.53 1009.65L1201.67 1004.95L1176.81 998.502L1140.02 985.012L1103.24 973.282L1066.45 962.138L1024.69 950.995L981.932 942.784L937.188 933.986L910.342 931.054H884.491L861.622 932.227L831.793 936.919L808.925 942.784L787.05 950.995L754.239 966.244L727.393 978.561L701.541 992.05L669.724 1004.95L640.889 1013.75L611.06 1021.38L581.232 1026.65L550.409 1029H526.546L499.7 1026.65L475.837 1023.13L451.974 1017.86L429.105 1011.4L408.225 1003.19L389.333 993.81L370.442 981.493L352.545 968.59L341.607 958.033L327.687 941.611L316.75 925.189L309.79 908.767L303.824 891.172L298.853 872.99L294.876 856.568L288.91 842.492L283.938 831.935L275.984 819.618L269.024 809.648L257.092 799.677L245.161 790.293L232.235 781.495L218.315 773.284L182.521 754.516L155.675 739.267L139.766 728.71L123.857 715.22L112.92 702.317L104.966 687.655L101.983 675.338L99 661.262L104.966 646.406L112.92 634.594L126.84 622.781Z" fill="#C1DBF4"/>
<path d="M268 155L261.5 182L254 200L247.5 215L239 225.5L226.983 236.456L211 248L195.458 257.886L185.212 264.214L174.178 271.616L160.78 279.943L150.534 285.495L140.288 290.121L129.254 294.747L118.22 298.448L106.398 301.224L93.7881 303.075L80.3898 304H63.839L49.6525 301.224L41.7712 298.448L30.7373 291.972L26.0085 288.27L18.9153 281.794L12.6102 274.391L7.88135 266.989L3.15256 255.886L0.788147 246.633L0 236.456V224.427L2.36441 213.324L6.30508 202.221L12.6102 192.968L18.9153 186.491L28.3729 179.089L38.6187 173.537L49.6525 168.911L65.4153 164.285L84.3305 156.883L98.517 149.48L107.186 142.078L116.644 130.975L124.525 120.797L132.407 107.843L139.5 93.9644L148.958 80.0854L157.627 67.1317L167.873 57.879L182.059 49.5516L194.669 45.8505L208.068 44H215.949L226.983 45.8505L237.229 47.701L249.839 52.3274L258.508 57.879L268.754 67.1317L275.847 78.2349L279 91.1886V110.619L274.271 131.9L268 155Z" fill="#C2DAF4"/>
<path d="M529.611 202.042V170.787V144.84H583.865V170.787L584.154 173.736M588.582 216.784L586.813 200.862L585.888 191.427M588.582 216.784L591.531 233.886H598.607L608.043 232.117L616.888 226.22L621.606 218.554L624.555 210.887V202.042V192.606L619.837 182.581L614.53 176.094L606.274 170.787L598.607 169.608L584.154 173.736M588.582 216.784L593.89 220.323L601.556 222.092L608.043 216.784L610.991 209.708L612.171 202.042V196.145L609.222 189.658L603.915 182.581L598.607 181.402L591.531 184.94L585.888 191.427M584.154 173.736L585.888 191.427" stroke="white" stroke-width="3"/>
<path d="M534.329 204.4L530.791 200.862L534.329 199.093L540.226 197.324L551.431 196.145H559.097H567.353L575.019 196.734L582.685 197.914L586.224 200.272L585.634 200.862L583.275 203.221L577.968 205.58L572.071 206.17L564.994 206.759H557.606H549.662L540.816 206.17L534.329 204.4Z" fill="#BEA60A" stroke="white" stroke-width="3"/>
<path d="M528.431 219.144L529.611 200.863L534.328 204.401L537.867 205.581L542.584 206.17L549.661 206.76H555.558H564.993L570.891 206.17L577.377 205.581L581.505 203.812L584.454 202.042L585.633 199.684L586.813 200.273L591.53 233.297L593.299 240.374L595.658 255.706L598.607 268.68L604.504 282.243L613.35 296.396L621.016 306.421L629.861 317.036L642.245 332.368L653.45 346.521L665.244 365.982L673.5 383.673L587.992 514.589H567.942H549.661L529.021 512.23L516.047 508.102L503.074 501.025L491.869 493.949L481.844 485.103L472.409 476.257L465.332 466.232L457.666 453.259L451.179 436.157L450 418.466L451.179 401.954L455.897 385.442L464.743 365.982L475.947 346.521L492.459 320.574L508.381 296.396L516.637 279.294L522.534 260.424L526.662 237.425L528.431 219.144Z" fill="#D9C335" stroke="white" stroke-width="3"/>
<path d="M534.917 132.456H529.02L525.482 134.226L523.713 137.764V141.302L525.482 143.071L527.251 144.84H586.222L588.581 142.482L589.76 138.943L588.581 135.995L585.043 133.046L583.274 132.456H576.197M534.917 132.456V121.842M534.917 132.456H576.197M534.917 121.842L532.559 117.714L535.507 113.586H546.122M534.917 121.842H576.197M576.197 121.842L579.146 117.714L576.197 113.586H561.159M576.197 121.842V132.456M546.122 113.586V88.8179L544.353 81.1517L540.225 71.1266L536.687 62.8707L533.738 55.2045M546.122 113.586H561.159M533.738 55.2045L531.379 51.0765L533.148 48.128L537.276 45.1794L541.404 44L544.353 45.1794L545.532 47.5383M533.738 55.2045L545.532 47.5383M545.532 47.5383L551.429 57.5633L556.147 68.1781L559.095 78.2032L561.454 88.8179L561.159 113.586" stroke="white" stroke-width="3"/>
<path d="M1471.92 1024.05L1493.91 986.299L1497.05 981.58L1504.12 973.715L1516.68 961.132L1530.82 947.762L1540.24 939.897L1550.45 932.819L1561.45 926.527L1574.8 919.448L1585.01 914.73L1595.21 910.797L1606.21 906.865L1617.2 903.719L1628.98 901.359L1641.55 899.786L1654.9 899H1671.39L1685.53 901.359L1693.38 903.719L1704.37 909.224L1709.08 912.37L1716.15 917.875L1722.44 924.167L1727.15 930.459L1731.86 939.897L1734.21 947.762L1735 956.413V966.637L1732.64 976.075L1728.72 985.512L1722.44 993.377L1716.15 998.883L1706.73 1005.17L1696.52 1009.89L1685.53 1013.83L1669.82 1017.76L1650.97 1024.05L1636.84 1030.34L1628.2 1036.63L1618.77 1046.07L1610.92 1054.72L1603.07 1065.73L1596 1077.53L1586.58 1089.33L1577.94 1100.34L1567.73 1108.2L1553.59 1115.28L1541.03 1118.43L1527.68 1120H1519.82L1508.83 1118.43L1498.62 1116.85L1486.06 1112.92L1477.42 1108.2L1467.21 1100.34L1460.14 1090.9L1457 1079.89V1063.37L1461.71 1045.28L1471.92 1024.05Z" fill="#C2DAF4" stroke="#C2DAF4" stroke-width="3"/>
<path d="M1351 238.042L1356.5 319.131" stroke="white" stroke-width="5"/>
<path d="M1475 153L1470 234.401" stroke="white" stroke-width="5"/>
<path d="M1293 150L1299.08 232.994" stroke="white" stroke-width="5"/>
<path d="M1293 151.5L1298.5 146L1308 142L1319.5 139L1332 136.5L1344.5 135L1358.5 133.5L1373.5 133H1385.5H1398L1414.5 134L1428.5 135.5L1445 138L1458 142L1469 146.5L1475 151V153.5L1467.5 159L1459 163.5L1446.5 167L1430.5 170L1417 171.5L1407 172H1393H1378.5H1364L1354 171.5L1341 170.5L1331 169L1317 166.5L1308 164L1299.5 160.5L1293.5 154" stroke="white" stroke-width="5"/>
<path d="M1304 224L1301.5 226.5L1299.14 229.336L1304.5 235L1309 238L1314 239.5L1338.5 245L1356.5 247.5H1385L1408 247L1429 244L1444 241.5L1459 237L1469.5 229.336L1469.5 228L1462.5 224L1458 221.5L1451.5 219L1447 217.5L1438 215.5L1427 214.5L1417.5 213.5L1407 213L1396 212.5H1380.5H1371.5H1363H1354L1346.5 213.5L1339 214.5L1331.5 215.5L1324 217L1317.5 218.5L1312 220L1308 221.5L1304 224Z" fill="#8EA8DB" stroke="white" stroke-width="5"/>
<path d="M1432 461L1438.5 459.5L1446 458L1455 454.5L1470.5 227.5L1464.75 233.25L1460 236L1448.5 240L1440 242L1432 244L1411 246.5L1396 247H1366.5H1356.5L1347.5 245.5L1334.5 244L1322 241L1309 237.5L1298.5 230.5L1311.5 456.5L1319 458L1327.5 459.5L1338.5 461.5L1347.5 462.5L1358.5 464H1368H1379H1388.5H1397.5H1406.5L1414.5 463.5L1425.5 462L1432 461Z" fill="#6CA8E1" stroke="white" stroke-width="5"/>
<path d="M1311.5 457L1314 470L1318.06 477.057L1324.11 483.554L1333.19 488.549L1347.31 493.042L1364.97 495.033L1383.14 496.024L1395.75 496.018L1409.37 495.011L1421.99 493.004L1434.6 488.497L1443.18 483.493L1449.75 476.989L1453 467.5L1455 455" stroke="white" stroke-width="5"/>
<path d="M1341.94 303.969L1346.32 282.562H1351.22L1344.66 311H1339.93L1334.52 290.238L1328.99 311H1324.25L1317.68 282.562H1322.59L1327 303.93L1332.43 282.562H1336.57L1341.94 303.969ZM1369.89 304.379H1358.88L1356.57 311H1351.43L1362.18 282.562H1366.61L1377.37 311H1372.21L1369.89 304.379ZM1360.26 300.395H1368.5L1364.38 288.598L1360.26 300.395ZM1398.82 286.547H1389.95V311H1385.05V286.547H1376.26V282.562H1398.82V286.547ZM1419.19 298.305H1407.51V307.055H1421.16V311H1402.57V282.562H1421.02V286.547H1407.51V294.398H1419.19V298.305ZM1435.63 300.043H1430.12V311H1425.18V282.562H1435.18C1438.46 282.562 1441 283.298 1442.78 284.77C1444.57 286.241 1445.46 288.37 1445.46 291.156C1445.46 293.057 1444.99 294.652 1444.07 295.941C1443.16 297.217 1441.88 298.201 1440.24 298.891L1446.63 310.746V311H1441.34L1435.63 300.043ZM1430.12 296.078H1435.2C1436.87 296.078 1438.17 295.661 1439.11 294.828C1440.05 293.982 1440.52 292.829 1440.52 291.371C1440.52 289.848 1440.08 288.669 1439.21 287.836C1438.35 287.003 1437.06 286.573 1435.34 286.547H1430.12V296.078Z" fill="white"/>
<path d="M559.312 380.523C559.312 383.31 558.831 385.758 557.867 387.867C556.904 389.964 555.523 391.578 553.727 392.711C551.943 393.831 549.885 394.391 547.555 394.391C545.25 394.391 543.193 393.831 541.383 392.711C539.586 391.578 538.193 389.97 537.203 387.887C536.227 385.803 535.732 383.401 535.719 380.68V379.078C535.719 376.305 536.207 373.857 537.184 371.734C538.173 369.612 539.56 367.991 541.344 366.871C543.141 365.738 545.198 365.172 547.516 365.172C549.833 365.172 551.884 365.732 553.668 366.852C555.465 367.958 556.852 369.56 557.828 371.656C558.805 373.74 559.299 376.168 559.312 378.941V380.523ZM554.371 379.039C554.371 375.888 553.772 373.473 552.574 371.793C551.389 370.113 549.703 369.273 547.516 369.273C545.38 369.273 543.707 370.113 542.496 371.793C541.298 373.46 540.686 375.823 540.66 378.883V380.523C540.66 383.648 541.266 386.064 542.477 387.77C543.701 389.475 545.393 390.328 547.555 390.328C549.742 390.328 551.422 389.495 552.594 387.828C553.779 386.161 554.371 383.727 554.371 380.523V379.039ZM569.449 394H564.527V365.562H569.449V394ZM580.465 390.055H593.375V394H575.523V365.562H580.465V390.055Z" fill="white"/>
<path d="M969 808.5V315.5L1060.5 326L1111.5 343L1158 367L1195.5 391L1228.5 418.5L1289 492.5L1324 568L1343.5 649V733L1324 808.5H969Z" fill="#D41326" stroke="#00A8FF"/>
<path d="M969 1065V807.5H1322.5L1308.5 852L1281.5 899L1243.5 946.5L1199 988L1149.5 1020L1087.5 1047L1028 1061L969 1065Z" fill="#00C590" fill-opacity="0.9" stroke="#00A8FF"/>
<path d="M970 686V315L898.5 321.183L827 342.31L768 373.742L712.5 419.086L667.5 470.099L630 532.447L603.5 604.071L594 686H970Z" fill="#1261A0" fill-opacity="0.9" stroke="#00A8FF"/>
<path d="M1371 691C1371 914.233 1190.91 1095 969 1095C747.092 1095 567 914.233 567 691C567 467.767 747.092 287 969 287C1190.91 287 1371 467.767 1371 691Z" stroke="#00A8FF" stroke-width="50"/>
<path d="M1324.5 808L969 808" stroke="white" stroke-width="10"/>
<path d="M1038.42 601.809L1045.65 579.562H1051.08L1040.84 608H1036.06L1025.86 579.562H1031.27L1038.42 601.809ZM1070.92 595.305H1059.24V604.055H1072.89V608H1054.3V579.562H1072.76V583.547H1059.24V591.398H1070.92V595.305ZM1098.71 604.309C1097.69 605.65 1096.26 606.665 1094.44 607.355C1092.61 608.046 1090.54 608.391 1088.23 608.391C1085.84 608.391 1083.73 607.85 1081.9 606.77C1080.06 605.689 1078.64 604.146 1077.64 602.141C1076.65 600.122 1076.14 597.772 1076.1 595.09V592.863C1076.1 588.566 1077.13 585.214 1079.18 582.805C1081.24 580.383 1084.11 579.172 1087.8 579.172C1090.96 579.172 1093.47 579.953 1095.34 581.516C1097.2 583.078 1098.32 585.331 1098.7 588.273H1093.85C1093.3 584.849 1091.32 583.137 1087.89 583.137C1085.68 583.137 1083.99 583.938 1082.84 585.539C1081.69 587.128 1081.1 589.465 1081.06 592.551V594.738C1081.06 597.811 1081.7 600.201 1082.99 601.906C1084.29 603.599 1086.1 604.445 1088.4 604.445C1090.93 604.445 1092.73 603.872 1093.79 602.727V597.16H1087.93V593.41H1098.71V604.309ZM1120.77 595.305H1109.09V604.055H1122.74V608H1104.14V579.562H1122.6V583.547H1109.09V591.398H1120.77V595.305ZM1147.7 583.547H1138.83V608H1133.93V583.547H1125.14V579.562H1147.7V583.547ZM1165.02 601.379H1154.01L1151.7 608H1146.57L1157.31 579.562H1161.74L1172.5 608H1167.35L1165.02 601.379ZM1155.39 597.395H1163.64L1159.52 585.598L1155.39 597.395ZM1175.75 608V579.562H1185.49C1188.71 579.562 1191.16 580.207 1192.84 581.496C1194.52 582.785 1195.36 584.706 1195.36 587.258C1195.36 588.56 1195 589.732 1194.3 590.773C1193.6 591.815 1192.57 592.622 1191.21 593.195C1192.75 593.612 1193.94 594.4 1194.77 595.559C1195.62 596.704 1196.04 598.085 1196.04 599.699C1196.04 602.368 1195.18 604.419 1193.46 605.852C1191.76 607.284 1189.31 608 1186.12 608H1175.75ZM1180.69 595.168V604.055H1186.18C1187.73 604.055 1188.94 603.671 1189.81 602.902C1190.68 602.134 1191.12 601.066 1191.12 599.699C1191.12 596.743 1189.61 595.233 1186.59 595.168H1180.69ZM1180.69 591.535H1185.53C1187.07 591.535 1188.27 591.19 1189.12 590.5C1190 589.797 1190.43 588.807 1190.43 587.531C1190.43 586.125 1190.03 585.109 1189.22 584.484C1188.43 583.859 1187.18 583.547 1185.49 583.547H1180.69V591.535ZM1205.92 604.055H1218.83V608H1200.98V579.562H1205.92V604.055ZM1239.24 595.305H1227.56V604.055H1241.21V608H1222.62V579.562H1241.08V583.547H1227.56V591.398H1239.24V595.305ZM1260.1 600.676C1260.1 599.426 1259.66 598.462 1258.77 597.785C1257.9 597.108 1256.32 596.424 1254.03 595.734C1251.74 595.044 1249.91 594.276 1248.56 593.43C1245.97 591.802 1244.67 589.68 1244.67 587.062C1244.67 584.771 1245.6 582.883 1247.46 581.398C1249.34 579.914 1251.77 579.172 1254.75 579.172C1256.73 579.172 1258.49 579.536 1260.04 580.266C1261.59 580.995 1262.81 582.036 1263.7 583.391C1264.58 584.732 1265.02 586.223 1265.02 587.863H1260.1C1260.1 586.379 1259.63 585.22 1258.7 584.387C1257.77 583.54 1256.44 583.117 1254.71 583.117C1253.1 583.117 1251.84 583.462 1250.94 584.152C1250.06 584.842 1249.61 585.806 1249.61 587.043C1249.61 588.085 1250.1 588.957 1251.06 589.66C1252.02 590.35 1253.61 591.027 1255.82 591.691C1258.04 592.342 1259.82 593.091 1261.16 593.938C1262.5 594.771 1263.48 595.734 1264.11 596.828C1264.73 597.909 1265.04 599.178 1265.04 600.637C1265.04 603.007 1264.13 604.895 1262.31 606.301C1260.5 607.694 1258.04 608.391 1254.93 608.391C1252.87 608.391 1250.97 608.013 1249.24 607.258C1247.52 606.49 1246.18 605.435 1245.22 604.094C1244.27 602.753 1243.79 601.19 1243.79 599.406H1248.73C1248.73 601.021 1249.27 602.271 1250.34 603.156C1251.4 604.042 1252.93 604.484 1254.93 604.484C1256.64 604.484 1257.93 604.139 1258.79 603.449C1259.67 602.746 1260.1 601.822 1260.1 600.676ZM1117.82 639.023L1120.16 639.043C1121.88 639.043 1123.32 638.594 1124.5 637.695C1125.68 636.784 1126.36 635.553 1126.53 634.004C1126.7 632.493 1126.42 631.309 1125.69 630.449C1124.96 629.577 1123.9 629.128 1122.5 629.102C1121.02 629.076 1119.76 629.512 1118.71 630.41C1117.69 631.296 1117.05 632.493 1116.82 634.004L1113.32 634.023C1113.55 631.68 1114.54 629.779 1116.31 628.32C1118.1 626.849 1120.22 626.126 1122.68 626.152C1125.06 626.204 1126.93 626.953 1128.29 628.398C1129.65 629.831 1130.24 631.725 1130.06 634.082C1129.95 635.423 1129.43 636.647 1128.52 637.754C1127.61 638.861 1126.35 639.779 1124.73 640.508C1126.02 641.029 1126.98 641.855 1127.62 642.988C1128.26 644.108 1128.53 645.423 1128.42 646.934C1128.21 649.499 1127.19 651.562 1125.36 653.125C1123.53 654.688 1121.31 655.443 1118.7 655.391C1116.26 655.339 1114.32 654.583 1112.88 653.125C1111.43 651.667 1110.76 649.785 1110.86 647.48L1114.4 647.5C1114.32 648.958 1114.67 650.137 1115.45 651.035C1116.23 651.921 1117.37 652.389 1118.85 652.441C1120.52 652.493 1121.9 652.018 1123.01 651.016C1124.12 650.013 1124.75 648.672 1124.91 646.992C1125.05 645.443 1124.7 644.238 1123.85 643.379C1123.01 642.507 1121.74 642.044 1120.06 641.992L1117.35 641.973L1117.82 639.023ZM1140.9 655.391C1138.51 655.339 1136.71 654.492 1135.51 652.852C1134.31 651.198 1133.77 648.822 1133.87 645.723C1133.9 644.759 1133.97 643.809 1134.09 642.871L1134.79 638.125C1135.41 634.076 1136.61 631.055 1138.36 629.062C1140.12 627.07 1142.44 626.107 1145.32 626.172C1147.74 626.224 1149.54 627.057 1150.73 628.672C1151.92 630.273 1152.48 632.604 1152.39 635.664C1152.35 636.641 1152.27 637.598 1152.15 638.535L1151.47 643.125C1150.78 647.409 1149.56 650.54 1147.82 652.52C1146.07 654.499 1143.77 655.456 1140.9 655.391ZM1148.73 637.891C1148.92 636.315 1149 635.091 1148.99 634.219C1148.92 630.911 1147.64 629.212 1145.14 629.121C1143.32 629.056 1141.84 629.733 1140.71 631.152C1139.59 632.559 1138.81 634.772 1138.36 637.793L1137.52 643.457C1137.34 644.967 1137.26 646.198 1137.27 647.148C1137.33 650.599 1138.61 652.37 1141.1 652.461C1142.83 652.539 1144.26 651.901 1145.38 650.547C1146.51 649.193 1147.32 647.044 1147.8 644.102L1148.73 637.891ZM1163.93 626.133C1165.51 626.185 1166.76 626.764 1167.68 627.871C1168.62 628.965 1169.03 630.352 1168.93 632.031L1168.81 633.535C1168.62 635.28 1167.93 636.706 1166.74 637.812C1165.57 638.919 1164.17 639.447 1162.54 639.395C1160.97 639.368 1159.7 638.796 1158.75 637.676C1157.8 636.556 1157.38 635.176 1157.48 633.535L1157.6 632.285C1157.77 630.41 1158.45 628.913 1159.63 627.793C1160.83 626.66 1162.26 626.107 1163.93 626.133ZM1160.12 633.574C1160.06 634.629 1160.24 635.469 1160.69 636.094C1161.14 636.706 1161.79 637.025 1162.62 637.051C1163.51 637.077 1164.27 636.764 1164.93 636.113C1165.59 635.449 1165.99 634.59 1166.14 633.535L1166.31 632.012C1166.4 631.022 1166.23 630.195 1165.8 629.531C1165.38 628.867 1164.72 628.522 1163.85 628.496C1162.95 628.47 1162.17 628.789 1161.51 629.453C1160.84 630.117 1160.44 630.977 1160.3 632.031L1160.12 633.574ZM1174.57 642.148C1176.19 642.201 1177.46 642.786 1178.38 643.906C1179.31 645.013 1179.72 646.387 1179.61 648.027L1179.5 649.336C1179.33 651.172 1178.65 652.663 1177.46 653.809C1176.29 654.941 1174.87 655.482 1173.21 655.43C1171.64 655.404 1170.38 654.837 1169.42 653.73C1168.47 652.624 1168.04 651.23 1168.15 649.551L1168.27 648.223C1168.43 646.413 1169.1 644.941 1170.26 643.809C1171.42 642.676 1172.86 642.122 1174.57 642.148ZM1170.79 649.59C1170.72 650.632 1170.9 651.471 1171.33 652.109C1171.77 652.734 1172.43 653.06 1173.29 653.086C1174.2 653.112 1174.97 652.793 1175.61 652.129C1176.26 651.465 1176.66 650.605 1176.8 649.551L1176.98 648.008C1177.07 647.031 1176.9 646.211 1176.47 645.547C1176.04 644.883 1175.39 644.538 1174.52 644.512C1173.59 644.486 1172.8 644.805 1172.15 645.469C1171.5 646.133 1171.1 646.986 1170.96 648.027L1170.79 649.59ZM1160.71 652.812L1158.77 651.406L1175.98 629.375L1177.91 630.762L1160.71 652.812Z" fill="white"/>
<path d="M970 686H591L593.003 753.782L610.025 823.016L642.067 887.894L689.129 949.382L751.712 1002.64L827.812 1040.89L898.406 1061.71L970 1068V686Z" fill="#FEA800" stroke="#00A8FF"/>
<path d="M1081.84 887.949H1070.39V900H1065.45V871.562H1083.52V875.547H1070.39V884.004H1081.84V887.949ZM1097.89 889.043H1092.39V900H1087.45V871.562H1097.45C1100.73 871.562 1103.26 872.298 1105.04 873.77C1106.83 875.241 1107.72 877.37 1107.72 880.156C1107.72 882.057 1107.26 883.652 1106.33 884.941C1105.42 886.217 1104.14 887.201 1102.5 887.891L1108.89 899.746V900H1103.6L1097.89 889.043ZM1092.39 885.078H1097.46C1099.13 885.078 1100.43 884.661 1101.37 883.828C1102.31 882.982 1102.78 881.829 1102.78 880.371C1102.78 878.848 1102.34 877.669 1101.47 876.836C1100.61 876.003 1099.32 875.573 1097.6 875.547H1092.39V885.078ZM1133.21 871.562V890.566C1133.21 893.587 1132.24 895.983 1130.3 897.754C1128.37 899.512 1125.8 900.391 1122.58 900.391C1119.33 900.391 1116.74 899.525 1114.83 897.793C1112.91 896.048 1111.96 893.633 1111.96 890.547V871.562H1116.88V890.586C1116.88 892.487 1117.36 893.939 1118.32 894.941C1119.29 895.944 1120.71 896.445 1122.58 896.445C1126.38 896.445 1128.29 894.44 1128.29 890.43V871.562H1133.21ZM1143.71 900H1138.79V871.562H1143.71V900ZM1169.75 875.547H1160.88V900H1155.98V875.547H1147.19V871.562H1169.75V875.547ZM1188.05 892.676C1188.05 891.426 1187.61 890.462 1186.72 889.785C1185.85 889.108 1184.27 888.424 1181.98 887.734C1179.68 887.044 1177.86 886.276 1176.51 885.43C1173.92 883.802 1172.62 881.68 1172.62 879.062C1172.62 876.771 1173.55 874.883 1175.41 873.398C1177.29 871.914 1179.72 871.172 1182.7 871.172C1184.68 871.172 1186.44 871.536 1187.99 872.266C1189.54 872.995 1190.76 874.036 1191.64 875.391C1192.53 876.732 1192.97 878.223 1192.97 879.863H1188.05C1188.05 878.379 1187.58 877.22 1186.64 876.387C1185.72 875.54 1184.39 875.117 1182.66 875.117C1181.05 875.117 1179.79 875.462 1178.89 876.152C1178.01 876.842 1177.56 877.806 1177.56 879.043C1177.56 880.085 1178.04 880.957 1179.01 881.66C1179.97 882.35 1181.56 883.027 1183.77 883.691C1185.99 884.342 1187.76 885.091 1189.11 885.938C1190.45 886.771 1191.43 887.734 1192.05 888.828C1192.68 889.909 1192.99 891.178 1192.99 892.637C1192.99 895.007 1192.08 896.895 1190.26 898.301C1188.45 899.694 1185.99 900.391 1182.88 900.391C1180.82 900.391 1178.92 900.013 1177.19 899.258C1175.47 898.49 1174.13 897.435 1173.17 896.094C1172.22 894.753 1171.74 893.19 1171.74 891.406H1176.68C1176.68 893.021 1177.22 894.271 1178.29 895.156C1179.35 896.042 1180.88 896.484 1182.88 896.484C1184.59 896.484 1185.88 896.139 1186.74 895.449C1187.61 894.746 1188.05 893.822 1188.05 892.676ZM1110.75 947H1092.64L1093.07 944.246L1103.56 934.051L1105.47 932.156C1107.67 929.956 1108.89 927.924 1109.12 926.062C1109.29 924.63 1109.01 923.465 1108.29 922.566C1107.56 921.655 1106.53 921.173 1105.2 921.121C1103.49 921.069 1102.07 921.57 1100.92 922.625C1099.78 923.667 1099.08 925.099 1098.83 926.922L1095.34 926.941C1095.51 925.197 1096.04 923.654 1096.94 922.312C1097.85 920.958 1099.04 919.923 1100.51 919.207C1102 918.478 1103.6 918.133 1105.34 918.172C1107.69 918.224 1109.56 918.94 1110.94 920.32C1112.33 921.688 1112.93 923.465 1112.74 925.652C1112.52 928.152 1111.08 930.783 1108.42 933.543L1106.62 935.359L1097.48 944.051H1111.21L1110.75 947ZM1123.4 947.391C1121.01 947.339 1119.21 946.492 1118.01 944.852C1116.81 943.198 1116.27 940.822 1116.37 937.723C1116.4 936.759 1116.47 935.809 1116.59 934.871L1117.29 930.125C1117.91 926.076 1119.11 923.055 1120.86 921.062C1122.62 919.07 1124.94 918.107 1127.82 918.172C1130.24 918.224 1132.04 919.057 1133.23 920.672C1134.42 922.273 1134.98 924.604 1134.89 927.664C1134.85 928.641 1134.77 929.598 1134.65 930.535L1133.97 935.125C1133.28 939.409 1132.06 942.54 1130.32 944.52C1128.57 946.499 1126.27 947.456 1123.4 947.391ZM1131.23 929.891C1131.42 928.315 1131.5 927.091 1131.49 926.219C1131.42 922.911 1130.14 921.212 1127.64 921.121C1125.82 921.056 1124.34 921.733 1123.21 923.152C1122.09 924.559 1121.31 926.772 1120.86 929.793L1120.02 935.457C1119.84 936.967 1119.76 938.198 1119.77 939.148C1119.83 942.599 1121.11 944.37 1123.6 944.461C1125.33 944.539 1126.76 943.901 1127.88 942.547C1129.01 941.193 1129.82 939.044 1130.3 936.102L1131.23 929.891ZM1146.43 918.133C1148.01 918.185 1149.26 918.764 1150.18 919.871C1151.12 920.965 1151.53 922.352 1151.43 924.031L1151.31 925.535C1151.12 927.28 1150.43 928.706 1149.24 929.812C1148.07 930.919 1146.67 931.447 1145.04 931.395C1143.47 931.368 1142.2 930.796 1141.25 929.676C1140.3 928.556 1139.88 927.176 1139.98 925.535L1140.1 924.285C1140.27 922.41 1140.95 920.913 1142.13 919.793C1143.33 918.66 1144.76 918.107 1146.43 918.133ZM1142.62 925.574C1142.56 926.629 1142.74 927.469 1143.19 928.094C1143.64 928.706 1144.29 929.025 1145.12 929.051C1146.01 929.077 1146.77 928.764 1147.43 928.113C1148.09 927.449 1148.49 926.59 1148.64 925.535L1148.81 924.012C1148.9 923.022 1148.73 922.195 1148.3 921.531C1147.88 920.867 1147.22 920.522 1146.35 920.496C1145.45 920.47 1144.67 920.789 1144.01 921.453C1143.34 922.117 1142.94 922.977 1142.8 924.031L1142.62 925.574ZM1157.07 934.148C1158.69 934.201 1159.96 934.786 1160.88 935.906C1161.81 937.013 1162.22 938.387 1162.11 940.027L1162 941.336C1161.83 943.172 1161.15 944.663 1159.96 945.809C1158.79 946.941 1157.37 947.482 1155.71 947.43C1154.14 947.404 1152.88 946.837 1151.92 945.73C1150.97 944.624 1150.54 943.23 1150.65 941.551L1150.77 940.223C1150.93 938.413 1151.6 936.941 1152.76 935.809C1153.92 934.676 1155.36 934.122 1157.07 934.148ZM1153.29 941.59C1153.22 942.632 1153.4 943.471 1153.83 944.109C1154.27 944.734 1154.93 945.06 1155.79 945.086C1156.7 945.112 1157.47 944.793 1158.11 944.129C1158.76 943.465 1159.16 942.605 1159.3 941.551L1159.48 940.008C1159.57 939.031 1159.4 938.211 1158.97 937.547C1158.54 936.883 1157.89 936.538 1157.02 936.512C1156.09 936.486 1155.3 936.805 1154.65 937.469C1154 938.133 1153.6 938.986 1153.46 940.027L1153.29 941.59ZM1143.21 944.812L1141.27 943.406L1158.48 921.375L1160.41 922.762L1143.21 944.812Z" fill="white"/>
<path d="M730.789 828.434V839H725.848V810.562H736.727C739.904 810.562 742.423 811.389 744.285 813.043C746.16 814.697 747.098 816.884 747.098 819.605C747.098 822.392 746.18 824.56 744.344 826.109C742.521 827.659 739.962 828.434 736.668 828.434H730.789ZM730.789 824.469H736.727C738.484 824.469 739.826 824.059 740.75 823.238C741.674 822.405 742.137 821.207 742.137 819.645C742.137 818.108 741.668 816.884 740.73 815.973C739.793 815.048 738.504 814.573 736.863 814.547H730.789V824.469ZM761.883 828.043H756.375V839H751.434V810.562H761.434C764.715 810.562 767.247 811.298 769.031 812.77C770.815 814.241 771.707 816.37 771.707 819.156C771.707 821.057 771.245 822.652 770.32 823.941C769.409 825.217 768.133 826.201 766.492 826.891L772.879 838.746V839H767.586L761.883 828.043ZM756.375 824.078H761.453C763.12 824.078 764.422 823.661 765.359 822.828C766.297 821.982 766.766 820.829 766.766 819.371C766.766 817.848 766.329 816.669 765.457 815.836C764.598 815.003 763.309 814.573 761.59 814.547H756.375V824.078ZM799.09 825.523C799.09 828.31 798.608 830.758 797.645 832.867C796.681 834.964 795.301 836.578 793.504 837.711C791.72 838.831 789.663 839.391 787.332 839.391C785.027 839.391 782.97 838.831 781.16 837.711C779.363 836.578 777.97 834.97 776.98 832.887C776.004 830.803 775.509 828.401 775.496 825.68V824.078C775.496 821.305 775.984 818.857 776.961 816.734C777.951 814.612 779.337 812.991 781.121 811.871C782.918 810.738 784.975 810.172 787.293 810.172C789.611 810.172 791.661 810.732 793.445 811.852C795.242 812.958 796.629 814.56 797.605 816.656C798.582 818.74 799.077 821.168 799.09 823.941V825.523ZM794.148 824.039C794.148 820.888 793.549 818.473 792.352 816.793C791.167 815.113 789.48 814.273 787.293 814.273C785.158 814.273 783.484 815.113 782.273 816.793C781.076 818.46 780.464 820.823 780.438 823.883V825.523C780.438 828.648 781.043 831.064 782.254 832.77C783.478 834.475 785.171 835.328 787.332 835.328C789.52 835.328 791.199 834.495 792.371 832.828C793.556 831.161 794.148 828.727 794.148 825.523V824.039ZM822.879 814.547H814.012V839H809.109V814.547H800.32V810.562H822.879V814.547ZM843.25 826.305H831.57V835.055H845.223V839H826.629V810.562H845.086V814.547H831.57V822.398H843.25V826.305ZM854.461 839H849.539V810.562H854.461V839ZM883.094 839H878.152L865.477 818.824V839H860.535V810.562H865.477L878.191 830.816V810.562H883.094V839ZM786.746 886H768.641L769.07 883.246L779.559 873.051L781.473 871.156C783.673 868.956 784.891 866.924 785.125 865.062C785.294 863.63 785.014 862.465 784.285 861.566C783.556 860.655 782.527 860.173 781.199 860.121C779.493 860.069 778.068 860.57 776.922 861.625C775.776 862.667 775.079 864.099 774.832 865.922L771.336 865.941C771.505 864.197 772.039 862.654 772.938 861.312C773.849 859.958 775.04 858.923 776.512 858.207C777.996 857.478 779.604 857.133 781.336 857.172C783.693 857.224 785.561 857.94 786.941 859.32C788.335 860.688 788.934 862.465 788.738 864.652C788.517 867.152 787.078 869.783 784.422 872.543L782.625 874.359L773.484 883.051H787.215L786.746 886ZM794.461 871.684L798.074 857.562H812.254L811.727 860.902H800.594L798.406 868.676C799.839 867.829 801.388 867.419 803.055 867.445C805.411 867.471 807.221 868.363 808.484 870.121C809.747 871.866 810.262 874.092 810.027 876.801C809.78 879.717 808.745 882.061 806.922 883.832C805.099 885.603 802.827 886.462 800.105 886.41C797.84 886.384 796.01 885.655 794.617 884.223C793.224 882.79 792.488 880.883 792.41 878.5H795.711C795.802 880.062 796.245 881.273 797.039 882.133C797.833 882.992 798.908 883.435 800.262 883.461C801.928 883.513 803.328 882.921 804.461 881.684C805.607 880.447 806.284 878.826 806.492 876.82C806.674 875.062 806.368 873.617 805.574 872.484C804.78 871.339 803.615 870.74 802.078 870.688C801.128 870.661 800.281 870.805 799.539 871.117C798.81 871.43 798.081 871.879 797.352 872.465L794.461 871.684ZM822.43 857.133C824.005 857.185 825.255 857.764 826.18 858.871C827.117 859.965 827.534 861.352 827.43 863.031L827.312 864.535C827.117 866.28 826.427 867.706 825.242 868.812C824.07 869.919 822.671 870.447 821.043 870.395C819.467 870.368 818.204 869.796 817.254 868.676C816.303 867.556 815.88 866.176 815.984 864.535L816.102 863.285C816.271 861.41 816.948 859.913 818.133 858.793C819.331 857.66 820.763 857.107 822.43 857.133ZM818.621 864.574C818.556 865.629 818.745 866.469 819.188 867.094C819.643 867.706 820.288 868.025 821.121 868.051C822.007 868.077 822.775 867.764 823.426 867.113C824.09 866.449 824.493 865.59 824.637 864.535L824.812 863.012C824.904 862.022 824.734 861.195 824.305 860.531C823.875 859.867 823.224 859.522 822.352 859.496C821.453 859.47 820.672 859.789 820.008 860.453C819.344 861.117 818.94 861.977 818.797 863.031L818.621 864.574ZM833.074 873.148C834.689 873.201 835.958 873.786 836.883 874.906C837.807 876.013 838.217 877.387 838.113 879.027L837.996 880.336C837.827 882.172 837.15 883.663 835.965 884.809C834.793 885.941 833.374 886.482 831.707 886.43C830.145 886.404 828.882 885.837 827.918 884.73C826.967 883.624 826.544 882.23 826.648 880.551L826.766 879.223C826.935 877.413 827.599 875.941 828.758 874.809C829.917 873.676 831.355 873.122 833.074 873.148ZM829.285 880.59C829.22 881.632 829.402 882.471 829.832 883.109C830.275 883.734 830.926 884.06 831.785 884.086C832.697 884.112 833.471 883.793 834.109 883.129C834.76 882.465 835.158 881.605 835.301 880.551L835.477 879.008C835.568 878.031 835.398 877.211 834.969 876.547C834.539 875.883 833.888 875.538 833.016 875.512C832.091 875.486 831.303 875.805 830.652 876.469C830.001 877.133 829.604 877.986 829.461 879.027L829.285 880.59ZM819.207 883.812L817.273 882.406L834.48 860.375L836.414 861.762L819.207 883.812Z" fill="white"/>
<path d="M776.441 506.969L780.816 485.562H785.719L779.156 514H774.43L769.02 493.238L763.492 514H758.746L752.184 485.562H757.086L761.5 506.93L766.93 485.562H771.07L776.441 506.969ZM811.91 514H806.988V501.363H794.273V514H789.332V485.562H794.273V497.398H806.988V485.562H811.91V514ZM840.465 500.523C840.465 503.31 839.983 505.758 839.02 507.867C838.056 509.964 836.676 511.578 834.879 512.711C833.095 513.831 831.038 514.391 828.707 514.391C826.402 514.391 824.345 513.831 822.535 512.711C820.738 511.578 819.345 509.97 818.355 507.887C817.379 505.803 816.884 503.401 816.871 500.68V499.078C816.871 496.305 817.359 493.857 818.336 491.734C819.326 489.612 820.712 487.991 822.496 486.871C824.293 485.738 826.35 485.172 828.668 485.172C830.986 485.172 833.036 485.732 834.82 486.852C836.617 487.958 838.004 489.56 838.98 491.656C839.957 493.74 840.452 496.168 840.465 498.941V500.523ZM835.523 499.039C835.523 495.888 834.924 493.473 833.727 491.793C832.542 490.113 830.855 489.273 828.668 489.273C826.533 489.273 824.859 490.113 823.648 491.793C822.451 493.46 821.839 495.823 821.812 498.883V500.523C821.812 503.648 822.418 506.064 823.629 507.77C824.853 509.475 826.546 510.328 828.707 510.328C830.895 510.328 832.574 509.495 833.746 507.828C834.931 506.161 835.523 503.727 835.523 500.523V499.039ZM850.328 510.055H863.238V514H845.387V485.562H850.328V510.055ZM883.648 501.305H871.969V510.055H885.621V514H867.027V485.562H885.484V489.547H871.969V497.398H883.648V501.305ZM772.359 557.309C771.331 558.65 769.905 559.665 768.082 560.355C766.259 561.046 764.189 561.391 761.871 561.391C759.488 561.391 757.379 560.85 755.543 559.77C753.707 558.689 752.288 557.146 751.285 555.141C750.296 553.122 749.781 550.772 749.742 548.09V545.863C749.742 541.566 750.771 538.214 752.828 535.805C754.885 533.383 757.757 532.172 761.441 532.172C764.605 532.172 767.118 532.953 768.98 534.516C770.842 536.078 771.962 538.331 772.34 541.273H767.496C766.949 537.849 764.964 536.137 761.539 536.137C759.326 536.137 757.639 536.938 756.48 538.539C755.335 540.128 754.742 542.465 754.703 545.551V547.738C754.703 550.811 755.348 553.201 756.637 554.906C757.939 556.599 759.742 557.445 762.047 557.445C764.573 557.445 766.37 556.872 767.438 555.727V550.16H761.578V546.41H772.359V557.309ZM788.238 550.043H782.73V561H777.789V532.562H787.789C791.07 532.562 793.603 533.298 795.387 534.77C797.171 536.241 798.062 538.37 798.062 541.156C798.062 543.057 797.6 544.652 796.676 545.941C795.764 547.217 794.488 548.201 792.848 548.891L799.234 560.746V561H793.941L788.238 550.043ZM782.73 546.078H787.809C789.475 546.078 790.777 545.661 791.715 544.828C792.652 543.982 793.121 542.829 793.121 541.371C793.121 539.848 792.685 538.669 791.812 537.836C790.953 537.003 789.664 536.573 787.945 536.547H782.73V546.078ZM818.668 554.379H807.652L805.348 561H800.211L810.953 532.562H815.387L826.148 561H820.992L818.668 554.379ZM809.039 550.395H817.281L813.16 538.598L809.039 550.395ZM834.605 561H829.684V532.562H834.605V561ZM863.238 561H858.297L845.621 540.824V561H840.68V532.562H845.621L858.336 552.816V532.562H863.238V561ZM883.941 553.676C883.941 552.426 883.499 551.462 882.613 550.785C881.741 550.108 880.159 549.424 877.867 548.734C875.576 548.044 873.753 547.276 872.398 546.43C869.807 544.802 868.512 542.68 868.512 540.062C868.512 537.771 869.443 535.883 871.305 534.398C873.18 532.914 875.608 532.172 878.59 532.172C880.569 532.172 882.333 532.536 883.883 533.266C885.432 533.995 886.65 535.036 887.535 536.391C888.421 537.732 888.863 539.223 888.863 540.863H883.941C883.941 539.379 883.473 538.22 882.535 537.387C881.611 536.54 880.283 536.117 878.551 536.117C876.936 536.117 875.68 536.462 874.781 537.152C873.896 537.842 873.453 538.806 873.453 540.043C873.453 541.085 873.935 541.957 874.898 542.66C875.862 543.35 877.451 544.027 879.664 544.691C881.878 545.342 883.655 546.091 884.996 546.938C886.337 547.771 887.32 548.734 887.945 549.828C888.57 550.909 888.883 552.178 888.883 553.637C888.883 556.007 887.971 557.895 886.148 559.301C884.339 560.694 881.878 561.391 878.766 561.391C876.708 561.391 874.814 561.013 873.082 560.258C871.363 559.49 870.022 558.435 869.059 557.094C868.108 555.753 867.633 554.19 867.633 552.406H872.574C872.574 554.021 873.108 555.271 874.176 556.156C875.243 557.042 876.773 557.484 878.766 557.484C880.484 557.484 881.773 557.139 882.633 556.449C883.505 555.746 883.941 554.822 883.941 553.676ZM801.246 608H783.141L783.57 605.246L794.059 595.051L795.973 593.156C798.173 590.956 799.391 588.924 799.625 587.062C799.794 585.63 799.514 584.465 798.785 583.566C798.056 582.655 797.027 582.173 795.699 582.121C793.993 582.069 792.568 582.57 791.422 583.625C790.276 584.667 789.579 586.099 789.332 587.922L785.836 587.941C786.005 586.197 786.539 584.654 787.438 583.312C788.349 581.958 789.54 580.923 791.012 580.207C792.496 579.478 794.104 579.133 795.836 579.172C798.193 579.224 800.061 579.94 801.441 581.32C802.835 582.688 803.434 584.465 803.238 586.652C803.017 589.152 801.578 591.783 798.922 594.543L797.125 596.359L787.984 605.051H801.715L801.246 608ZM808.961 593.684L812.574 579.562H826.754L826.227 582.902H815.094L812.906 590.676C814.339 589.829 815.888 589.419 817.555 589.445C819.911 589.471 821.721 590.363 822.984 592.121C824.247 593.866 824.762 596.092 824.527 598.801C824.28 601.717 823.245 604.061 821.422 605.832C819.599 607.603 817.327 608.462 814.605 608.41C812.34 608.384 810.51 607.655 809.117 606.223C807.724 604.79 806.988 602.883 806.91 600.5H810.211C810.302 602.062 810.745 603.273 811.539 604.133C812.333 604.992 813.408 605.435 814.762 605.461C816.428 605.513 817.828 604.921 818.961 603.684C820.107 602.447 820.784 600.826 820.992 598.82C821.174 597.062 820.868 595.617 820.074 594.484C819.28 593.339 818.115 592.74 816.578 592.688C815.628 592.661 814.781 592.805 814.039 593.117C813.31 593.43 812.581 593.879 811.852 594.465L808.961 593.684ZM836.93 579.133C838.505 579.185 839.755 579.764 840.68 580.871C841.617 581.965 842.034 583.352 841.93 585.031L841.812 586.535C841.617 588.28 840.927 589.706 839.742 590.812C838.57 591.919 837.171 592.447 835.543 592.395C833.967 592.368 832.704 591.796 831.754 590.676C830.803 589.556 830.38 588.176 830.484 586.535L830.602 585.285C830.771 583.41 831.448 581.913 832.633 580.793C833.831 579.66 835.263 579.107 836.93 579.133ZM833.121 586.574C833.056 587.629 833.245 588.469 833.688 589.094C834.143 589.706 834.788 590.025 835.621 590.051C836.507 590.077 837.275 589.764 837.926 589.113C838.59 588.449 838.993 587.59 839.137 586.535L839.312 585.012C839.404 584.022 839.234 583.195 838.805 582.531C838.375 581.867 837.724 581.522 836.852 581.496C835.953 581.47 835.172 581.789 834.508 582.453C833.844 583.117 833.44 583.977 833.297 585.031L833.121 586.574ZM847.574 595.148C849.189 595.201 850.458 595.786 851.383 596.906C852.307 598.013 852.717 599.387 852.613 601.027L852.496 602.336C852.327 604.172 851.65 605.663 850.465 606.809C849.293 607.941 847.874 608.482 846.207 608.43C844.645 608.404 843.382 607.837 842.418 606.73C841.467 605.624 841.044 604.23 841.148 602.551L841.266 601.223C841.435 599.413 842.099 597.941 843.258 596.809C844.417 595.676 845.855 595.122 847.574 595.148ZM843.785 602.59C843.72 603.632 843.902 604.471 844.332 605.109C844.775 605.734 845.426 606.06 846.285 606.086C847.197 606.112 847.971 605.793 848.609 605.129C849.26 604.465 849.658 603.605 849.801 602.551L849.977 601.008C850.068 600.031 849.898 599.211 849.469 598.547C849.039 597.883 848.388 597.538 847.516 597.512C846.591 597.486 845.803 597.805 845.152 598.469C844.501 599.133 844.104 599.986 843.961 601.027L843.785 602.59ZM833.707 605.812L831.773 604.406L848.98 582.375L850.914 583.762L833.707 605.812Z" fill="white"/>
<line x1="968" y1="686" x2="588" y2="686" stroke="white" stroke-width="10"/>
<line x1="969" y1="310" x2="969" y2="1071" stroke="white" stroke-width="10"/>
<circle cx="967.5" cy="690.5" r="375.5" stroke="white" stroke-width="10"/>
</svg>
