<svg width="590" height="88" viewBox="0 0 590 88" fill="none" xmlns="http://www.w3.org/2000/svg">
<line x1="32" y1="50.5654" x2="32" y2="25.0002" stroke="#5DCDCE" stroke-width="4" stroke-linecap="round"/>
<line x1="79.3047" y1="50.5654" x2="79.3047" y2="25.0002" stroke="#5DCDCE" stroke-width="4" stroke-linecap="round"/>
<line x1="20.1738" y1="50.5654" x2="20.1738" y2="25.0002" stroke="#5DCDCE" stroke-width="4" stroke-linecap="round"/>
<line x1="8.34766" y1="50.5654" x2="8.34766" y2="25.0002" stroke="#5DCDCE" stroke-width="4" stroke-linecap="round"/>
<line x1="67.4785" y1="50.5654" x2="67.4785" y2="25.0002" stroke="#5DCDCE" stroke-width="4" stroke-linecap="round"/>
<line x1="55.6523" y1="50.5654" x2="55.6523" y2="25.0002" stroke="#5DCDCE" stroke-width="4" stroke-linecap="round"/>
<line x1="43.8262" y1="50.5654" x2="43.8262" y2="25.0002" stroke="#5DCDCE" stroke-width="4" stroke-linecap="round"/>
<line x1="114.782" y1="50.5654" x2="114.782" y2="25.0002" stroke="#55AB81" stroke-width="4" stroke-linecap="round"/>
<line x1="162.087" y1="50.5654" x2="162.087" y2="25.0002" stroke="#55AB81" stroke-width="4" stroke-linecap="round"/>
<line x1="102.956" y1="50.5654" x2="102.956" y2="25.0002" stroke="#55AB81" stroke-width="4" stroke-linecap="round"/>
<line x1="91.1309" y1="50.5654" x2="91.1309" y2="25.0002" stroke="#55AB81" stroke-width="4" stroke-linecap="round"/>
<line x1="150.261" y1="50.5654" x2="150.261" y2="25.0002" stroke="#55AB81" stroke-width="4" stroke-linecap="round"/>
<line x1="138.435" y1="50.5654" x2="138.435" y2="25.0002" stroke="#55AB81" stroke-width="4" stroke-linecap="round"/>
<line x1="126.608" y1="50.5654" x2="126.608" y2="25.0002" stroke="#55AB81" stroke-width="4" stroke-linecap="round"/>
<line x1="197.565" y1="50.5654" x2="197.565" y2="25.0002" stroke="#55AB81" stroke-width="4" stroke-linecap="round"/>
<line x1="244.869" y1="50.5654" x2="244.869" y2="25.0002" stroke="#55AB81" stroke-width="4" stroke-linecap="round"/>
<line x1="185.739" y1="50.5654" x2="185.739" y2="25.0002" stroke="#55AB81" stroke-width="4" stroke-linecap="round"/>
<line x1="173.913" y1="50.5654" x2="173.913" y2="25.0002" stroke="#55AB81" stroke-width="4" stroke-linecap="round"/>
<line x1="233.044" y1="50.5654" x2="233.044" y2="25.0002" stroke="#55AB81" stroke-width="4" stroke-linecap="round"/>
<line x1="221.218" y1="50.5654" x2="221.218" y2="25.0002" stroke="#55AB81" stroke-width="4" stroke-linecap="round"/>
<line x1="209.392" y1="50.5654" x2="209.392" y2="25.0002" stroke="#55AB81" stroke-width="4" stroke-linecap="round"/>
<line x1="292.174" y1="50.5654" x2="292.174" y2="25.0002" stroke="#FEDC00" stroke-width="4" stroke-linecap="round"/>
<line x1="280.348" y1="50.5654" x2="280.348" y2="25.0002" stroke="#FEDC00" stroke-width="4" stroke-linecap="round"/>
<line x1="268.521" y1="50.5654" x2="268.521" y2="25.0002" stroke="#FEDC00" stroke-width="4" stroke-linecap="round"/>
<line x1="256.695" y1="50.5654" x2="256.695" y2="25.0002" stroke="#FEDC00" stroke-width="4" stroke-linecap="round"/>
<line x1="327.652" y1="50.5654" x2="327.652" y2="25.0002" stroke="#FEDC00" stroke-width="4" stroke-linecap="round"/>
<line x1="374.956" y1="50.5654" x2="374.956" y2="25.0002" stroke="#FEDC00" stroke-width="4" stroke-linecap="round"/>
<line x1="315.826" y1="50.5654" x2="315.826" y2="25.0002" stroke="#FEDC00" stroke-width="4" stroke-linecap="round"/>
<line x1="304" y1="50.5654" x2="304" y2="25.0002" stroke="#FEDC00" stroke-width="4" stroke-linecap="round"/>
<line x1="363.131" y1="50.5654" x2="363.131" y2="25.0002" stroke="#FEDC00" stroke-width="4" stroke-linecap="round"/>
<line x1="351.305" y1="50.5654" x2="351.305" y2="25.0002" stroke="#FEDC00" stroke-width="4" stroke-linecap="round"/>
<line x1="339.479" y1="50.5654" x2="339.479" y2="25.0002" stroke="#FEDC00" stroke-width="4" stroke-linecap="round"/>
<line x1="410.435" y1="50.5654" x2="410.435" y2="25.0002" stroke="#CE0A18" stroke-width="4" stroke-linecap="round"/>
<line x1="457.739" y1="50.5654" x2="457.739" y2="25.0002" stroke="#CE0A18" stroke-width="4" stroke-linecap="round"/>
<line x1="398.608" y1="50.5654" x2="398.608" y2="25.0002" stroke="#CE0A18" stroke-width="4" stroke-linecap="round"/>
<line x1="386.782" y1="50.5654" x2="386.782" y2="25.0002" stroke="#CE0A18" stroke-width="4" stroke-linecap="round"/>
<line x1="445.913" y1="50.5654" x2="445.913" y2="25.0002" stroke="#CE0A18" stroke-width="4" stroke-linecap="round"/>
<line x1="434.087" y1="50.5654" x2="434.087" y2="25.0002" stroke="#CE0A18" stroke-width="4" stroke-linecap="round"/>
<line x1="422.261" y1="50.5654" x2="422.261" y2="25.0002" stroke="#CE0A18" stroke-width="4" stroke-linecap="round"/>
<line x1="505.044" y1="50.5654" x2="505.044" y2="25.0002" stroke="#CE0A18" stroke-width="4" stroke-linecap="round"/>
<line x1="493.218" y1="50.5654" x2="493.218" y2="25.0002" stroke="#CE0A18" stroke-width="4" stroke-linecap="round"/>
<line x1="481.392" y1="50.5654" x2="481.392" y2="25.0002" stroke="#CE0A18" stroke-width="4" stroke-linecap="round"/>
<line x1="469.565" y1="50.5654" x2="469.565" y2="25.0002" stroke="#CE0A18" stroke-width="4" stroke-linecap="round"/>
<line x1="540.521" y1="50.5654" x2="540.521" y2="25.0002" stroke="#CE0A18" stroke-width="4" stroke-linecap="round"/>
<line x1="587.826" y1="50.5654" x2="587.826" y2="25.0002" stroke="#CE0A18" stroke-width="4" stroke-linecap="round"/>
<line x1="528.695" y1="50.5654" x2="528.695" y2="25.0002" stroke="#CE0A18" stroke-width="4" stroke-linecap="round"/>
<line x1="516.869" y1="50.5654" x2="516.869" y2="25.0002" stroke="#CE0A18" stroke-width="4" stroke-linecap="round"/>
<line x1="576" y1="50.5654" x2="576" y2="25.0002" stroke="#CE0A18" stroke-width="4" stroke-linecap="round"/>
<line x1="564.174" y1="50.5654" x2="564.174" y2="25.0002" stroke="#CE0A18" stroke-width="4" stroke-linecap="round"/>
<line x1="552.348" y1="50.5654" x2="552.348" y2="25.0002" stroke="#CE0A18" stroke-width="4" stroke-linecap="round"/>
<path d="M6.40723 78H4.77246V67.1631L1.49414 68.3672V66.8906L6.15234 65.1416H6.40723V78ZM11.918 71.584L12.5684 65.2031H19.125V66.7061H13.9482L13.5615 70.1953C14.1885 69.8262 14.9004 69.6416 15.6973 69.6416C16.8633 69.6416 17.7891 70.0283 18.4746 70.8018C19.1602 71.5693 19.5029 72.6094 19.5029 73.9219C19.5029 75.2402 19.1455 76.2803 18.4307 77.042C17.7217 77.7979 16.7285 78.1758 15.4512 78.1758C14.3203 78.1758 13.3975 77.8623 12.6826 77.2354C11.9678 76.6084 11.5605 75.7412 11.4609 74.6338H12.999C13.0986 75.3662 13.3594 75.9199 13.7812 76.2949C14.2031 76.6641 14.7598 76.8486 15.4512 76.8486C16.207 76.8486 16.7988 76.5908 17.2266 76.0752C17.6602 75.5596 17.877 74.8477 17.877 73.9395C17.877 73.084 17.6426 72.3984 17.1738 71.8828C16.7109 71.3613 16.0928 71.1006 15.3193 71.1006C14.6104 71.1006 14.0537 71.2559 13.6494 71.5664L13.2188 71.918L11.918 71.584Z" fill="#1261A0"/>
<path d="M91.4072 78H89.7725V67.1631L86.4941 68.3672V66.8906L91.1523 65.1416H91.4072V78ZM103.932 68.543C103.932 69.1816 103.762 69.75 103.422 70.248C103.088 70.7461 102.634 71.1357 102.06 71.417C102.728 71.7041 103.255 72.123 103.642 72.6738C104.034 73.2246 104.23 73.8486 104.23 74.5459C104.23 75.6533 103.855 76.5352 103.105 77.1914C102.361 77.8477 101.38 78.1758 100.161 78.1758C98.9307 78.1758 97.9434 77.8477 97.1992 77.1914C96.4609 76.5293 96.0918 75.6475 96.0918 74.5459C96.0918 73.8545 96.2793 73.2305 96.6543 72.6738C97.0352 72.1172 97.5596 71.6953 98.2275 71.4082C97.6592 71.127 97.2109 70.7373 96.8828 70.2393C96.5547 69.7412 96.3906 69.1758 96.3906 68.543C96.3906 67.4648 96.7363 66.6094 97.4277 65.9766C98.1191 65.3438 99.0303 65.0273 100.161 65.0273C101.286 65.0273 102.194 65.3438 102.886 65.9766C103.583 66.6094 103.932 67.4648 103.932 68.543ZM102.604 74.5107C102.604 73.7959 102.376 73.2129 101.919 72.7617C101.468 72.3105 100.876 72.085 100.144 72.085C99.4111 72.085 98.8223 72.3076 98.377 72.7529C97.9375 73.1982 97.7178 73.7842 97.7178 74.5107C97.7178 75.2373 97.9316 75.8086 98.3594 76.2246C98.793 76.6406 99.3936 76.8486 100.161 76.8486C100.923 76.8486 101.521 76.6406 101.954 76.2246C102.388 75.8027 102.604 75.2314 102.604 74.5107ZM100.161 66.3633C99.5225 66.3633 99.0039 66.5625 98.6055 66.9609C98.2129 67.3535 98.0166 67.8896 98.0166 68.5693C98.0166 69.2197 98.21 69.7471 98.5967 70.1514C98.9893 70.5498 99.5107 70.749 100.161 70.749C100.812 70.749 101.33 70.5498 101.717 70.1514C102.109 69.7471 102.306 69.2197 102.306 68.5693C102.306 67.9189 102.104 67.3887 101.699 66.9785C101.295 66.5684 100.782 66.3633 100.161 66.3633ZM106.48 77.1475C106.48 76.8662 106.562 76.6318 106.727 76.4443C106.896 76.2568 107.148 76.1631 107.482 76.1631C107.816 76.1631 108.068 76.2568 108.238 76.4443C108.414 76.6318 108.502 76.8662 108.502 77.1475C108.502 77.417 108.414 77.6426 108.238 77.8242C108.068 78.0059 107.816 78.0967 107.482 78.0967C107.148 78.0967 106.896 78.0059 106.727 77.8242C106.562 77.6426 106.48 77.417 106.48 77.1475ZM111.771 71.584L112.422 65.2031H118.979V66.7061H113.802L113.415 70.1953C114.042 69.8262 114.754 69.6416 115.551 69.6416C116.717 69.6416 117.643 70.0283 118.328 70.8018C119.014 71.5693 119.356 72.6094 119.356 73.9219C119.356 75.2402 118.999 76.2803 118.284 77.042C117.575 77.7979 116.582 78.1758 115.305 78.1758C114.174 78.1758 113.251 77.8623 112.536 77.2354C111.821 76.6084 111.414 75.7412 111.314 74.6338H112.853C112.952 75.3662 113.213 75.9199 113.635 76.2949C114.057 76.6641 114.613 76.8486 115.305 76.8486C116.061 76.8486 116.652 76.5908 117.08 76.0752C117.514 75.5596 117.73 74.8477 117.73 73.9395C117.73 73.084 117.496 72.3984 117.027 71.8828C116.564 71.3613 115.946 71.1006 115.173 71.1006C114.464 71.1006 113.907 71.2559 113.503 71.5664L113.072 71.918L111.771 71.584Z" fill="#1261A0"/>
<path d="M260.448 78H252.063V76.8311L256.493 71.9092C257.149 71.165 257.601 70.5615 257.847 70.0986C258.099 69.6299 258.225 69.1465 258.225 68.6484C258.225 67.9805 258.022 67.4326 257.618 67.0049C257.214 66.5771 256.675 66.3633 256.001 66.3633C255.192 66.3633 254.562 66.5947 254.111 67.0576C253.666 67.5146 253.443 68.1533 253.443 68.9736H251.817C251.817 67.7959 252.195 66.8438 252.951 66.1172C253.713 65.3906 254.729 65.0273 256.001 65.0273C257.19 65.0273 258.131 65.3408 258.822 65.9678C259.514 66.5889 259.859 67.418 259.859 68.4551C259.859 69.7148 259.057 71.2148 257.451 72.9551L254.023 76.6729H260.448V78ZM262.918 71.584L263.568 65.2031H270.125V66.7061H264.948L264.562 70.1953C265.188 69.8262 265.9 69.6416 266.697 69.6416C267.863 69.6416 268.789 70.0283 269.475 70.8018C270.16 71.5693 270.503 72.6094 270.503 73.9219C270.503 75.2402 270.146 76.2803 269.431 77.042C268.722 77.7979 267.729 78.1758 266.451 78.1758C265.32 78.1758 264.397 77.8623 263.683 77.2354C262.968 76.6084 262.561 75.7412 262.461 74.6338H263.999C264.099 75.3662 264.359 75.9199 264.781 76.2949C265.203 76.6641 265.76 76.8486 266.451 76.8486C267.207 76.8486 267.799 76.5908 268.227 76.0752C268.66 75.5596 268.877 74.8477 268.877 73.9395C268.877 73.084 268.643 72.3984 268.174 71.8828C267.711 71.3613 267.093 71.1006 266.319 71.1006C265.61 71.1006 265.054 71.2559 264.649 71.5664L264.219 71.918L262.918 71.584Z" fill="#1261A0"/>
<path d="M390.428 70.8105H391.649C392.417 70.7988 393.021 70.5967 393.46 70.2041C393.899 69.8115 394.119 69.2812 394.119 68.6133C394.119 67.1133 393.372 66.3633 391.878 66.3633C391.175 66.3633 390.612 66.5654 390.19 66.9697C389.774 67.3682 389.566 67.8984 389.566 68.5605H387.94C387.94 67.5469 388.31 66.7061 389.048 66.0381C389.792 65.3643 390.735 65.0273 391.878 65.0273C393.085 65.0273 394.031 65.3467 394.717 65.9854C395.402 66.624 395.745 67.5117 395.745 68.6484C395.745 69.2051 395.563 69.7441 395.2 70.2656C394.843 70.7871 394.354 71.1768 393.732 71.4346C394.436 71.6572 394.978 72.0264 395.358 72.542C395.745 73.0576 395.938 73.6875 395.938 74.4316C395.938 75.5801 395.563 76.4912 394.813 77.165C394.063 77.8389 393.088 78.1758 391.887 78.1758C390.686 78.1758 389.707 77.8506 388.951 77.2002C388.201 76.5498 387.826 75.6914 387.826 74.625H389.461C389.461 75.2988 389.681 75.8379 390.12 76.2422C390.56 76.6465 391.148 76.8486 391.887 76.8486C392.672 76.8486 393.272 76.6436 393.688 76.2334C394.104 75.8232 394.312 75.2344 394.312 74.4668C394.312 73.7227 394.084 73.1514 393.627 72.7529C393.17 72.3545 392.511 72.1494 391.649 72.1377H390.428V70.8105ZM406.195 72.542C406.195 74.4463 405.87 75.8613 405.22 76.7871C404.569 77.7129 403.553 78.1758 402.17 78.1758C400.805 78.1758 399.794 77.7246 399.138 76.8223C398.481 75.9141 398.142 74.5605 398.118 72.7617V70.5908C398.118 68.71 398.443 67.3125 399.094 66.3984C399.744 65.4844 400.764 65.0273 402.152 65.0273C403.529 65.0273 404.543 65.4697 405.193 66.3545C405.844 67.2334 406.178 68.5928 406.195 70.4326V72.542ZM404.569 70.3184C404.569 68.9414 404.376 67.9395 403.989 67.3125C403.603 66.6797 402.99 66.3633 402.152 66.3633C401.32 66.3633 400.714 66.6768 400.333 67.3037C399.952 67.9307 399.756 68.8945 399.744 70.1953V72.7969C399.744 74.1797 399.943 75.2021 400.342 75.8643C400.746 76.5205 401.355 76.8486 402.17 76.8486C402.973 76.8486 403.567 76.5381 403.954 75.917C404.347 75.2959 404.552 74.3174 404.569 72.9814V70.3184Z" fill="#1261A0"/>
<line x1="1" y1="16" x2="85" y2="16" stroke="#1261A0" stroke-width="2"/>
<line x1="86" y1="15" x2="86" y2="27" stroke="#1261A0" stroke-width="2"/>
<line x1="2" y1="16" x2="2" y2="27" stroke="#1261A0" stroke-width="2"/>
<path d="M3.89111 7.39795L6.30322 2.75781H7.68701L4.50049 8.55322V12H3.28174V8.55322L0.0952148 2.75781H1.4917L3.89111 7.39795ZM15.7993 7.67725C15.7993 8.58285 15.647 9.37419 15.3423 10.0513C15.0376 10.7241 14.606 11.2383 14.0474 11.5938C13.4888 11.9492 12.8371 12.127 12.0923 12.127C11.3644 12.127 10.7191 11.9492 10.1562 11.5938C9.59342 11.234 9.15544 10.7241 8.84229 10.064C8.53337 9.39958 8.37467 8.63151 8.36621 7.75977V7.09326C8.36621 6.20459 8.52067 5.4196 8.82959 4.73828C9.13851 4.05697 9.57438 3.53646 10.1372 3.17676C10.7043 2.81283 11.3517 2.63086 12.0796 2.63086C12.8201 2.63086 13.4718 2.81071 14.0347 3.17041C14.6017 3.52588 15.0376 4.04427 15.3423 4.72559C15.647 5.40267 15.7993 6.19189 15.7993 7.09326V7.67725ZM14.5869 7.08057C14.5869 5.98454 14.3669 5.14453 13.9268 4.56055C13.4867 3.97233 12.8709 3.67822 12.0796 3.67822C11.3094 3.67822 10.7021 3.97233 10.2578 4.56055C9.81771 5.14453 9.59131 5.95703 9.57861 6.99805V7.67725C9.57861 8.73942 9.80078 9.5752 10.2451 10.1846C10.6937 10.7897 11.3094 11.0923 12.0923 11.0923C12.8794 11.0923 13.4888 10.8066 13.9204 10.2354C14.3521 9.65983 14.5742 8.83675 14.5869 7.76611V7.08057ZM24.1338 2.75781V9.04199C24.1296 9.91374 23.8545 10.6268 23.3086 11.1812C22.7669 11.7355 22.0306 12.0465 21.0996 12.1143L20.7759 12.127C19.7645 12.127 18.9583 11.854 18.3574 11.3081C17.7565 10.7622 17.4518 10.0111 17.4434 9.05469V2.75781H18.6494V9.0166C18.6494 9.68522 18.8335 10.2057 19.2017 10.5781C19.5698 10.9463 20.0946 11.1304 20.7759 11.1304C21.4657 11.1304 21.9925 10.9463 22.3564 10.5781C22.7246 10.21 22.9087 9.69157 22.9087 9.02295V2.75781H24.1338ZM34.3853 9.58789H30.5132L29.6436 12H28.3867L31.916 2.75781H32.9824L36.5181 12H35.2676L34.3853 9.58789ZM30.8813 8.58496H34.0234L32.4492 4.26221L30.8813 8.58496ZM41.1519 8.26123H38.981V12H37.7559V2.75781H40.8154C41.8564 2.75781 42.6562 2.99479 43.2148 3.46875C43.7777 3.94271 44.0591 4.63249 44.0591 5.53809C44.0591 6.11361 43.9025 6.61507 43.5894 7.04248C43.2804 7.46989 42.8488 7.78939 42.2944 8.00098L44.4653 11.9238V12H43.1577L41.1519 8.26123ZM38.981 7.26465H40.8535C41.4587 7.26465 41.939 7.10807 42.2944 6.79492C42.6541 6.48177 42.834 6.06283 42.834 5.53809C42.834 4.9668 42.6626 4.52881 42.3198 4.22412C41.9813 3.91943 41.4904 3.76497 40.8472 3.76074H38.981V7.26465ZM50.9971 7.72803H46.9917V11.0034H51.6445V12H45.7729V2.75781H51.5811V3.76074H46.9917V6.73145H50.9971V7.72803ZM63.4893 12H62.2642V7.72803H57.605V12H56.3862V2.75781H57.605V6.73145H62.2642V2.75781H63.4893V12ZM70.8779 7.72803H66.8726V11.0034H71.5254V12H65.6538V2.75781H71.4619V3.76074H66.8726V6.73145H70.8779V7.72803ZM76.4321 8.26123H74.2612V12H73.0361V2.75781H76.0957C77.1367 2.75781 77.9365 2.99479 78.4951 3.46875C79.0579 3.94271 79.3394 4.63249 79.3394 5.53809C79.3394 6.11361 79.1828 6.61507 78.8696 7.04248C78.5607 7.46989 78.1291 7.78939 77.5747 8.00098L79.7456 11.9238V12H78.438L76.4321 8.26123ZM74.2612 7.26465H76.1338C76.7389 7.26465 77.2192 7.10807 77.5747 6.79492C77.9344 6.48177 78.1143 6.06283 78.1143 5.53809C78.1143 4.9668 77.9429 4.52881 77.6001 4.22412C77.2616 3.91943 76.7707 3.76497 76.1274 3.76074H74.2612V7.26465ZM86.2773 7.72803H82.272V11.0034H86.9248V12H81.0532V2.75781H86.8613V3.76074H82.272V6.73145H86.2773V7.72803Z" fill="#1261A0"/>
</svg>
