<?xml version="1.0" encoding="utf-8"?>
<!-- Generator: Adobe Illustrator 23.0.2, SVG Export Plug-In . SVG Version: 6.00 Build 0)  -->
<svg version="1.1" id="_x2014_ÎÓÈ_x5F_1" xmlns="http://www.w3.org/2000/svg" xmlns:xlink="http://www.w3.org/1999/xlink"
	 x="0px" y="0px" viewBox="0 0 6000 3000" style="enable-background:new 0 0 6000 3000;" xml:space="preserve">
<style type="text/css">
	.st0{fill:url(#SVGID_1_);}
	.st1{fill:#649EDD;}
	.st2{fill:#F34B1E;}
	.st3{fill:#FCDAD1;}
	.st4{fill:#AED0F4;}
	.st5{fill:url(#SVGID_2_);}
	.st6{clip-path:url(#SVGID_4_);}
	.st7{fill:#FFFFFF;}
	.st8{fill:#BDD5F9;}
	.st9{fill:#7D3926;}
	.st10{fill:#1D1D1B;}
	.st11{fill:#458EDD;}
	.st12{opacity:0.2;}
	.st13{fill:#10172A;}
	.st14{fill:#86BCF4;}
	.st15{opacity:0.2;fill:#1D1D1B;}
	.st16{opacity:0.2;fill:#FFFFFF;}
	.st17{fill:#EDEDED;}
	.st18{opacity:0.15;}
	.st19{fill:#044A92;}
	.st20{opacity:0.15;fill:#10172A;}
</style>
<linearGradient id="SVGID_1_" gradientUnits="userSpaceOnUse" x1="5512.1997" y1="120.2084" x2="776.2222" y2="2776.198" gradientTransform="matrix(-1 0 0 1 6002 0)">
	<stop  offset="0" style="stop-color:#D3E8FB"/>
	<stop  offset="1" style="stop-color:#A8CCF3"/>
</linearGradient>
<path class="st0" d="M4274.41,2460.8c100.6-1.15,201.18,6.3,300.02,25.44c169.71,32.85,354.19,45.49,526.07,25.1
	c146.97-17.43,294.1-69.11,401.55-170.87c105.21-99.64,165.07-241.48,180.57-385.55c25.65-238.44-51.95-472.13-179.21-671.58
	c-110.97-173.92-254.5-324.22-394.92-475.38c-172.85-186.07-347.27-379.06-571.99-497.39
	c-315.74-166.26-621.67-104.54-891.69,109.37c-231.75,183.6-444.87,437.65-759.28,464.67c-135,11.6-271.3-12.74-399.77-55.79
	c-217.48-72.86-406.92-203.81-623.9-279.28c-161.16-56.05-335.4-84.31-503.36-54.24c-205.06,36.71-367.45,156.97-525.09,285.6
	c-160.27,130.78-308.71,279.44-417.46,456.58c-76.35,124.36-128.13,270.07-68.52,412.7c55.04,131.69,158.59,197.68,270.92,274.38
	c123.92,84.61,243.61,179,334.76,299.44c102.3,135.17,167.73,298.14,307.6,401.31c308.52,227.56,797.57,215.16,1160.51,181.81
	c314.11-28.86,622.95-98.99,928.47-177.46c217.64-55.9,434.85-116.27,657.36-147.59C4095.41,2469.64,4184.92,2461.82,4274.41,2460.8
	z"/>
<g>
	<path class="st1" d="M4969.29,1832.84c126.03-162.69,282.86-306.41,459.63-371.1c176.78-64.69,374.23-37.36,479.54,101.29
		c61.16,80.52,86.84,202.24,43.42,313.68c-36.61,93.96-116.79,167.5-201.67,207.55c-84.88,40.04-174.53,50.61-261.33,53.04
		c-86.8,2.43-172.81-2.73-260.38,8.11c-223.21,27.62-450.36,164.19-608.94,366.11C4687.24,2263.52,4810.47,2037.85,4969.29,1832.84z
		"/>
</g>
<g>
	<path class="st2" d="M4975.15,1680.26c50.31-168.3,135.46-330.51,268.81-435.13c133.35-104.61,320.54-141.4,468.02-61.27
		c85.65,46.53,155.38,136.75,159.31,239.26c3.32,86.43-40.19,169.42-100.77,226.87c-60.58,57.45-136.75,92.63-213.49,120.41
		c-76.74,27.78-155.69,49.23-229.89,84c-189.14,88.63-339.96,266.02-404.33,475.55C4888.14,2110.44,4911.76,1892.34,4975.15,1680.26
		z"/>
	<path class="st3" d="M5419.76,1368.08c-162.83,91.33-281.64,254.51-363.11,430.55c-68.95,148.98-118.56,304.13-142.54,464.9
		c-20.77-197.06,4.04-392.6,61.04-583.27c50.31-168.3,135.46-330.51,268.81-435.13c133.35-104.61,320.54-141.4,468.02-61.27
		c58.49,31.78,109.54,83.93,137.29,146.45C5712.92,1275.66,5550.65,1294.67,5419.76,1368.08z"/>
</g>
<g>
	<path class="st1" d="M1169.84,1758.74c-51.03-165.13-138.49-324.65-276.82-428.28c-138.33-103.63-333.49-141.41-488.25-64.44
		c-89.87,44.7-163.5,132.29-168.54,232.54c-4.25,84.53,40.45,166.13,103.2,222.92c62.75,56.79,141.98,91.93,221.88,119.85
		s162.16,49.66,239.34,84.39c196.74,88.52,352.66,263.52,418,469.12C1256.85,2180.43,1234.15,1966.83,1169.84,1758.74z"/>
	<path class="st4" d="M708.31,1449.06c169.23,90.91,291.85,251.7,375.36,424.7c70.67,146.41,121.09,298.68,144.68,456.19
		c23.47-192.59-0.69-384.13-58.5-571.21c-51.03-165.13-138.5-324.65-276.82-428.28c-138.33-103.63-333.49-141.41-488.25-64.44
		c-61.37,30.53-115.15,81.06-144.71,141.96C402.97,1355.82,572.28,1375.98,708.31,1449.06z"/>
</g>
<g>
	<path class="st2" d="M1186.84,2054.21c-125.81-139.1-284.91-255.99-468.45-294.61c-183.54-38.62-392.86,13.57-509.87,160.15
		c-67.96,85.13-100.29,205.02-59.34,305.95c34.53,85.11,115.86,144.93,203.6,172.07c87.74,27.14,181.78,25.44,273.17,16.32
		c91.39-9.11,182.28-25.39,274.12-26.56c234.09-2.99,467.62,97.79,626.04,270.16C1465.52,2429.24,1345.38,2229.49,1186.84,2054.21z"
		/>
	<path class="st3" d="M590.96,1960.85c208.13,11.96,402.38,114,563.76,245.98c136.56,111.69,255.89,238.41,351.22,382.58
		c-65.09-200.22-176.56-377.61-319.1-535.2c-125.81-139.1-284.91-255.99-468.45-294.61c-183.54-38.62-392.86,13.57-509.87,160.15
		c-46.41,58.13-76.18,132.48-77.37,205.92C247.86,2008.92,423.66,1951.24,590.96,1960.85z"/>
</g>
<linearGradient id="SVGID_2_" gradientUnits="userSpaceOnUse" x1="4989.2886" y1="-614.8831" x2="253.2966" y2="2041.1146" gradientTransform="matrix(-1 0 0 1 6002 0)">
	<stop  offset="0" style="stop-color:#D3E8FB"/>
	<stop  offset="1" style="stop-color:#A8CCF3"/>
</linearGradient>
<path class="st5" d="M3165.48,737.32c52.57-29.44,105.03-60.2,149.48-100.87c44.45-40.67,80.83-92.38,93.64-151.25
	c7.42-34.08,6.61-70.41-5.81-103c-12.42-32.58-37.07-61.03-69.11-74.81c-51.82-22.28-112.7-3.56-160.32,26.68
	c-47.61,30.24-87.72,71.4-136.27,100.11c-51.78,30.62-113.09,47.13-155.82,89.47c-52.3,51.83-87.74,169.91-59.17,240.97
	c24.48,60.9,134.25,48.78,184.56,39.33C3063.61,793.28,3115.46,765.34,3165.48,737.32z"/>
<g>
	<defs>
		<path id="SVGID_3_" d="M347.44,1650.18c55.04,131.69,158.59,197.68,270.93,274.38c123.92,84.61,243.61,179,334.76,299.44
			c102.29,135.17,167.73,298.15,307.6,401.31c308.52,227.56,797.56,215.16,1160.5,181.81c314.12-28.86,622.95-98.99,928.47-177.46
			c217.65-55.9,434.85-116.27,657.37-147.59c39.05-5.5,78.33-10.09,117.74-13.6c10.75-0.95,21.52-1.83,32.29-2.61
			c7.24-0.54,14.47-1.03,21.71-1.48c15.62-0.98,31.26-1.77,46.91-2.36c16.22-0.63,32.46-1.03,48.69-1.22
			c66.33-0.76,132.64,2.22,198.45,9.83c2.03,0.23,4.05,0.46,6.08,0.7c27.71,3.33,55.34,7.48,82.83,12.52
			c4.22,0.77,8.44,1.56,12.66,2.38c58.21,11.27,118.15,20.16,178.72,26.15c0.01,0,0.01,0,0.01,0
			c116.04,11.49,234.41,12.35,347.34-1.05c146.97-17.43,294.09-69.1,401.55-170.87c105.22-99.63,165.07-241.47,180.57-385.55
			c25.65-238.43-51.95-472.13-179.2-671.58c-110.98-173.92-254.5-324.22-394.92-475.37c-172.85-186.07-347.27-379.06-571.99-497.39
			c-315.74-166.26-621.67-104.54-891.69,109.37c-231.75,183.6-444.87,437.65-759.28,464.67c-135,11.6-271.29-12.75-399.77-55.79
			c-217.49-72.86-406.92-203.81-623.9-279.28c-161.16-56.05-335.4-84.31-503.36-54.24c-205.06,36.71-367.45,156.97-525.08,285.6
			c-160.27,130.78-308.71,279.44-417.46,456.58C339.62,1361.84,287.83,1507.55,347.44,1650.18z"/>
	</defs>
	<clipPath id="SVGID_4_">
		<use xlink:href="#SVGID_3_"  style="overflow:visible;"/>
	</clipPath>
	<g class="st6">
		<g>
			<polygon class="st1" points="6556.31,1661.84 6437.31,1663.3 6322.75,1433.9 6441.74,1432.44 			"/>
			<polygon class="st7" points="6570.74,1661.65 6451.74,1663.11 6337.18,1433.71 6456.17,1432.25 			"/>
			<polygon class="st1" points="6538.55,1621.33 6449.59,1622.43 6363.94,1450.94 6452.9,1449.84 			"/>
			<path class="st8" d="M6406.49,1439.82c-3.18,0-3.19,4.95,0,4.95C6409.67,1444.77,6409.68,1439.82,6406.49,1439.82z"/>
			<path class="st1" d="M6515.49,1638.96c0,3.93-7.48,7.11-16.7,7.11c-9.22,0-16.7-3.18-16.7-7.11c0-3.93,7.48-7.11,16.7-7.11
				C6508.01,1631.85,6515.49,1635.04,6515.49,1638.96z"/>
		</g>
		<path class="st9" d="M7662.3,2024.91c-0.57-0.61-1.15-1.21-1.74-1.83c1.17,1.23,2.31,2.44,3.42,3.62
			C7663.43,2026.11,7662.87,2025.51,7662.3,2024.91z M7647.8,2010.23c-0.46-0.45-0.92-0.89-1.39-1.34c0.67,0.65,1.32,1.29,1.97,1.92
			C7648.19,2010.61,7647.99,2010.42,7647.8,2010.23z M7529.6,1907.01c0.84,0.68,1.71,1.39,2.6,2.13
			C7531.31,1908.41,7530.44,1907.69,7529.6,1907.01z M7662.3,2024.91c-0.57-0.61-1.15-1.21-1.74-1.83c1.17,1.23,2.31,2.44,3.42,3.62
			C7663.43,2026.11,7662.87,2025.51,7662.3,2024.91z M7646.41,2008.89c0.67,0.65,1.32,1.29,1.97,1.92c-0.19-0.2-0.39-0.39-0.58-0.58
			C7647.34,2009.78,7646.88,2009.34,7646.41,2008.89z M7532.2,1909.14c-0.89-0.73-1.76-1.45-2.6-2.13
			C7530.44,1907.69,7531.31,1908.4,7532.2,1909.14z M7539.01,1585.53c-42.92-37-260.7-53.85-260.7-53.85
			c-43.69-1.72-31.83,10.19-166.47,16.8c-116.79,5.81-270.29,270.56-322.45,338.72c-0.01,0.01-0.01,0.02-0.02,0.03
			c-7.96,10.4-13.56,16.21-16.3,15.82c-16.09-2.3-113.6-130.54-156.2-187.51c-12.2-16.31-19.9-26.78-19.9-26.78s-2.8-3.51-6.91-9.13
			c-2.47-3.36-5.41-7.47-8.51-12.02c-4.21-6.19-8.72-13.2-12.71-20.28c-11.83-20.96-52.24-58.94-62.38-51.79
			c-10.1,7.17,19.24,50.06,19.24,50.06s-26.38,5.21-54.75,0.24c-28.34-4.9-57.16-53.03-69.75-49.82
			c-12.55,3.25,7.86,42.44,13.07,77.23c5.16,34.73,73.51,45.86,79.41,51.55c0.59,0.56,1.15,1.26,1.66,2.06
			c4.64,7.14,6.23,22.32,6.23,22.32l0.02,0.07c0.49,0.97,6.69,13.05,16.98,32.3c46.01,86.03,173.96,315.06,241.14,333.07
			c82.85,22.18,207.12-96.88,207.12-96.88v0.07c0,0.08-0.01,0.21-0.02,0.39c0,0.09,0,0.2-0.01,0.31c-0.02,0.59-0.05,1.52-0.1,2.75
			c0,0.09,0,0.18-0.01,0.28c-0.02,0.41-0.03,0.86-0.05,1.33c-0.02,0.53-0.04,1.11-0.07,1.72c0,0.08-0.01,0.16-0.01,0.24
			c-0.01,0.28-0.02,0.57-0.03,0.87c-0.01,0.27-0.02,0.55-0.03,0.83c-0.03,0.64-0.05,1.32-0.08,2.04c-0.01,0.24-0.02,0.48-0.03,0.73
			c-0.01,0.18-0.01,0.36-0.02,0.54c-0.02,0.55-0.04,1.11-0.07,1.69c0.01,0.04,0.01,0.09,0,0.14c-0.03,0.82-0.06,1.67-0.1,2.56
			c0,0.11,0,0.22-0.01,0.33c-0.01,0.5-0.03,1.01-0.06,1.54c-0.02,0.52-0.04,1.06-0.06,1.61c-0.01,0.45-0.03,0.9-0.05,1.36
			c-0.01,0.09-0.01,0.18-0.01,0.26c-0.03,0.87-0.07,1.77-0.1,2.69c-0.04,1.01-0.08,2.05-0.12,3.11c-0.01,0.35-0.03,0.71-0.04,1.06
			c-0.13,3.23-0.26,6.69-0.4,10.34c-0.03,0.63-0.05,1.27-0.07,1.91c-0.01,0.05-0.01,0.1-0.01,0.15c-0.03,1.01-0.07,2.04-0.12,3.07
			c-0.02,0.55-0.04,1.1-0.06,1.65c-0.02,0.43-0.04,0.87-0.05,1.31c-0.08,2.06-0.16,4.17-0.25,6.32c-0.01,0.24-0.02,0.49-0.03,0.74
			c-0.04,1.19-0.09,2.39-0.14,3.61c-0.01,0.44-0.03,0.88-0.05,1.33c-0.04,0.97-0.08,1.94-0.11,2.91c-0.11,2.71-0.21,5.48-0.33,8.3
			c-0.04,1.17-0.09,2.35-0.14,3.54c-0.03,0.79-0.06,1.59-0.09,2.38c-0.06,1.4-0.11,2.81-0.17,4.23c-0.1,2.63-0.2,5.29-0.31,7.98
			c-0.1,2.48-0.2,4.99-0.3,7.51c-0.14,3.59-0.28,7.22-0.43,10.88c-0.06,1.48-0.12,2.96-0.18,4.44c-0.03,0.86-0.07,1.73-0.1,2.59
			c-0.05,1.13-0.09,2.27-0.14,3.41c-0.1,2.62-0.21,5.26-0.32,7.89c-0.06,1.42-0.11,2.85-0.17,4.28c-0.11,2.6-0.21,5.2-0.32,7.8
			c-0.07,1.73-0.14,3.46-0.21,5.19c-0.04,0.86-0.07,1.73-0.11,2.59c-0.09,2.16-0.18,4.3-0.27,6.44c-0.01,0.43-0.03,0.86-0.05,1.28
			c-0.03,0.68-0.06,1.35-0.08,2.03c-0.01,0.14-0.01,0.27-0.02,0.4c-0.03,0.77-0.06,1.54-0.09,2.3c-0.01,0.13-0.01,0.26-0.02,0.38
			c-0.06,1.55-0.13,3.1-0.19,4.64c-0.04,0.99-0.09,1.97-0.13,2.95c-0.07,1.67-0.14,3.34-0.21,4.99c-0.02,0.47-0.04,0.94-0.06,1.4
			c-0.05,1.19-0.1,2.37-0.15,3.54c0,0.06,0,0.12-0.01,0.19c-0.05,1.24-0.1,2.48-0.16,3.7c-0.05,1.27-0.1,2.52-0.16,3.77
			c-0.1,2.26-0.2,4.5-0.29,6.7c-0.17,3.89-0.33,7.68-0.5,11.36c-0.04,1.03-0.09,2.04-0.14,3.05c0,0.24-0.02,0.48-0.03,0.71
			c-0.06,1.46-0.13,2.89-0.2,4.31c-0.03,0.88-0.07,1.75-0.11,2.6c-0.06,1.23-0.11,2.43-0.17,3.62c-0.11,2.35-0.21,4.62-0.32,6.82
			c-0.05,1.07-0.1,2.11-0.15,3.14c-0.05,1.13-0.11,2.24-0.16,3.32c-0.02,0.48-0.05,0.94-0.07,1.4c-0.04,0.93-0.09,1.84-0.13,2.73
			c-0.12,2.25-0.23,4.38-0.33,6.38c-0.03,0.56-0.06,1.1-0.09,1.64c-0.03,0.57-0.06,1.12-0.09,1.66c-0.03,0.55-0.06,1.07-0.09,1.59
			c-0.05,0.86-0.09,1.68-0.14,2.47c-0.11,1.95-0.27,3.95-0.47,5.99c-0.06,0.68-0.14,1.37-0.21,2.06c-0.12,1.12-0.25,2.25-0.4,3.39
			c-0.08,0.66-0.16,1.33-0.26,2c-0.09,0.66-0.18,1.34-0.28,2.02c-0.16,1.14-0.34,2.29-0.53,3.46c-0.25,1.59-0.52,3.2-0.81,4.83
			c-0.16,0.89-0.32,1.79-0.49,2.69c-0.23,1.24-0.47,2.48-0.72,3.73c-0.42,2.16-0.88,4.35-1.35,6.55c-0.32,1.47-0.65,2.95-0.99,4.44
			c-0.3,1.3-0.6,2.61-0.91,3.92c-0.39,1.68-0.8,3.37-1.22,5.07c-0.23,0.94-0.47,1.89-0.71,2.83c-0.33,1.33-0.67,2.65-1.02,3.98
			c-0.39,1.52-0.79,3.04-1.2,4.56c-0.09,0.33-0.18,0.67-0.27,1c-0.94,3.47-1.9,6.95-2.89,10.41c-0.6,2.09-1.2,4.17-1.81,6.25
			c-0.58,1.98-1.17,3.96-1.76,5.93c-2.23,7.42-4.51,14.7-6.75,21.67c-0.24,0.78-0.49,1.55-0.74,2.31c-0.36,1.12-0.72,2.24-1.08,3.34
			c-0.62,1.92-1.24,3.8-1.85,5.66c-0.78,2.41-1.56,4.76-2.32,7.05c-0.21,0.63-0.41,1.25-0.61,1.86c-0.95,2.88-1.88,5.65-2.76,8.31
			c-0.19,0.56-0.37,1.12-0.56,1.67c-0.05,0.16-0.1,0.31-0.15,0.47c-0.45,1.33-0.88,2.62-1.29,3.87c-0.02,0.09-0.05,0.17-0.08,0.25
			c-0.32,0.97-0.63,1.92-0.94,2.85c-0.11,0.33-0.22,0.66-0.33,0.99c-0.42,1.28-0.82,2.51-1.21,3.7c-0.67,2.04-1.29,3.96-1.84,5.73
			c-0.12,0.39-0.24,0.77-0.36,1.15c-0.11,0.35-0.22,0.7-0.32,1.04c-0.07,0.23-0.14,0.47-0.21,0.69c-0.05,0.16-0.1,0.32-0.14,0.47
			c-0.07,0.24-0.14,0.47-0.21,0.7c-0.34,1.14-0.64,2.19-0.9,3.14c-6.64,24.37,15.56,61.36,15.56,61.36s-35.46,125.06-69.29,244.3
			c48.88-4.3,97.95-6.9,147.02-7.46c100.6-1.14,201.17,6.3,300.02,25.44c60.79,11.77,123.47,20.94,186.79,26.92
			c3.12-126.79,5.88-249.64,6.78-289.2c0.1-4.8,0.19-8.38,0.24-10.58c0.76-0.23,1.54-0.49,2.34-0.79c0.21-0.08,0.43-0.16,0.64-0.25
			c0.52-0.19,1.05-0.41,1.59-0.65c0.38-0.15,0.77-0.32,1.16-0.5c1.36-0.61,2.77-1.29,4.21-2.05c0.51-0.26,1.01-0.53,1.53-0.81
			c3.18-1.73,6.54-3.76,10.01-6.01c0.57-0.37,1.14-0.74,1.72-1.13c10.46-6.91,21.75-15.66,31.86-23.96
			c0.51-0.41,1.01-0.83,1.52-1.24c0.6-0.51,1.2-1,1.8-1.5c0.52-0.44,1.04-0.87,1.56-1.3c0.82-0.69,1.64-1.38,2.44-2.06
			c0.52-0.44,1.04-0.88,1.55-1.31s1.01-0.86,1.51-1.29s1-0.85,1.48-1.26c2.19-1.88,4.26-3.68,6.16-5.35
			c0.41-0.36,0.82-0.72,1.22-1.08c0.42-0.36,0.82-0.72,1.23-1.07c0.78-0.69,1.53-1.35,2.23-1.99c0.61-0.54,1.18-1.05,1.73-1.54
			c1.88-1.69,3.42-3.09,4.57-4.14c0.16-0.15,0.31-0.3,0.46-0.43c1.18-1.07,1.82-1.67,1.82-1.67s3.44,0,22.66,0
			c3.1,0,12.24-9.27,25.44-24.98c68.73-81.75,247.7-338.03,260.11-371.53C7910.04,1977.02,7581.9,1622.5,7539.01,1585.53z
			 M7683.82,2057.01c-0.04,0.13-0.09,0.25-0.14,0.37c-6.79,15.52-97.94,166.09-144.57,238.4c-14.2,22.02-24.27,36.78-26.58,38.27
			c-0.54,0.36-1.12,0.71-1.71,1.04c-0.19,0.12-0.39,0.23-0.59,0.33c-0.28,0.16-0.57,0.31-0.86,0.46c-0.29,0.15-0.59,0.3-0.89,0.45
			c-0.36,0.18-0.73,0.36-1.1,0.52c-0.43,0.2-0.86,0.39-1.3,0.58c-0.44,0.19-0.88,0.37-1.32,0.55c-0.45,0.18-0.9,0.36-1.35,0.53
			c-0.43,0.17-0.87,0.33-1.31,0.49c-0.47,0.17-0.94,0.34-1.41,0.5c-0.38,0.13-0.75,0.26-1.13,0.38c-0.98,0.33-1.96,0.64-2.91,0.92
			h-0.01c-2.63,0.8-5.11,1.44-7.16,1.94c-0.45,0.11-0.88,0.21-1.29,0.3c-1.09,0.25-2.01,0.45-2.72,0.6
			c-0.09,0.02-0.17,0.03-0.25,0.05c-0.81,0.17-1.27,0.25-1.27,0.25s1.96-263.35,6.93-299.87c4.9-36.47,21.65-150.91,21.65-150.91
			s0.13,0.1,0.38,0.31c0.08,0.06,0.18,0.14,0.29,0.22c1.34,1.08,4.62,3.72,9.38,7.59c0.43,0.35,0.88,0.71,1.34,1.09
			c1.73,1.41,3.63,2.96,5.68,4.64c0.84,0.68,1.71,1.39,2.6,2.13c2.02,1.65,4.16,3.41,6.41,5.27c0.57,0.47,1.14,0.94,1.71,1.41
			c6.31,5.21,13.41,11.1,20.98,17.47c1,0.84,2,1.68,3.02,2.55c1.28,1.07,2.56,2.15,3.85,3.25c1.3,1.09,2.6,2.19,3.91,3.31
			c2.8,2.37,5.64,4.79,8.51,7.24c1.44,1.23,2.88,2.47,4.33,3.72c2.71,2.34,5.45,4.7,8.18,7.07c1.05,0.91,2.1,1.83,3.15,2.75
			c0.05,0.03,0.09,0.07,0.14,0.12c1.07,0.94,2.15,1.87,3.22,2.81c0.03,0.02,0.05,0.04,0.07,0.06c1.1,0.96,2.2,1.93,3.29,2.89
			c1.65,1.44,3.29,2.89,4.92,4.34c0.14,0.12,0.27,0.24,0.4,0.36c0.92,0.82,1.84,1.63,2.76,2.45c0.04,0.03,0.07,0.06,0.11,0.09
			c0.88,0.78,1.76,1.57,2.63,2.36c0,0,0,0,0.01,0c1.82,1.63,3.64,3.26,5.44,4.89c1.07,0.96,2.13,1.93,3.19,2.89
			c0.53,0.48,1.06,0.96,1.59,1.45c1.05,0.95,2.09,1.91,3.13,2.86c0.87,0.8,1.73,1.59,2.59,2.39c0.63,0.58,1.26,1.16,1.88,1.74
			c0.06,0.04,0.11,0.09,0.16,0.14c2.04,1.9,4.05,3.78,6.02,5.63c1.14,1.07,2.26,2.14,3.37,3.2c0.82,0.78,1.63,1.55,2.43,2.32
			c0.21,0.2,0.42,0.41,0.63,0.61c0.58,0.55,1.15,1.1,1.71,1.66c0.16,0.14,0.32,0.29,0.47,0.45c0.67,0.65,1.32,1.29,1.97,1.92h0.01
			c0.59,0.58,1.18,1.16,1.76,1.74c3.7,3.63,7.18,7.16,10.41,10.53c1.17,1.23,2.31,2.44,3.42,3.62c0.92,0.99,1.81,1.96,2.68,2.91
			c0.43,0.48,0.86,0.96,1.28,1.43c0.42,0.47,0.84,0.93,1.24,1.39c3.17,3.6,5.91,6.93,8.14,9.94c0.21,0.28,0.41,0.55,0.59,0.82
			c0.21,0.27,0.4,0.54,0.57,0.8c0.56,0.79,1.08,1.55,1.56,2.29c0.33,0.49,0.63,0.97,0.9,1.44c0.32,0.52,0.61,1.02,0.87,1.51
			c0.09,0.16,0.18,0.32,0.26,0.48c0,0.01,0.01,0.03,0.02,0.05c0.24,0.43,0.44,0.85,0.62,1.26c0.38,0.81,0.68,1.58,0.88,2.29
			C7684.03,2054.78,7684.12,2056.02,7683.82,2057.01z M7529.6,1907.01c0.84,0.68,1.71,1.39,2.6,2.13
			C7531.31,1908.41,7530.44,1907.69,7529.6,1907.01z M7647.8,2010.23c-0.46-0.45-0.92-0.89-1.39-1.34c0.67,0.65,1.32,1.29,1.97,1.92
			C7648.19,2010.61,7647.99,2010.42,7647.8,2010.23z M7662.3,2024.91c-0.57-0.61-1.15-1.21-1.74-1.83c1.17,1.23,2.31,2.44,3.42,3.62
			C7663.43,2026.11,7662.87,2025.51,7662.3,2024.91z M7529.6,1907.01c0.84,0.68,1.71,1.39,2.6,2.13
			C7531.31,1908.41,7530.44,1907.69,7529.6,1907.01z M7647.8,2010.23c-0.46-0.45-0.92-0.89-1.39-1.34c0.67,0.65,1.32,1.29,1.97,1.92
			C7648.19,2010.61,7647.99,2010.42,7647.8,2010.23z M7662.3,2024.91c-0.57-0.61-1.15-1.21-1.74-1.83c1.17,1.23,2.31,2.44,3.42,3.62
			C7663.43,2026.11,7662.87,2025.51,7662.3,2024.91z"/>
		<path class="st10" d="M7500.46,2487.44c-0.9,39.56-3.66,162.41-6.78,289.2c-63.32-5.98-126-15.15-186.79-26.92
			c-98.85-19.14-199.42-26.58-300.02-25.44c-49.07,0.56-98.14,3.16-147.02,7.46c33.83-119.24,69.29-244.3,69.29-244.3l217.33-46.38
			L7500.46,2487.44z"/>
		<path class="st11" d="M7863.77,1953.14c-27.5-39.79-58.02-77.55-88.77-114.85c-44.17-53.58-89.38-106.27-135.89-157.82
			c-31.56-34.96-62.75-78.67-103.07-105.67c-9.67-6.5-19.9-12.05-30.78-16.25c-28.12-10.9-58.26-15.35-88.23-18.69
			c-108.61-12.19-227.31-17.97-334.04,9.25c-51.76,13.19-88.03,36.58-121.09,77.66c-39.59,49.26-75.44,99.7-108.59,153.62
			c-17.8,28.94-34.79,58.4-52.71,87.27c-1.68,2.71-6.09,11.43-11.21,19.54c-0.01,0.01-0.01,0.02-0.02,0.03
			c-5.43,8.59-11.66,16.48-16.3,15.82c-16.09-2.3-113.6-130.54-156.2-187.51c-12.2-16.31-19.9-26.78-19.9-26.78s-2.8-3.51-6.91-9.13
			l-88.49,69.55l0.02,0.07c0.49,0.97,6.69,13.05,16.98,32.3c46.01,86.03,173.96,315.06,241.14,333.07
			c82.85,22.18,207.12-96.88,207.12-96.88v0.07c0,0.08-0.01,0.21-0.02,0.39c0,0.09,0,0.2-0.01,0.31c-0.02,0.59-0.05,1.52-0.1,2.75
			c0,0.09,0,0.18-0.01,0.28c-0.02,0.41-0.03,0.86-0.05,1.33c-0.02,0.53-0.04,1.11-0.07,1.72c0,0.08-0.01,0.16-0.01,0.24
			c-0.01,0.28-0.02,0.57-0.03,0.87c-0.01,0.27-0.02,0.55-0.03,0.83c-0.03,0.64-0.05,1.32-0.08,2.04c-0.01,0.24-0.02,0.48-0.03,0.73
			c-0.01,0.18-0.01,0.36-0.02,0.54c-0.02,0.55-0.04,1.11-0.07,1.69c0.01,0.04,0.01,0.09,0,0.14c-0.03,0.82-0.06,1.67-0.1,2.56
			c0,0.11,0,0.22-0.01,0.33c-0.01,0.5-0.03,1.01-0.06,1.54c-0.02,0.52-0.04,1.06-0.06,1.61c-0.01,0.45-0.03,0.9-0.05,1.36
			c-0.01,0.09-0.01,0.18-0.01,0.26c-0.03,0.87-0.07,1.77-0.1,2.69c-0.04,1.01-0.08,2.05-0.12,3.11c-0.01,0.35-0.03,0.71-0.04,1.06
			c-0.13,3.23-0.26,6.69-0.4,10.34c-0.03,0.63-0.05,1.27-0.07,1.91c-0.01,0.05-0.01,0.1-0.01,0.15c-0.03,1.01-0.07,2.04-0.12,3.07
			c-0.02,0.55-0.04,1.1-0.06,1.65c-0.02,0.43-0.04,0.87-0.05,1.31c-0.08,2.06-0.16,4.17-0.25,6.32c-0.01,0.24-0.02,0.49-0.03,0.74
			c-0.04,1.19-0.09,2.39-0.14,3.61c-0.01,0.44-0.03,0.88-0.05,1.33c-0.04,0.97-0.08,1.94-0.11,2.91c-0.11,2.71-0.21,5.48-0.33,8.3
			c-0.04,1.17-0.09,2.35-0.14,3.54c-0.03,0.79-0.06,1.59-0.09,2.38c-0.06,1.4-0.11,2.81-0.17,4.23c-0.1,2.63-0.2,5.29-0.31,7.98
			c-0.1,2.48-0.2,4.99-0.3,7.51c-0.14,3.59-0.28,7.22-0.43,10.88c-0.06,1.48-0.12,2.96-0.18,4.44c-0.03,0.86-0.07,1.73-0.1,2.59
			c-0.05,1.13-0.09,2.27-0.14,3.41c-0.1,2.62-0.21,5.26-0.32,7.89c-0.06,1.42-0.11,2.85-0.17,4.28c-0.11,2.6-0.21,5.2-0.32,7.8
			c-0.07,1.73-0.14,3.46-0.21,5.19c-0.04,0.86-0.07,1.73-0.11,2.59c-0.09,2.15-0.17,4.3-0.26,6.44c-0.05,1.05-0.09,2.09-0.13,3.13
			c-0.01,0.06-0.01,0.12-0.01,0.18c-0.01,0.14-0.01,0.27-0.02,0.4c-0.03,0.77-0.06,1.54-0.09,2.3c-0.01,0.13-0.01,0.26-0.02,0.38
			c-0.06,1.55-0.13,3.1-0.19,4.64c-0.04,0.99-0.09,1.97-0.13,2.95c-0.07,1.67-0.14,3.34-0.21,4.99c-0.02,0.47-0.04,0.94-0.06,1.4
			c-0.05,1.19-0.1,2.37-0.15,3.54c0,0.06,0,0.12-0.01,0.19c-0.05,1.24-0.1,2.48-0.16,3.7c-0.05,1.27-0.1,2.52-0.16,3.77
			c-0.1,2.26-0.2,4.5-0.29,6.7c-0.17,3.89-0.33,7.68-0.5,11.36c-0.04,1.03-0.09,2.04-0.14,3.05c0,0.24-0.02,0.48-0.03,0.71
			c-0.06,1.46-0.13,2.89-0.2,4.31c-0.03,0.88-0.07,1.75-0.11,2.6c-0.06,1.23-0.11,2.43-0.17,3.62c-0.11,2.35-0.21,4.62-0.32,6.82
			c-0.05,1.07-0.1,2.11-0.15,3.14c-0.05,1.13-0.11,2.24-0.16,3.32c-0.02,0.48-0.05,0.94-0.07,1.4c-0.04,0.93-0.09,1.84-0.13,2.73
			c-0.12,2.25-0.23,4.38-0.33,6.38c-0.03,0.56-0.06,1.1-0.09,1.64c-0.03,0.57-0.06,1.12-0.09,1.66c-0.03,0.55-0.06,1.07-0.09,1.59
			c-0.05,0.86-0.09,1.68-0.14,2.47c-0.11,1.95-0.27,3.95-0.47,5.99c-0.06,0.68-0.14,1.37-0.21,2.06c-0.12,1.12-0.25,2.25-0.4,3.39
			c-0.08,0.66-0.16,1.33-0.26,2c-0.09,0.66-0.18,1.34-0.28,2.02c-0.17,1.14-0.34,2.29-0.53,3.46c-0.25,1.59-0.52,3.2-0.81,4.83
			c-0.16,0.89-0.32,1.79-0.49,2.69c-0.23,1.24-0.47,2.48-0.72,3.73c-0.42,2.16-0.88,4.35-1.35,6.55c-0.32,1.47-0.65,2.95-0.99,4.44
			c-0.3,1.3-0.6,2.61-0.91,3.92c-0.39,1.68-0.8,3.37-1.22,5.07c-0.23,0.94-0.47,1.89-0.71,2.83c-0.33,1.33-0.67,2.65-1.02,3.98
			c-0.39,1.52-0.79,3.04-1.2,4.56c-0.09,0.33-0.18,0.67-0.27,1c-0.94,3.47-1.9,6.95-2.89,10.41c-0.6,2.09-1.2,4.17-1.81,6.25
			c-0.58,1.98-1.17,3.96-1.76,5.93c-2.23,7.42-4.51,14.7-6.75,21.67c-0.24,0.78-0.49,1.55-0.74,2.31c-0.36,1.12-0.72,2.24-1.08,3.34
			c-0.62,1.92-1.24,3.8-1.85,5.66c-0.78,2.41-1.56,4.76-2.32,7.05c-0.21,0.63-0.41,1.25-0.61,1.86c-0.95,2.88-1.88,5.65-2.76,8.31
			c-0.19,0.56-0.37,1.12-0.56,1.67c-0.05,0.16-0.1,0.31-0.15,0.47c-0.44,1.32-0.87,2.62-1.29,3.87c-0.02,0.09-0.05,0.17-0.08,0.25
			c-0.32,0.97-0.63,1.92-0.94,2.85c-0.11,0.33-0.22,0.66-0.33,0.99c-0.42,1.28-0.82,2.51-1.21,3.7c-0.67,2.04-1.29,3.96-1.84,5.73
			c-0.12,0.39-0.24,0.77-0.36,1.15c-0.11,0.35-0.22,0.7-0.32,1.04c-0.07,0.23-0.14,0.47-0.21,0.69c-0.05,0.16-0.1,0.32-0.14,0.47
			c-0.07,0.24-0.14,0.47-0.21,0.7c-0.34,1.14-0.64,2.19-0.9,3.14c-6.64,24.37,15.56,61.36,15.56,61.36s377.44,42.8,571.32,0
			c0.1-4.8,0.19-8.38,0.24-10.58c0.76-0.23,1.54-0.49,2.34-0.79c0.21-0.08,0.43-0.16,0.64-0.25c0.52-0.19,1.05-0.41,1.59-0.65
			c0.38-0.15,0.77-0.32,1.16-0.5c1.36-0.61,2.77-1.29,4.21-2.05c0.51-0.26,1.01-0.53,1.53-0.81c3.18-1.73,6.54-3.76,10.01-6.01
			c0.57-0.37,1.14-0.74,1.72-1.13c10.46-6.91,21.75-15.66,31.86-23.96c0.51-0.41,1.01-0.83,1.52-1.24c0.6-0.51,1.2-1,1.8-1.5
			c0.52-0.44,1.04-0.87,1.56-1.3c0.82-0.69,1.64-1.38,2.44-2.06c0.52-0.44,1.04-0.88,1.55-1.31s1.01-0.86,1.51-1.29
			s1-0.85,1.48-1.26c2.19-1.88,4.26-3.68,6.16-5.35c0.41-0.36,0.82-0.72,1.22-1.08c0.42-0.36,0.82-0.72,1.23-1.07
			c0.78-0.69,1.53-1.35,2.23-1.99c0.61-0.54,1.18-1.05,1.73-1.54c1.88-1.69,3.42-3.09,4.57-4.14c0.16-0.15,0.31-0.3,0.46-0.43
			c1.18-1.07,1.82-1.67,1.82-1.67s3.44,0,22.66,0c3.1,0,12.24-9.27,25.44-24.98c68.73-81.75,247.7-338.03,260.11-371.53
			C7901.72,1999.48,7872.4,1965.62,7863.77,1953.14z M7683.82,2057.01c-0.04,0.13-0.09,0.25-0.14,0.37
			c-6.79,15.52-97.94,166.09-144.57,238.4c-14.2,22.02-24.27,36.78-26.58,38.27c-0.54,0.36-1.12,0.71-1.71,1.04
			c-0.19,0.12-0.39,0.23-0.59,0.33c-0.28,0.16-0.57,0.31-0.86,0.46c-0.29,0.15-0.59,0.3-0.89,0.45c-0.36,0.18-0.73,0.36-1.1,0.52
			c-0.43,0.2-0.86,0.39-1.3,0.58c-0.44,0.19-0.88,0.37-1.32,0.55c-0.45,0.18-0.9,0.36-1.35,0.53c-0.43,0.17-0.87,0.33-1.31,0.49
			c-0.47,0.17-0.94,0.34-1.41,0.5c-0.38,0.13-0.75,0.26-1.13,0.38c-0.98,0.33-1.96,0.64-2.91,0.92h-0.01
			c-2.63,0.8-5.11,1.44-7.16,1.94c-0.45,0.11-0.88,0.21-1.29,0.3c-1.09,0.25-2.01,0.45-2.72,0.6c-0.09,0.02-0.17,0.03-0.25,0.05
			c-0.81,0.17-1.27,0.25-1.27,0.25s1.96-263.35,6.93-299.87c4.9-36.47,21.65-150.91,21.65-150.91s0.13,0.1,0.38,0.31
			c0.08,0.06,0.18,0.14,0.29,0.22c1.34,1.08,4.62,3.72,9.38,7.59c0.43,0.35,0.88,0.71,1.34,1.09c1.73,1.41,3.63,2.96,5.68,4.64
			c0.84,0.68,1.71,1.39,2.6,2.13c2.02,1.65,4.16,3.41,6.41,5.27c0.57,0.47,1.14,0.94,1.71,1.41c6.31,5.21,13.41,11.1,20.98,17.47
			c1,0.84,2,1.68,3.02,2.55c1.28,1.07,2.56,2.15,3.85,3.25c1.3,1.09,2.6,2.19,3.91,3.31c2.8,2.37,5.64,4.79,8.51,7.24
			c1.44,1.23,2.88,2.47,4.33,3.72c2.71,2.34,5.45,4.7,8.18,7.07c1.05,0.91,2.1,1.83,3.15,2.75c0.05,0.03,0.09,0.07,0.14,0.12
			c1.07,0.94,2.15,1.87,3.22,2.81c0.03,0.02,0.05,0.04,0.07,0.06c1.1,0.96,2.2,1.93,3.29,2.89c1.65,1.44,3.29,2.89,4.92,4.34
			c0.14,0.12,0.27,0.24,0.4,0.36c0.92,0.82,1.84,1.63,2.76,2.45c0.04,0.03,0.07,0.06,0.11,0.09c0.88,0.78,1.76,1.57,2.63,2.36
			c0,0,0,0,0.01,0c1.82,1.63,3.64,3.26,5.44,4.89c1.07,0.96,2.13,1.93,3.19,2.89c0.53,0.48,1.06,0.96,1.59,1.45
			c1.05,0.95,2.09,1.91,3.13,2.86c0.87,0.8,1.73,1.59,2.59,2.39c0.63,0.58,1.26,1.16,1.88,1.74c0.06,0.04,0.11,0.09,0.16,0.14
			c2.04,1.9,4.05,3.78,6.02,5.63c1.14,1.07,2.26,2.14,3.37,3.2c0.82,0.78,1.63,1.55,2.43,2.32c0.21,0.2,0.42,0.41,0.63,0.61
			c0.58,0.55,1.15,1.1,1.71,1.66c0.16,0.14,0.32,0.29,0.47,0.45c0.47,0.45,0.93,0.89,1.39,1.34c0.19,0.19,0.39,0.38,0.58,0.58h0.01
			c0.59,0.58,1.18,1.16,1.76,1.74c3.7,3.63,7.18,7.16,10.41,10.53c0.59,0.62,1.17,1.22,1.74,1.83c0.57,0.6,1.13,1.2,1.68,1.79
			c0.92,0.99,1.81,1.96,2.68,2.91c0.43,0.48,0.86,0.96,1.28,1.43c0.42,0.47,0.84,0.93,1.24,1.39c3.17,3.6,5.91,6.93,8.14,9.94
			c0.2,0.28,0.4,0.55,0.59,0.82c0.2,0.27,0.39,0.53,0.57,0.8c0.56,0.79,1.08,1.55,1.56,2.29c0.33,0.49,0.63,0.97,0.9,1.44
			c0.32,0.52,0.61,1.02,0.87,1.51c0.09,0.16,0.18,0.32,0.26,0.48c0,0.01,0.01,0.03,0.02,0.05c0.22,0.43,0.43,0.85,0.62,1.26
			c0.37,0.81,0.66,1.58,0.88,2.29C7684.03,2054.78,7684.12,2056.02,7683.82,2057.01z"/>
		<path class="st9" d="M7587.04,2413.48c0,0-59.17,55.2-86.34,63.38l-16.75-132.92c0,0,18.76-3.44,28.58-9.89L7587.04,2413.48z"/>
		<g class="st12">
			<path class="st13" d="M7055.87,2017.71c0.5,46.1,15.8,138.82-9.85,161.02c-25.64,22.18-58.69,56.21-62.16,85.79
				c-3.44,29.61-0.98,110.48-27.12,125.77c-8.36,4.88-21.13,7.6-34.63,9.06c12.28-36.95,32.17-96.45,34.41-135.31
				c2.94-50.45,10.13-241.87,10.3-246.24l0.05-0.1c0,0,133.4-117.62,142.26-110.72C7118.03,1913.9,7055.39,1971.59,7055.87,2017.71z
				"/>
			<path class="st13" d="M7669.18,2032.43c-41.61-47.22-156.65-139.27-156.65-139.27s24.69-112.41,27.65-124.27
				c2.96-11.83-4.95,63.14,15.27,93.7c20.24,30.59,50.3,57.71,68.56,62.64c18.23,4.95,40.94,26.14,44.38,40.46
				C7670.68,1975.1,7669.94,2009.87,7669.18,2032.43z"/>
		</g>
		<g>
			<path class="st9" d="M7365.48,1444.24c0,0,5.39-8.16,13.31-20.91c-19.88,14.66-41.11,24.32-63.14,24.95
				c-104.41,3.01-133.09-77.95-133.09-77.95s-40.16-114.31-68.13-150.67c-2.85-3.64-5.47-7.21-8-10.77
				c-0.4,6.89-0.87,10.61-0.87,10.61s-29.71,203.03,6.57,232.58c36.36,29.55,97.67,11.33,97.67,11.33v82.17
				c66.46,15.77,140.22,10.94,166.83,8.48c-4.83-3.88-4.36-49.37-4.99-55c-0.71-6.73-1.43-13.39-2.14-20.12
				c-1.19-10.22-2.46-20.52-3.65-30.74C7365.79,1446.85,7365.63,1445.58,7365.48,1444.24z"/>
			<path class="st10" d="M7106.36,1212.99c2.64,3.63,5.36,7.36,8.28,11.09c28.96,37.27,70.64,154.61,70.68,154.73
				c17.13,48.23,68.97,78.44,119.09,78.98c27.56,0.3,58.6-8.07,80.35-25.54c21.03-16.89,31.19-43.87,43.12-67.17
				c18.16-35.5,27.42-79.23,25.75-119.15c-2.25-53.62-31.51-98.45-75.18-128.82c-41.28-28.7-99.97-52.35-150.9-42.26
				c-43.75,8.67-78.43,41.75-101.41,78.24c-6.8,10.79-12.26,22.46-15.73,34.73C7109.21,1192.05,7103.45,1208.98,7106.36,1212.99z"/>
			<ellipse class="st9" cx="7164.72" cy="1323.77" rx="30.27" ry="35.57"/>
			<path class="st14" d="M7394.13,1509.95c0,0-140.01,17.14-219.26-2.39c-18.24,21.02-29.38,26.99-29.38,26.99
				s107.64,84.73,285.69,6.99C7408.06,1519.79,7394.13,1509.95,7394.13,1509.95z"/>
		</g>
		<polygon class="st14" points="6594.38,1658.79 6481.23,1736.56 6500.56,1793.65 6627.49,1708.41 		"/>
		<polygon class="st14" points="7493.16,2337.5 7596.48,2435.11 7649.36,2402.23 7535.46,2292.25 		"/>
	</g>
</g>
<g>
	<path class="st15" d="M-2064.05,1955.86l32.67,435.3c14.01-84.47,50.41-163.97,106.95-231.23
		c83.13-98.91,199.81-159.52,328.54-170.67c128.72-11.15,254.08,28.49,352.99,111.63c98.91,83.14,159.52,199.81,170.67,328.54
		c11.15,128.72-28.49,254.08-111.63,352.99c-83.14,98.91-199.81,159.52-328.54,170.67c-128.72,11.15-254.08-28.49-352.99-111.63
		c-70.2-59.01-121.09-134.93-148.71-220.04l38.32,510.69l38.37-45.65c301.37,188.23,702.99,131.02,938.21-148.82
		c257.62-306.49,218-763.79-88.49-1021.42c-139.67-117.4-310.67-173.05-479.81-169.86l-81.63,6.13
		C-1801.76,1772.61-1948.38,1841.14-2064.05,1955.86z"/>
	
		<ellipse transform="matrix(0.7071 -0.7071 0.7071 0.7071 -1824.0173 -1498.0121)" class="st16" cx="-2720.27" cy="1452.78" rx="524.01" ry="524.01"/>
	<path class="st17" d="M-1144.21,1867.59c-306.49-257.62-763.79-218.01-1021.42,88.49c-235.22,279.84-222.51,685.32,14.74,949.83
		l-179.74,213.83l156.95,131.92l179.74-213.83c301.37,188.23,702.99,131.02,938.21-148.82
		C-798.1,2582.52-837.72,2125.22-1144.21,1867.59z M-1128.76,2380.8c11.15,128.72-28.49,254.08-111.63,352.99
		c-83.14,98.91-199.81,159.52-328.54,170.67c-128.72,11.15-254.08-28.49-352.99-111.63c-98.91-83.14-159.52-199.81-170.67-328.54
		c-11.15-128.72,28.49-254.09,111.63-352.99c83.14-98.91,199.81-159.52,328.54-170.67c128.72-11.15,254.08,28.49,352.99,111.63
		C-1200.52,2135.4-1139.91,2252.07-1128.76,2380.8z"/>
	<g class="st18">
		<path class="st13" d="M-1778.02,2876.64c-51.77-19.12-100.39-47.25-143.89-83.81c-98.91-83.14-159.52-199.81-170.67-328.54
			c-11.15-128.72,28.49-254.09,111.63-352.99c83.14-98.91,199.81-159.52,328.54-170.67c52.39-4.54,104.19-0.52,153.92,11.28
			c-65.94-24.35-136.99-34.06-209.09-27.82c-128.72,11.15-245.4,71.76-328.54,170.67c-83.14,98.91-122.78,224.27-111.63,352.99
			c11.15,128.72,71.76,245.4,170.67,328.54C-1918.44,2825.59-1850.46,2859.45-1778.02,2876.64z"/>
		<path class="st13" d="M-2049.11,3021.29l-165.04,196.35l40.48,34.03l171.27-203.76
			C-2018.19,3039.61-2033.81,3030.85-2049.11,3021.29z"/>
		<path class="st13" d="M-1144.21,1867.59c-86.56-72.76-185.16-121.78-287.88-147.8c82.73,28.16,161.78,71.65,232.7,131.26
			c306.49,257.62,346.11,714.92,88.49,1021.42c-185.66,220.87-474.94,302.92-736.81,235.2c275.54,95.31,593.19,17.85,791.99-218.66
			C-798.1,2582.52-837.72,2125.22-1144.21,1867.59z"/>
	</g>
	<path class="st19" d="M-2103.66,3262.03l-249.21-209.47l-454.7,540.95c-57.84,68.82-48.95,171.5,19.87,229.34
		c68.82,57.84,171.5,48.95,229.34-19.87L-2103.66,3262.03L-2103.66,3262.03z"/>
	<path class="st20" d="M-2352.87,3052.56l-1.07,1.27l142.63,119.89l-454.7,540.95c-41.35,49.2-105.59,67.59-164.02,53.03
		c9.71,20.6,23.76,39.53,42.33,55.14c68.82,57.84,171.5,48.95,229.34-19.87l454.7-540.95L-2352.87,3052.56z"/>
	
		<ellipse transform="matrix(0.5526 -0.8334 0.8334 0.5526 -2842.0142 -612.3826)" class="st7" cx="-1991.4" cy="2340.96" rx="53.67" ry="53.67"/>
	<path class="st7" d="M-1976.21,2444.39c4.66,3.67,5.45,10.42,1.79,15.07c-3.67,4.66-10.42,5.46-15.07,1.79
		c-4.66-3.67-5.46-10.42-1.79-15.07C-1987.61,2441.52-1980.86,2440.72-1976.21,2444.39z"/>
	<path class="st7" d="M-1663.76,1741.76c-172.77,1.39-340.25,87.26-442.2,226.75c-3.76,5.14,3.75,11.66,7.54,6.48
		c100.55-137.59,264.99-221.95,435.4-223.32C-1656.61,1751.62-1657.38,1741.71-1663.76,1741.76z"/>
	<path class="st7" d="M-2121.8,1996.14c-6.38,0.48-5.65,10.4,0.74,9.92C-2114.68,2005.58-2115.41,1995.66-2121.8,1996.14z"/>
	<path class="st7" d="M-1615.63,1742.93c-6.38,0.48-5.65,10.4,0.74,9.92C-1608.5,1752.37-1609.24,1742.45-1615.63,1742.93z"/>
	<path class="st7" d="M-2162.3,2955.04c-38,39.77-76.01,79.54-114.01,119.31c-4.43,4.64,3.12,11.1,7.54,6.48
		c38-39.77,76.01-79.54,114.01-119.31C-2150.33,2956.88-2157.89,2950.42-2162.3,2955.04z"/>
	<path class="st7" d="M-2745,3562.48c-52.76,39.96-81.87,104.58-76.59,170.59c0.51,6.38,10.43,5.65,9.92-0.74
		c-4.99-62.46,22.35-123.8,72.33-161.66C-2734.27,3566.81-2739.88,3558.6-2745,3562.48z"/>
	<path class="st7" d="M-2725.45,3547.16c-6.38,0.48-5.65,10.4,0.74,9.92C-2718.32,3556.59-2719.06,3546.68-2725.45,3547.16z"/>
</g>
</svg>
